<?xml version="1.0" encoding="UTF-8"?>
<svg id="Layer_1" xmlns="http://www.w3.org/2000/svg" xmlns:xlink="http://www.w3.org/1999/xlink" version="1.1" viewBox="0 0 389.23 83.74">
  <!-- Generator: Adobe Illustrator 29.5.1, SVG Export Plug-In . SVG Version: 2.1.0 Build 141)  -->
  <defs>
    <style>
      .st0 {
        fill: url(#linear-gradient1);
      }

      .st1 {
        fill: url(#linear-gradient);
      }
    </style>
    <linearGradient id="linear-gradient" x1="-45.38" y1="106.11" x2="127.58" y2="-16.28" gradientUnits="userSpaceOnUse">
      <stop offset="0" stop-color="#fff"/>
      <stop offset="1" stop-color="#9e9e9e"/>
    </linearGradient>
    <linearGradient id="linear-gradient1" x1="-11.83" y1="-14.45" x2="65.68" y2="73.63" gradientUnits="userSpaceOnUse">
      <stop offset="0" stop-color="#f9f0e6"/>
      <stop offset="1" stop-color="#365f3b"/>
    </linearGradient>
  </defs>
  <g>
    <path d="M123.65,42.15c-2.87,0-5.45-.41-7.75-1.22-2.29-.81-4.26-1.99-5.89-3.54-1.63-1.55-2.89-3.41-3.76-5.61-.88-2.19-1.31-4.68-1.31-7.45v-.02c0-3.61.76-6.73,2.28-9.34,1.52-2.62,3.68-4.64,6.47-6.06,2.79-1.42,6.08-2.13,9.87-2.13,3.09,0,5.84.49,8.26,1.46s4.39,2.31,5.94,4.01c1.54,1.7,2.57,3.66,3.08,5.87l.09.33h-7.24l-.12-.21c-.74-1.74-1.96-3.1-3.67-4.09-1.7-.99-3.79-1.49-6.24-1.49s-4.35.46-6.06,1.37-3.02,2.24-3.96,3.97c-.94,1.73-1.41,3.82-1.41,6.27v.02c0,1.88.27,3.55.82,5.03.54,1.47,1.32,2.73,2.33,3.77,1.01,1.04,2.23,1.83,3.66,2.38,1.43.54,3.02.82,4.79.82,1.94,0,3.65-.3,5.12-.91,1.47-.61,2.66-1.47,3.56-2.59.9-1.12,1.44-2.45,1.63-4v-.35h-10.12v-5.04h17.17v3.24c0,2.4-.4,4.55-1.21,6.46-.8,1.91-1.97,3.54-3.5,4.88-1.53,1.35-3.37,2.38-5.52,3.1-2.15.72-4.59,1.08-7.3,1.08Z"/>
    <path d="M145.43,41.54v-25.22l6.88.02v4.73h.14c.46-1.66,1.29-2.94,2.5-3.86,1.21-.91,2.68-1.37,4.44-1.37.43,0,.83.02,1.21.07.38.05.72.1,1.02.17v5.87c-.35-.09-.76-.17-1.24-.22-.48-.05-.98-.08-1.5-.08-1.36,0-2.52.25-3.49.76-.97.5-1.72,1.25-2.26,2.25-.54.99-.8,2.23-.8,3.71v13.18h-6.88Z"/>
    <g>
      <path d="M183.6,17.42c-2.03-1.08-4.45-1.62-7.27-1.62-2.78-.02-5.2.52-7.26,1.6s-3.67,2.61-4.81,4.59c-1.14,1.98-1.71,4.32-1.71,7.01v.02c0,2.71.56,5.05,1.68,7,1.12,1.96,2.74,3.46,4.86,4.51,2.12,1.05,4.64,1.57,7.56,1.57,1.78,0,3.41-.21,4.87-.61,1.47-.41,2.75-.98,3.86-1.72,1.1-.73,2.01-1.58,2.72-2.55.71-.97,1.21-2.01,1.49-3.11l.07-.26h-6.43l-.09.17c-.27.58-.69,1.11-1.28,1.57-.58.46-1.3.84-2.15,1.11-.85.28-1.81.41-2.86.41-1.47,0-2.77-.26-3.91-.78-1.14-.52-2.04-1.32-2.67-2.4-.55-.92-.84-2.06-.92-3.39h20.64v-1.75c0-2.59-.55-4.86-1.66-6.81-1.1-1.96-2.67-3.47-4.7-4.55ZM172.64,21.59c1.07-.55,2.34-.83,3.81-.83s2.65.28,3.69.83,1.85,1.36,2.41,2.42c.37.69.6,1.49.73,2.38h-13.87c.14-.87.37-1.66.74-2.34.58-1.09,1.41-1.91,2.48-2.46Z"/>
      <path d="M220.07,28.79c0-2.59-.55-4.86-1.66-6.81-1.1-1.96-2.67-3.47-4.7-4.55-2.03-1.08-4.45-1.62-7.27-1.62-2.78-.02-5.2.52-7.26,1.6s-3.67,2.61-4.81,4.59c-1.14,1.98-1.71,4.32-1.71,7.01v.02c0,2.71.56,5.05,1.68,7,1.12,1.96,2.74,3.46,4.86,4.51,2.12,1.05,4.64,1.57,7.56,1.57,1.78,0,3.41-.21,4.87-.61,1.47-.41,2.75-.98,3.86-1.72,1.1-.73,2.01-1.58,2.72-2.55.71-.97,1.21-2.01,1.49-3.11l.07-.26h-6.43l-.09.17c-.27.58-.69,1.11-1.28,1.57-.58.46-1.3.84-2.15,1.11-.85.28-1.81.41-2.86.41-1.47,0-2.77-.26-3.91-.78-1.14-.52-2.04-1.32-2.67-2.4-.55-.92-.84-2.06-.92-3.39h20.64v-1.75ZM202.75,21.59c1.07-.55,2.34-.83,3.81-.83s2.65.28,3.69.83,1.85,1.36,2.41,2.42c.37.69.6,1.49.73,2.38h-13.87c.14-.87.37-1.66.74-2.34.58-1.09,1.41-1.91,2.48-2.46Z"/>
    </g>
    <path d="M223.74,41.54v-25.22h6.88v4.52h.14c.79-1.56,1.96-2.79,3.52-3.7,1.56-.91,3.44-1.36,5.63-1.36,3.22,0,5.71.92,7.49,2.76,1.77,1.84,2.66,4.4,2.66,7.7v15.31h-6.91v-13.91c0-2.05-.49-3.62-1.48-4.72-.99-1.1-2.46-1.64-4.44-1.64-1.32,0-2.48.28-3.48.84-.99.56-1.77,1.35-2.32,2.37-.55,1.02-.83,2.2-.83,3.56v13.51h-6.88Z"/>
    <path d="M277.65,41.54l-13.82-34.14h7.92l10.15,27.23h.14l10.15-27.23h7.9l-13.82,34.14h-8.63Z"/>
    <path d="M322.7,20.07c-1-1.36-2.42-2.42-4.26-3.17s-4.03-1.12-6.56-1.12-4.6.36-6.36,1.07c-1.77.71-3.16,1.68-4.18,2.91s-1.63,2.65-1.83,4.26l-.05.26h6.46l.07-.21c.24-.95.84-1.72,1.8-2.32s2.25-.9,3.88-.9c1.81,0,3.21.38,4.18,1.15.97.77,1.45,1.83,1.45,3.21v1.17l-8.61.32c-2.32.08-4.25.43-5.78,1.06-1.54.63-2.69,1.49-3.44,2.58-.76,1.09-1.14,2.37-1.14,3.86v.05c0,1.58.41,2.95,1.23,4.12.82,1.17,1.96,2.06,3.43,2.68,1.47.62,3.19.93,5.16.93,1.36,0,2.62-.18,3.79-.54s2.2-.87,3.09-1.54c.89-.66,1.6-1.46,2.14-2.39h.14v4.04h6.91v-16.63c0-1.86-.5-3.47-1.5-4.84ZM316.39,34.58c-.61.8-1.44,1.44-2.51,1.89-1.06.46-2.31.69-3.73.69-1.51,0-2.72-.28-3.63-.84-.91-.56-1.36-1.37-1.36-2.42v-.05c0-.91.37-1.65,1.12-2.2.75-.55,1.9-.86,3.44-.92l7.57-.29v1.38c0,1.04-.3,1.96-.91,2.77Z"/>
    <path d="M338.75,42.08c-2.1,0-3.9-.41-5.41-1.23-1.51-.82-2.66-2.01-3.45-3.56-.8-1.55-1.19-3.42-1.19-5.59v-15.35h6.88v13.96c0,2.04.49,3.6,1.48,4.68.99,1.09,2.43,1.63,4.34,1.63,1.01,0,1.92-.16,2.72-.47.8-.32,1.5-.77,2.08-1.36.58-.59,1.03-1.3,1.35-2.14.32-.84.47-1.77.47-2.79v-13.51h6.91v25.19h-6.91v-4.5h-.12c-.54,1.04-1.23,1.94-2.09,2.69-.86.75-1.88,1.33-3.08,1.74-1.19.41-2.52.62-3.99.62Z"/>
    <path d="M359.81,41.54V7.4h6.88v34.14h-6.88Z"/>
    <path d="M383.37,41.99c-3.19,0-5.53-.63-7.04-1.89-1.51-1.26-2.26-3.32-2.26-6.17v-12.54h-4.42v-5.06h4.42v-6.27h6.93v6.27h6.32v5.06h-6.32v11.83c0,1.39.33,2.36,1.01,2.91.67.55,1.72.83,3.16.83.41,0,.8-.01,1.16-.05.36-.03.69-.07.99-.12v4.9c-.5.09-1.1.17-1.77.22-.68.06-1.4.08-2.18.08Z"/>
    <path d="M105.45,76.7v-24.42h2.25v10.9h17.48v-10.9h2.29v24.42h-2.29v-11.51h-17.48v11.51h-2.25Z"/>
    <path d="M140.3,77.04c-1.86,0-3.5-.37-4.91-1.12-1.41-.75-2.52-1.8-3.32-3.18-.8-1.38-1.2-3-1.2-4.87v-.03c0-1.86.4-3.48,1.2-4.86.8-1.38,1.91-2.43,3.32-3.17,1.41-.74,3.04-1.11,4.89-1.11s3.5.37,4.92,1.11c1.42.74,2.52,1.79,3.31,3.16.79,1.37,1.18,2.99,1.18,4.87v.03c0,1.88-.4,3.51-1.18,4.88-.79,1.37-1.89,2.43-3.31,3.17-1.42.74-3.05,1.12-4.9,1.12ZM140.3,75.14c1.42,0,2.67-.29,3.75-.88,1.08-.59,1.92-1.42,2.52-2.5s.91-2.38.91-3.89v-.03c0-1.51-.3-2.8-.91-3.87-.6-1.07-1.45-1.9-2.54-2.49-1.09-.59-2.34-.88-3.75-.88s-2.65.29-3.73.87c-1.08.58-1.92,1.41-2.53,2.49-.61,1.08-.91,2.37-.91,3.88v.03c0,1.51.3,2.81.91,3.89s1.45,1.91,2.53,2.5c1.08.58,2.33.88,3.75.89Z"/>
    <path d="M152.99,76.7v-24.5h2.2v24.5h-2.2Z"/>
    <path d="M167.27,77.04c-1.77,0-3.32-.39-4.64-1.16-1.32-.77-2.35-1.85-3.09-3.23-.74-1.38-1.11-2.97-1.11-4.76v-.02c0-1.82.37-3.41,1.12-4.8.75-1.38,1.77-2.46,3.09-3.22,1.31-.77,2.85-1.15,4.61-1.15,1.2,0,2.3.18,3.3.55,1,.37,1.87.88,2.59,1.54.72.66,1.28,1.44,1.68,2.34h.08v-10.93h2.18v24.5h-2.18v-4.06h-.12c-.4.88-.95,1.65-1.68,2.31-.72.66-1.57,1.17-2.55,1.54-.98.37-2.08.55-3.28.55ZM167.76,75.14c1.42,0,2.67-.31,3.74-.92,1.07-.61,1.9-1.47,2.5-2.56.59-1.09.89-2.36.89-3.79v-.02c0-1.43-.3-2.69-.9-3.78-.6-1.09-1.43-1.94-2.5-2.56-1.07-.62-2.31-.92-3.72-.92s-2.69.3-3.74.9c-1.05.6-1.87,1.44-2.46,2.52s-.89,2.37-.89,3.86v.02c0,1.47.3,2.75.89,3.84.59,1.09,1.41,1.94,2.46,2.53,1.05.59,2.3.89,3.74.89Z"/>
    <path d="M182.5,55.8c-.41,0-.76-.14-1.05-.42s-.44-.62-.44-1.02.15-.73.44-1.02c.29-.28.64-.42,1.05-.42s.75.14,1.04.42c.29.28.43.62.43,1.02s-.14.73-.43,1.02c-.29.28-.63.42-1.04.42ZM181.39,76.7v-17.67h2.22v17.67h-2.22Z"/>
    <path d="M187.77,76.7v-17.67h2.2v3.77h.03c.54-1.23,1.43-2.22,2.66-2.98,1.23-.76,2.71-1.13,4.43-1.13,2.35,0,4.17.67,5.48,2.01,1.31,1.34,1.96,3.21,1.96,5.62v10.37h-2.18v-10.03c0-1.97-.5-3.48-1.5-4.5-1-1.03-2.44-1.54-4.32-1.54-1.33,0-2.49.27-3.47.8-.98.54-1.74,1.3-2.28,2.29-.54.99-.81,2.14-.81,3.46v9.53h-2.2Z"/>
    <path d="M217.11,82.96c-1.57,0-2.94-.19-4.11-.57-1.17-.38-2.15-.91-2.92-1.59s-1.32-1.46-1.63-2.33l-.05-.14h2.37l.07.12c.42.79,1.16,1.43,2.23,1.92,1.07.49,2.41.74,4.04.74,2.2,0,3.89-.49,5.08-1.47,1.18-.98,1.78-2.36,1.78-4.13v-3.01h-.07c-.38.86-.94,1.62-1.66,2.28s-1.57,1.17-2.56,1.54c-.98.37-2.08.55-3.28.55-1.75,0-3.29-.38-4.61-1.15-1.33-.77-2.36-1.83-3.09-3.18s-1.1-2.93-1.1-4.72v-.05c0-1.79.37-3.37,1.12-4.74.74-1.37,1.78-2.43,3.1-3.19s2.85-1.14,4.6-1.14c1.2,0,2.29.19,3.27.58s1.84.91,2.56,1.57c.72.67,1.27,1.43,1.65,2.3h.07v-4.11h2.2v16.62c0,1.53-.36,2.85-1.08,3.93-.72,1.09-1.76,1.92-3.11,2.5-1.35.58-2.96.87-4.85.87ZM216.86,74.99c1.42,0,2.66-.3,3.72-.91s1.88-1.45,2.47-2.53c.59-1.08.88-2.33.88-3.75v-.03c0-1.41-.3-2.66-.89-3.74-.59-1.08-1.42-1.93-2.47-2.54-1.05-.61-2.29-.91-3.71-.91s-2.63.3-3.68.9c-1.05.6-1.88,1.44-2.47,2.51-.59,1.08-.89,2.34-.89,3.78v.05c0,1.44.29,2.71.88,3.79.59,1.08,1.41,1.92,2.47,2.5,1.06.59,2.29.88,3.69.88Z"/>
  </g>
  <g>
    <polygon class="st1" points="1.91 82.73 83.01 .41 78.84 33.06 1.91 82.73"/>
    <path class="st0" d="M78.84,33.06l-11.5,7.43c.19,1.26.31,2.55.31,3.86,0,14.26-11.6,25.86-25.86,25.86s-25.86-11.6-25.86-25.86,11.6-25.86,25.86-25.86c2.67,0,5.24.41,7.66,1.16l9.91-10.06c-5.29-2.68-11.25-4.23-17.57-4.23C20.29,5.36,2.8,22.85,2.8,44.34s17.49,38.99,38.98,38.99,38.98-17.49,38.98-38.99c0-4.12-.66-8.08-1.86-11.81l-.07.52Z"/>
  </g>
</svg>