<?xml version="1.0" encoding="UTF-8" standalone="no"?>
<!DOCTYPE svg PUBLIC "-//W3C//DTD SVG 1.1//EN" "http://www.w3.org/Graphics/SVG/1.1/DTD/svg11.dtd">
<svg width="100%" height="100%" viewBox="0 0 200 31" version="1.1" xmlns="http://www.w3.org/2000/svg" xmlns:xlink="http://www.w3.org/1999/xlink" xml:space="preserve" xmlns:serif="http://www.serif.com/" style="fill-rule:evenodd;clip-rule:evenodd;stroke-linejoin:round;stroke-miterlimit:2;">
    <g>
        <path d="M0,10.395C0,8.463 0.437,6.713 1.312,5.146C2.185,3.577 3.422,2.342 5.023,1.441C6.621,0.54 8.435,0.088 10.46,0.088C12.207,0.088 13.789,0.432 15.205,1.122C16.619,1.81 17.757,2.735 18.617,3.897C19.478,5.057 20.051,6.372 20.338,7.843L14.343,8.691C14.343,8.691 14.012,5.272 9.224,5.146C7.352,5.095 4.08,6.83 3.742,11.53C3.616,13.289 4.333,14.973 5.411,16.095C6.487,17.219 10.163,19.708 15.205,17.138C18.245,15.588 20.338,12.796 20.338,12.796C19.902,15.025 18.657,17.072 16.821,18.515C14.986,19.958 13.077,20.717 10.46,20.717C8.426,20.717 6.609,20.267 5.008,19.364C3.408,18.463 2.173,17.23 1.304,15.667C0.434,14.105 0,12.348 0,10.395ZM22.882,20.456L22.882,-0L27.542,-0L27.542,9.205L26.576,8.055C27.201,7.288 27.944,6.677 28.806,6.222C29.668,5.768 30.62,5.54 31.662,5.54C33.016,5.54 34.144,5.81 35.049,6.35C35.953,6.89 36.629,7.595 37.074,8.467C37.519,9.338 37.742,10.276 37.742,11.279L37.742,20.456L33.082,20.456L33.082,12.586C33.082,11.753 32.841,11.076 32.358,10.555C31.875,10.034 31.197,9.769 30.326,9.759C29.739,9.75 29.239,9.867 28.827,10.107C28.415,10.348 28.097,10.695 27.875,11.145C27.652,11.593 27.542,12.127 27.542,12.743L27.542,20.456L22.882,20.456ZM47.487,20.882C46.123,20.882 44.901,20.564 43.822,19.924C42.742,19.285 41.89,18.389 41.265,17.24C40.64,16.089 40.327,14.746 40.327,13.211C40.327,12.056 40.507,11.008 40.867,10.066C41.227,9.123 41.729,8.315 42.373,7.643C43.017,6.97 43.774,6.453 44.646,6.088C45.517,5.723 46.464,5.54 47.487,5.54C48.832,5.54 49.978,5.832 50.925,6.415C51.872,6.997 52.549,7.771 52.956,8.737L52.317,9.745L52.317,5.966L56.323,5.966L56.323,20.456L52.317,20.456L52.317,16.678L52.956,17.672C52.549,18.638 51.872,19.415 50.925,20.002C49.978,20.589 48.832,20.882 47.487,20.882ZM48.282,16.876C48.926,16.876 49.506,16.728 50.022,16.43C50.538,16.131 50.948,15.707 51.251,15.158C51.554,14.608 51.706,13.96 51.706,13.211C51.706,12.454 51.554,11.803 51.251,11.257C50.948,10.713 50.538,10.291 50.022,9.995C49.506,9.696 48.926,9.546 48.282,9.546C47.638,9.546 47.061,9.696 46.549,9.995C46.038,10.291 45.631,10.713 45.327,11.257C45.024,11.803 44.873,12.454 44.873,13.211C44.873,13.96 45.024,14.608 45.327,15.158C45.631,15.707 46.038,16.131 46.549,16.43C47.061,16.728 47.638,16.876 48.282,16.876ZM60.187,20.456L60.187,5.966L64.846,5.966L64.846,7.501C65.386,6.819 66.025,6.322 66.764,6.009C67.503,5.697 68.279,5.54 69.094,5.54C70.458,5.54 71.58,5.809 72.461,6.344C73.341,6.879 73.992,7.57 74.413,8.418C74.834,9.265 75.046,10.162 75.046,11.109L75.046,20.456L70.386,20.456L70.386,12.572C70.386,11.701 70.156,11.014 69.697,10.512C69.237,10.01 68.563,9.759 67.673,9.759C67.105,9.759 66.609,9.882 66.188,10.129C65.766,10.375 65.438,10.724 65.201,11.172C64.965,11.623 64.846,12.136 64.846,12.714L64.846,20.456L60.187,20.456ZM85.658,20.882C84.123,20.882 82.752,20.549 81.544,19.882C80.337,19.214 79.383,18.3 78.683,17.138C77.982,15.978 77.631,14.67 77.631,13.211C77.631,12.113 77.837,11.099 78.249,10.171C78.661,9.243 79.241,8.432 79.99,7.736C80.738,7.04 81.609,6.5 82.603,6.116C83.598,5.733 84.677,5.54 85.842,5.54C86.941,5.54 87.959,5.69 88.897,5.989C89.834,6.287 90.677,6.734 91.425,7.33L89.38,10.782C88.916,10.356 88.406,10.043 87.852,9.845C87.298,9.646 86.718,9.546 86.112,9.546C85.317,9.546 84.63,9.688 84.052,9.972C83.475,10.257 83.031,10.673 82.723,11.223C82.416,11.772 82.263,12.43 82.263,13.197C82.263,14.353 82.605,15.255 83.292,15.904C83.978,16.553 84.924,16.876 86.126,16.876C86.808,16.876 87.449,16.752 88.051,16.501C88.652,16.25 89.204,15.882 89.706,15.399L91.596,18.922C90.781,19.528 89.85,20.006 88.803,20.357C87.757,20.707 86.709,20.882 85.658,20.882ZM100.872,20.882C99.281,20.882 97.884,20.564 96.681,19.924C95.479,19.285 94.541,18.389 93.869,17.24C93.196,16.089 92.86,14.741 92.86,13.197C92.86,12.08 93.056,11.052 93.449,10.115C93.842,9.177 94.391,8.367 95.097,7.685C95.802,7.003 96.636,6.476 97.597,6.102C98.558,5.728 99.617,5.54 100.773,5.54C102.042,5.54 103.173,5.766 104.168,6.214C105.162,6.666 105.983,7.291 106.632,8.091C107.28,8.891 107.729,9.834 107.975,10.918C108.221,12.002 108.231,13.178 108.003,14.447L97.122,14.447C97.131,15.016 97.302,15.513 97.633,15.939C97.965,16.365 98.419,16.7 98.997,16.94C99.575,17.181 100.247,17.303 101.014,17.303C101.866,17.303 102.676,17.191 103.443,16.968C104.21,16.747 104.944,16.403 105.645,15.939L107.108,19.093C106.663,19.434 106.087,19.738 105.382,20.01C104.676,20.28 103.928,20.491 103.137,20.649C102.346,20.804 101.592,20.882 100.872,20.882ZM97.406,11.308L103.571,11.308C103.552,10.579 103.282,9.996 102.761,9.56C102.241,9.125 101.535,8.907 100.645,8.907C99.745,8.907 98.998,9.125 98.407,9.56C97.815,9.996 97.482,10.579 97.406,11.308Z" style="fill:rgb(221,49,1);fill-rule:nonzero;"/>
        <path d="M111.299,20.456L111.299,0.568L115.831,0.568L123.388,13.112L121.513,13.126L128.701,0.568L133.219,0.568L133.219,20.456L128.644,20.456L128.73,6.591L129.568,6.89L123.829,16.706L120.689,16.706L114.723,6.89L115.532,6.591L115.618,20.456L111.299,20.456Z" style="fill:rgb(221,49,1);fill-rule:nonzero;"/>
        <path d="M142.935,20.882C141.572,20.882 140.35,20.564 139.27,19.924C138.191,19.285 137.338,18.389 136.713,17.24C136.088,16.089 135.776,14.746 135.776,13.211C135.776,12.056 135.956,11.008 136.315,10.066C136.675,9.123 137.177,8.315 137.821,7.643C138.465,6.97 139.223,6.453 140.094,6.088C140.966,5.723 141.913,5.54 142.935,5.54C144.28,5.54 145.426,5.832 146.373,6.415C147.32,6.997 147.997,7.771 148.405,8.737L147.765,9.745L147.765,5.966L151.771,5.966L151.771,20.456L147.765,20.456L147.765,16.678L148.405,17.672C147.997,18.638 147.32,19.415 146.373,20.002C145.426,20.589 144.28,20.882 142.935,20.882ZM143.731,16.876C144.375,16.876 144.954,16.728 145.47,16.43C145.986,16.131 146.397,15.707 146.7,15.158C147.003,14.608 147.155,13.96 147.155,13.211C147.155,12.454 147.003,11.803 146.7,11.257C146.397,10.713 145.986,10.291 145.47,9.995C144.954,9.696 144.375,9.546 143.731,9.546C143.087,9.546 142.509,9.696 141.998,9.995C141.486,10.291 141.079,10.713 140.776,11.257C140.473,11.803 140.322,12.454 140.322,13.211C140.322,13.96 140.473,14.608 140.776,15.158C141.079,15.707 141.486,16.131 141.998,16.43C142.509,16.728 143.087,16.876 143.731,16.876Z" style="fill:rgb(221,49,1);fill-rule:nonzero;"/>
        <path d="M155.635,20.456L155.635,0L160.295,0L160.295,10.768L164.656,5.966L170.054,5.966L164.983,11.819L170.509,20.456L164.997,20.456L161.602,14.859L160.295,16.251L160.295,20.456L155.635,20.456Z" style="fill:rgb(221,49,1);fill-rule:nonzero;"/>
        <path d="M179.629,20.882C178.038,20.882 176.641,20.564 175.438,19.924C174.235,19.285 173.298,18.389 172.625,17.24C171.953,16.089 171.617,14.741 171.617,13.197C171.617,12.08 171.813,11.052 172.206,10.115C172.599,9.177 173.148,8.367 173.853,7.685C174.559,7.003 175.392,6.476 176.354,6.102C177.315,5.728 178.374,5.54 179.529,5.54C180.799,5.54 181.93,5.766 182.925,6.214C183.919,6.666 184.74,7.291 185.389,8.091C186.037,8.891 186.486,9.834 186.732,10.918C186.978,12.002 186.988,13.178 186.76,14.447L175.879,14.447C175.888,15.016 176.059,15.513 176.39,15.939C176.721,16.365 177.176,16.7 177.754,16.94C178.331,17.181 179.004,17.303 179.771,17.303C180.623,17.303 181.433,17.191 182.2,16.968C182.967,16.747 183.701,16.403 184.402,15.939L185.865,19.093C185.42,19.434 184.844,19.738 184.138,20.01C183.433,20.28 182.685,20.491 181.894,20.649C181.103,20.804 180.349,20.882 179.629,20.882ZM176.163,11.308L182.328,11.308C182.309,10.579 182.039,9.996 181.518,9.56C180.997,9.125 180.292,8.907 179.402,8.907C178.502,8.907 177.755,9.125 177.163,9.56C176.572,9.996 176.238,10.579 176.163,11.308ZM189.644,20.456L189.644,5.966L194.303,5.966L194.303,7.657C194.739,6.909 195.317,6.364 196.037,6.023C196.756,5.682 197.538,5.512 198.381,5.512C198.703,5.512 198.991,5.531 199.247,5.569C199.503,5.607 199.754,5.649 200,5.697L198.381,10.228C198.059,10.115 197.703,10.1 197.344,10.1C196.463,10.1 195.735,10.353 195.162,10.861C194.589,11.368 194.303,12.108 194.303,13.084L194.303,20.456L189.644,20.456Z" style="fill:rgb(221,49,1);fill-rule:nonzero;"/>
        <g transform="matrix(1,0,0,1,111.403,23.323)">
            <path d="M0,7.174L0,0.152L4.721,0.152L4.721,1.831L1.845,1.831L1.845,3.095L4.41,3.095L4.41,4.712L1.845,4.712L1.845,7.174L0,7.174Z" style="fill:rgb(221,49,1);fill-rule:nonzero;"/>
            <path d="M10.956,7.325C10.411,7.325 9.909,7.232 9.452,7.046C8.994,6.861 8.594,6.603 8.257,6.271C7.919,5.94 7.658,5.553 7.472,5.108C7.286,4.663 7.194,4.181 7.194,3.662C7.194,3.141 7.286,2.658 7.472,2.213C7.658,1.768 7.919,1.38 8.257,1.05C8.594,0.718 8.994,0.461 9.452,0.276C9.909,0.092 10.411,-0 10.956,-0C11.502,-0 12.002,0.095 12.458,0.281C12.916,0.469 13.314,0.729 13.653,1.064C13.993,1.398 14.256,1.787 14.443,2.23C14.63,2.674 14.724,3.151 14.724,3.662C14.724,4.181 14.63,4.663 14.443,5.108C14.256,5.553 13.993,5.94 13.653,6.271C13.314,6.603 12.916,6.861 12.458,7.046C12.002,7.232 11.502,7.325 10.956,7.325ZM10.956,5.594C11.224,5.594 11.469,5.55 11.691,5.458C11.914,5.368 12.106,5.239 12.271,5.07C12.435,4.901 12.563,4.697 12.653,4.461C12.743,4.222 12.788,3.957 12.788,3.662C12.788,3.267 12.709,2.926 12.552,2.636C12.395,2.347 12.178,2.125 11.903,1.967C11.627,1.81 11.311,1.732 10.956,1.732C10.692,1.732 10.448,1.776 10.223,1.867C9.999,1.957 9.807,2.085 9.643,2.252C9.478,2.42 9.352,2.623 9.264,2.862C9.175,3.102 9.13,3.368 9.13,3.662C9.13,4.057 9.209,4.399 9.366,4.688C9.523,4.978 9.739,5.201 10.013,5.359C10.288,5.515 10.602,5.594 10.956,5.594ZM20.513,7.325C19.844,7.325 19.284,7.193 18.831,6.931C18.378,6.669 18.035,6.304 17.801,5.84C17.569,5.375 17.453,4.839 17.453,4.235L17.453,0.152L19.299,0.152L19.299,4.32C19.299,4.751 19.405,5.071 19.618,5.28C19.83,5.49 20.13,5.594 20.513,5.594C20.898,5.594 21.197,5.49 21.407,5.28C21.616,5.071 21.722,4.751 21.722,4.32L21.722,0.152L23.578,0.152L23.578,4.235C23.578,4.836 23.463,5.37 23.23,5.835C22.998,6.299 22.653,6.664 22.199,6.929C21.744,7.193 21.182,7.325 20.513,7.325Z" style="fill:rgb(221,49,1);fill-rule:nonzero;"/>
            <path d="M26.745,7.174L26.745,0.152L28.58,0.152L31.254,4.189L31.254,0.152L33.041,0.152L33.041,7.174L31.204,7.174L28.53,3.076L28.53,7.174L26.745,7.174Z" style="fill:rgb(221,49,1);fill-rule:nonzero;"/>
            <path d="M36.241,7.174L36.241,0.152L38.72,0.152C39.459,0.152 40.106,0.298 40.663,0.595C41.22,0.89 41.653,1.304 41.962,1.831C42.272,2.36 42.426,2.971 42.426,3.662C42.426,4.184 42.338,4.661 42.161,5.092C41.984,5.524 41.732,5.894 41.407,6.203C41.08,6.513 40.69,6.752 40.234,6.921C39.779,7.09 39.274,7.174 38.72,7.174L36.241,7.174ZM38.087,5.453L38.649,5.453C38.924,5.453 39.173,5.417 39.397,5.343C39.621,5.27 39.816,5.157 39.978,5.005C40.142,4.852 40.269,4.666 40.357,4.443C40.445,4.221 40.491,3.96 40.491,3.662C40.491,3.267 40.412,2.937 40.258,2.669C40.101,2.402 39.887,2.2 39.61,2.068C39.334,1.934 39.014,1.867 38.649,1.867L38.087,1.867L38.087,5.453ZM44.404,7.174L46.997,0.152L49.165,0.152L51.763,7.174L49.681,7.174L49.24,5.835L46.866,5.835L46.431,7.174L44.404,7.174ZM47.274,4.3L48.824,4.3L48.05,2.082L47.274,4.3Z" style="fill:rgb(221,49,1);fill-rule:nonzero;"/>
            <path d="M55.38,7.174L55.38,1.831L53.54,1.831L53.54,0.152L59.077,0.152L59.077,1.831L57.237,1.831L57.237,7.174L55.38,7.174Z" style="fill:rgb(221,49,1);fill-rule:nonzero;"/>
            <rect x="61.642" y="0.152" width="1.847" height="7.024" style="fill:rgb(221,49,1);fill-rule:nonzero;"/>
            <path d="M70.02,7.325C69.474,7.325 68.972,7.232 68.514,7.046C68.057,6.861 67.659,6.603 67.321,6.271C66.983,5.94 66.721,5.553 66.535,5.108C66.35,4.663 66.257,4.181 66.257,3.662C66.257,3.141 66.35,2.658 66.535,2.213C66.721,1.768 66.983,1.38 67.321,1.05C67.659,0.718 68.057,0.461 68.514,0.276C68.972,0.092 69.474,-0 70.02,-0C70.565,-0 71.065,0.095 71.521,0.281C71.979,0.469 72.377,0.729 72.716,1.064C73.056,1.398 73.319,1.787 73.507,2.23C73.693,2.674 73.786,3.151 73.786,3.662C73.786,4.181 73.693,4.663 73.507,5.108C73.319,5.553 73.056,5.94 72.716,6.271C72.377,6.603 71.979,6.861 71.521,7.046C71.065,7.232 70.565,7.325 70.02,7.325ZM70.02,5.594C70.287,5.594 70.532,5.55 70.754,5.458C70.977,5.368 71.169,5.239 71.334,5.07C71.498,4.901 71.626,4.697 71.716,4.461C71.805,4.222 71.851,3.957 71.851,3.662C71.851,3.267 71.772,2.926 71.614,2.636C71.458,2.347 71.24,2.125 70.966,1.967C70.69,1.81 70.374,1.732 70.02,1.732C69.755,1.732 69.51,1.776 69.286,1.867C69.064,1.957 68.87,2.085 68.705,2.252C68.541,2.42 68.415,2.623 68.327,2.862C68.238,3.102 68.194,3.368 68.194,3.662C68.194,4.057 68.271,4.399 68.429,4.688C68.587,4.978 68.802,5.201 69.076,5.359C69.351,5.515 69.665,5.594 70.02,5.594Z" style="fill:rgb(221,49,1);fill-rule:nonzero;"/>
            <path d="M76.552,7.174L76.552,0.152L78.387,0.152L81.061,4.189L81.061,0.152L82.848,0.152L82.848,7.174L81.011,7.174L78.337,3.076L78.337,7.174L76.552,7.174Z" style="fill:rgb(221,49,1);fill-rule:nonzero;"/>
        </g>
    </g>
</svg>
