<svg xmlns="http://www.w3.org/2000/svg" width="320" height="70" viewBox="0 0 320 70" fill="none" class="logo">
  <path d="M55.4397 32.9037C55.3854 32.7374 55.3279 32.5648 55.2767 32.424C54.6091 30.4605 53.737 28.5833 52.6765 26.8372C46.3035 15.5037 31.673 2.82699 31.0532 2.28973L28.3955 0L25.7377 2.28973C25.118 2.82379 10.564 15.4365 4.16237 26.7445L4.07612 26.8948C3.03473 28.6217 2.17223 30.4797 1.51736 32.4081C1.45986 32.5775 1.39917 32.7438 1.35125 32.9005C0.453612 35.7052 0 38.6217 0 41.5734C0 57.2466 12.7395 70 28.3955 70C44.0514 70 56.7909 57.2466 56.7909 41.5734C56.7909 38.6217 56.3373 35.702 55.4397 32.9005V32.9037ZM33.4778 60.9978C32.5482 55.9738 34.7205 51.874 39.8348 48.1036C42.7481 45.9578 46.3802 42.1075 47.5781 37.189C47.6676 36.8244 47.7474 36.4407 47.8209 36.0505C48.3097 37.8094 48.5684 39.6194 48.5684 41.4519C48.5684 50.8315 42.1476 58.7368 33.4778 60.9978ZM26.7311 31.6757C30.8839 34.9984 32.6824 36.7349 32.4812 39.4084C32.2703 42.1842 29.3091 43.9079 25.2745 43.6009C20.1985 43.2171 15.3078 38.0908 15.5282 31.1545C15.6496 27.3905 16.8379 24.314 18.2499 22.1075C19.7736 26.4727 23.7986 29.3284 26.7311 31.6757ZM24.2299 17.6463C24.3098 15.7723 25.776 13.1884 28.7916 13.3163C29.6157 13.3515 30.6603 13.5625 32.0307 14.5027C32.0403 14.5091 32.0499 14.5123 32.0595 14.5187C35.2444 16.4407 42.927 24.4356 41.7163 33.118C41.7163 33.1308 41.7131 33.1404 41.7131 33.1532C41.6908 33.3035 41.6716 33.4538 41.6428 33.6041C41.3138 35.7851 40.5152 37.6111 39.4834 39.1238C39.2438 32.4592 34.3371 28.7816 30.3473 25.8011C26.3478 22.8142 24.0957 20.9626 24.2331 17.6495L24.2299 17.6463ZM8.22251 41.4519C8.22251 39.6194 8.48446 37.8094 8.97001 36.0505C9.04348 36.4407 9.12335 36.8244 9.21279 37.189C10.4107 42.1075 14.0428 45.9578 16.9561 48.1036C22.0704 51.874 24.2427 55.9738 23.3131 60.9978C14.6402 58.7368 8.22251 50.8315 8.22251 41.4519ZM77.7976 40.662C77.9286 42.1362 78.6441 43.3323 79.9443 44.2405C81.2444 45.1519 82.9119 45.606 84.95 45.606C86.988 45.606 88.4383 45.2926 89.566 44.6626C90.6936 44.0326 91.2558 43.134 91.2558 41.9604C91.2558 41.0937 90.9939 40.4413 90.4764 40.0064C89.9557 39.5747 89.2178 39.2581 88.2658 39.063C87.3107 38.8679 85.7518 38.6409 83.586 38.3786C80.6375 37.9885 78.1905 37.4896 76.2387 36.882C74.2869 36.2744 72.728 35.3214 71.5588 34.0166C70.3897 32.7151 69.8051 30.9786 69.8051 28.8104C69.8051 26.6421 70.3993 24.7202 71.594 23.0508C72.7855 21.3815 74.4658 20.0895 76.6316 19.1781C78.7975 18.2667 81.2891 17.8094 84.1098 17.8094C88.6619 17.8542 92.3355 18.8295 95.1307 20.7387C97.9258 22.6479 99.4304 25.2958 99.6508 28.6792H90.9396C90.8086 27.4225 90.1473 26.3895 88.9558 25.5868C87.7643 24.7841 86.2341 24.3844 84.3718 24.3844C82.6372 24.3844 81.2412 24.7106 80.1775 25.3598C79.1137 26.0122 78.5834 26.8788 78.5834 27.9629C78.5834 28.7432 78.8646 29.3284 79.43 29.7186C79.9922 30.1087 80.7301 30.3902 81.6405 30.566C82.5509 30.7387 84.0683 30.9338 86.1926 31.1513C90.7 31.6725 94.1564 32.6383 96.5618 34.0486C98.9672 35.4589 100.172 37.8798 100.172 41.3048C100.172 43.4762 99.5326 45.3854 98.2549 47.0323C96.9771 48.6824 95.1978 49.952 92.9233 50.8411C90.6489 51.7301 88.0135 52.1746 85.0235 52.1746C80.3851 52.1746 76.6157 51.1449 73.7119 49.0822C70.8082 47.0227 69.2684 44.2117 69.0959 40.6524H77.8072L77.7976 40.662ZM216.098 18.3371V26.6677H212.456C209.856 26.6677 207.949 27.448 206.735 29.0118C205.521 30.5724 204.914 32.6991 204.914 35.3918V51.7941H195.746V18.3371H204.068L204.911 23.3483C205.908 21.6981 207.144 20.4509 208.617 19.6067C210.089 18.7592 212.063 18.3371 214.533 18.3371H216.092H216.098ZM297.081 40.662C297.212 42.1362 297.927 43.3323 299.227 44.2405C300.527 45.1519 302.195 45.606 304.233 45.606C306.271 45.606 307.721 45.2926 308.849 44.6626C309.977 44.0326 310.539 43.134 310.539 41.9604C310.539 41.0937 310.277 40.4413 309.759 40.0064C309.239 39.5747 308.501 39.2581 307.549 39.063C306.594 38.8679 305.035 38.6409 302.869 38.3786C299.92 37.9885 297.473 37.4896 295.522 36.882C293.57 36.2744 292.011 35.3214 290.842 34.0166C289.673 32.7151 289.088 30.9786 289.088 28.8104C289.088 26.6421 289.682 24.7202 290.877 23.0508C292.068 21.3815 293.749 20.0895 295.915 19.1781C298.08 18.2667 300.572 17.8094 303.393 17.8094C307.945 17.8542 311.618 18.8295 314.414 20.7387C317.209 22.6479 318.717 25.2958 318.934 28.6792H310.223C310.092 27.4225 309.43 26.3895 308.239 25.5868C307.047 24.7841 305.517 24.3844 303.655 24.3844C301.92 24.3844 300.524 24.7106 299.46 25.3598C298.397 26.0122 297.866 26.8788 297.866 27.9629C297.866 28.7432 298.147 29.3284 298.713 29.7186C299.275 30.1087 300.013 30.3902 300.923 30.566C301.834 30.7387 303.351 30.9338 305.476 31.1513C309.983 31.6725 313.439 32.6383 315.845 34.0486C318.25 35.4589 319.454 37.8798 319.454 41.3048C319.454 43.4762 318.816 45.3854 317.538 47.0323C316.26 48.6824 314.481 49.952 312.206 50.8411C309.932 51.7301 307.296 52.1746 304.306 52.1746C299.668 52.1746 295.899 51.1449 292.995 49.0822C290.091 47.0227 288.551 44.2117 288.379 40.6524H297.09L297.081 40.662ZM171.159 44.0486C170.421 44.0486 169.881 43.8983 169.533 43.5945C169.184 43.2907 169.012 42.7279 169.012 41.9028V30.1215C169.012 26.1721 167.721 23.1564 165.143 21.0745C162.565 18.9926 158.911 17.9501 154.19 17.9501C149.468 17.9501 146.063 18.8935 143.332 20.7803C140.6 22.6671 139.083 25.3246 138.78 28.7528H147.622C147.839 27.496 148.488 26.4982 149.574 25.7595C150.657 25.0208 152.043 24.653 153.736 24.653C155.643 24.653 157.161 25.0975 158.288 25.9866C159.416 26.8756 159.978 28.0812 159.978 29.6003V31.228H153.346C148.36 31.228 144.558 32.1938 141.936 34.1254C139.313 36.0569 138.003 38.8008 138.003 42.3601C138.003 45.4845 139.141 47.9053 141.415 49.6162C143.69 51.3303 146.692 52.1874 150.42 52.1874C152.934 52.1874 155.078 51.6885 156.857 50.6908C158.633 49.693 160.128 48.2411 161.342 46.3288C161.256 49.9744 163.313 51.7973 167.52 51.7973H172.2V44.0518H171.159V44.0486ZM159.978 37.9949C159.933 40.2942 159.218 42.1266 157.831 43.4954C156.445 44.8609 154.557 45.5452 152.174 45.5452C150.657 45.5452 149.452 45.1999 148.564 44.5027C147.676 43.8088 147.232 42.875 147.232 41.7045C147.232 40.3166 147.762 39.2421 148.826 38.4842C149.887 37.7263 151.372 37.3457 153.279 37.3457C157.86 37.3457 159.975 35.5325 159.975 35.5325V37.9949H159.978ZM277.192 40.662C276.783 42.1266 275.994 43.2459 274.812 44.0134C273.576 44.8161 272.026 45.2191 270.164 45.2191C267.823 45.2191 265.979 44.5251 264.638 43.1372C263.293 41.7493 262.513 39.8401 262.296 37.4097V37.1506H286.545C286.718 36.2392 286.804 35.1967 286.804 34.0262C286.759 30.7707 286.012 27.9405 284.562 25.5325C283.108 23.1244 281.092 21.26 278.514 19.936C275.936 18.6121 272.956 17.9501 269.576 17.9501C266.197 17.9501 263.302 18.6569 260.766 20.064C258.23 21.4743 256.259 23.4698 254.85 26.0537C253.441 28.6345 252.738 31.6629 252.738 35.1327C252.738 38.6025 253.464 41.567 254.917 44.1477C256.367 46.7285 258.45 48.7144 261.159 50.1023C263.868 51.4902 267.085 52.1842 270.816 52.1842C273.675 52.1842 276.211 51.6757 278.422 50.6556C280.632 49.6354 282.408 48.2379 283.753 46.4567C285.057 44.7298 285.887 42.7982 286.251 40.6652H277.195L277.192 40.662ZM264.928 26.5078C266.292 25.3598 267.973 24.7841 269.966 24.7841C271.959 24.7841 273.771 25.3374 275.135 26.4439C276.499 27.5504 277.332 29.1238 277.639 31.1641H262.491C262.75 29.2101 263.564 27.6591 264.928 26.511V26.5078ZM240.83 40.662C240.421 42.1266 239.632 43.2459 238.45 44.0134C237.213 44.8161 235.664 45.2191 233.802 45.2191C231.46 45.2191 229.617 44.5251 228.275 43.1372C226.93 41.7493 226.151 39.8401 225.934 37.4097V37.1506H250.183C250.355 36.2392 250.442 35.1967 250.442 34.0262C250.397 30.7707 249.649 27.9405 248.199 25.5325C246.746 23.1244 244.73 21.26 242.152 19.936C239.574 18.6121 236.594 17.9501 233.214 17.9501C229.834 17.9501 226.94 18.6569 224.404 20.064C221.867 21.4743 219.896 23.4698 218.488 26.0537C217.079 28.6345 216.376 31.6629 216.376 35.1327C216.376 38.6025 217.101 41.567 218.555 44.1477C220.005 46.7285 222.088 48.7144 224.797 50.1023C227.505 51.4902 230.722 52.1842 234.453 52.1842C237.312 52.1842 239.849 51.6757 242.059 50.6556C244.27 49.6354 246.046 48.2379 247.391 46.4567C248.694 44.7298 249.525 42.7982 249.889 40.6652H240.833L240.83 40.662ZM228.566 26.5078C229.93 25.3598 231.61 24.7841 233.604 24.7841C235.597 24.7841 237.408 25.3374 238.772 26.4439C240.136 27.5504 240.97 29.1238 241.277 31.1641H226.129C226.387 29.2101 227.202 27.6591 228.566 26.511V26.5078ZM126.634 40.662C126.225 42.1266 125.436 43.2459 124.254 44.0134C123.018 44.8161 121.469 45.2191 119.607 45.2191C117.265 45.2191 115.422 44.5251 114.08 43.1372C112.735 41.7493 111.956 39.8401 111.739 37.4097V37.1506H135.991C136.163 36.2392 136.25 35.1967 136.25 34.0262C136.205 30.7707 135.457 27.9405 134.007 25.5325C132.554 23.1244 130.538 21.26 127.96 19.936C125.382 18.6121 122.402 17.9501 119.022 17.9501C115.642 17.9501 112.748 18.6569 110.212 20.064C107.675 21.4743 105.704 23.4698 104.296 26.0537C102.887 28.6345 102.184 31.6629 102.184 35.1327C102.184 38.6025 102.909 41.567 104.363 44.1477C105.813 46.7285 107.896 48.7144 110.605 50.1023C113.313 51.4902 116.53 52.1842 120.258 52.1842C123.117 52.1842 125.654 51.6757 127.864 50.6556C130.075 49.6354 131.851 48.2379 133.196 46.4567C134.499 44.7298 135.33 42.7982 135.694 40.6652H126.638L126.634 40.662ZM114.371 26.5078C115.735 25.3598 117.415 24.7841 119.409 24.7841C121.402 24.7841 123.213 25.3374 124.577 26.4439C125.941 27.5504 126.775 29.1238 127.082 31.1641H111.933C112.192 29.2101 113.007 27.6591 114.371 26.511V26.5078ZM178.979 18.3371V18.19C181.368 17.9085 183.128 17.1826 184.534 15.7243C186.805 13.361 186.211 9.02462 185.716 7.32651C185.703 7.32012 185.693 7.31692 185.681 7.31052C185.681 7.31052 185.677 7.31372 185.674 7.31692L178.896 9.56828C177.292 10.0927 176.161 11.599 176.161 13.3451V17.8542V18.3403H170.635V26.0857H176.161V44.2501C176.161 48.417 179.534 51.7941 183.697 51.7941H193.325V44.0486H188.578C187.409 44.0486 186.572 43.7896 186.077 43.2683C185.578 42.747 185.329 41.9028 185.329 40.7291V26.0857H192.935V18.3403H178.982L178.979 18.3371Z" fill="#121212"></path>
</svg>