<?xml version="1.0" encoding="utf-8"?>
<svg xmlns="http://www.w3.org/2000/svg" width="126" height="22" viewBox="0 0 126 22" fill="none">
<path fill-rule="evenodd" clip-rule="evenodd" d="M28.5777 0.42104C27.9826 0.606682 27.4269 0.868764 26.913 1.20183C26.3965 1.53762 25.9269 1.93893 25.5039 2.4085C25.0809 2.87806 24.7195 3.39949 24.417 3.9728C24.1145 4.5461 23.8809 5.16309 23.7137 5.82102C23.5465 6.48169 23.4629 7.16692 23.4629 7.87946C23.4629 8.59199 23.5465 9.27723 23.7137 9.9379C23.8809 10.5986 24.1145 11.2155 24.417 11.7861C24.7195 12.3594 25.0809 12.8809 25.5039 13.3504C25.9269 13.82 26.3965 14.2213 26.913 14.5571C27.4294 14.8929 27.9851 15.1522 28.5777 15.3379C29.1728 15.5235 29.7901 15.6163 30.4319 15.6163H42.978V14.224H32.2442C31.4548 14.224 30.7097 14.0602 30.0138 13.7299C29.3179 13.3996 28.7105 12.9491 28.1941 12.3758C27.6777 11.8025 27.272 11.1309 26.9744 10.3556C26.6769 9.58299 26.5293 8.7558 26.5293 7.87946C26.5293 7.00312 26.6769 6.17593 26.9744 5.40333C27.272 4.63073 27.6777 3.95642 28.1941 3.38311C28.7105 2.80981 29.3155 2.35936 30.0138 2.02902C30.7097 1.69869 31.4548 1.53489 32.2442 1.53489H42.978V0.142578H30.4319C29.7901 0.142578 29.1728 0.235399 28.5777 0.42104ZM98.8948 14.0711L85.0945 0.142578H80.9141V15.6191H82.4461V1.6905L96.2464 15.6191H100.429V0.142578H98.8948V14.0711ZM20.3669 2.40853C20.7899 2.87809 21.1514 3.39953 21.4538 3.97283C21.7563 4.54341 21.9899 5.16039 22.1571 5.82105C22.3243 6.48172 22.4079 7.16696 22.4079 7.87949C22.4079 8.59203 22.3243 9.27726 22.1571 9.93793C21.9899 10.5959 21.7563 11.2128 21.4538 11.7862C21.1514 12.3595 20.7899 12.8809 20.3669 13.3505C19.9439 13.82 19.4743 14.2213 18.9579 14.5571C18.4439 14.8929 17.8882 15.1523 17.2931 15.3379C16.7644 15.5017 16.2135 15.5891 15.648 15.6082V15.6164H7.17403V15.6082C6.60845 15.5918 6.05761 15.5044 5.52892 15.3379C4.93628 15.1523 4.38053 14.8929 3.86413 14.5571C3.34773 14.2213 2.87804 13.82 2.45509 13.3505C2.03213 12.8809 1.67064 12.3595 1.36818 11.7862C1.06571 11.2156 0.832103 10.5986 0.664887 9.93793C0.497671 9.27726 0.414062 8.59203 0.414062 7.87949C0.414062 7.16696 0.497671 6.48172 0.664887 5.82105C0.832103 5.16312 1.06571 4.54613 1.36818 3.97283C1.67064 3.39953 2.03213 2.87809 2.45509 2.40853C2.87804 1.93896 3.34773 1.53765 3.86413 1.20186C4.37807 0.868796 4.93382 0.606714 5.52892 0.421073C6.05761 0.257271 6.60845 0.169911 7.17403 0.150801V0.142611H15.648V0.150801C16.2135 0.167181 16.7644 0.254541 17.2931 0.421073C17.8857 0.606714 18.4415 0.866066 18.9579 1.20186C19.4743 1.53765 19.9439 1.93896 20.3669 2.40853ZM17.6767 12.3758C18.1931 11.8025 18.5988 11.1282 18.8964 10.3556C19.1939 9.58302 19.3415 8.75583 19.3415 7.87949C19.3415 7.00315 19.1939 6.17596 18.8964 5.40336C18.5988 4.62804 18.1931 3.95645 17.6767 3.38315C17.1603 2.80984 16.5529 2.35939 15.857 2.02906C15.1611 1.70145 14.416 1.53492 13.6266 1.53492H9.19292C8.40356 1.53492 7.65847 1.69872 6.96255 2.02906C6.26418 2.35939 5.65925 2.80984 5.14284 3.38315C4.62644 3.95645 4.22069 4.63077 3.92315 5.40336C3.6256 6.17596 3.47806 7.00315 3.47806 7.87949C3.47806 8.75583 3.6256 9.58302 3.92315 10.3556C4.22069 11.1309 4.62644 11.8025 5.14284 12.3758C5.65925 12.9491 6.26663 13.3996 6.96255 13.7299C7.65847 14.0603 8.40356 14.2241 9.19292 14.2241H13.6266C14.416 14.2241 15.1611 14.0603 15.857 13.7299C16.5554 13.3996 17.1603 12.9491 17.6767 12.3758ZM68.5868 0.142578L61.2834 14.1203H47.07V8.64933H58.3178V7.15327H47.07V1.67958H60.435V0.142578H44.3429V7.15054V15.6163H62.1711L65.0015 10.2H74.0214L76.9476 15.6163H80.0141L71.6533 0.142578H68.5868ZM65.7294 8.80767L69.4377 1.72053L73.2713 8.80767H65.7294ZM113.056 7.72931L125.585 21.5323H124.405L111.387 9.2745L104.528 15.6191H101.742L110.007 7.96955L101.742 0.142578H106.169L111.783 6.32881L118.469 0.142578H121.257L113.056 7.72931Z" fill="white"/>
</svg>