<svg width="236" height="47" viewBox="0 0 236 47" fill="none" xmlns="http://www.w3.org/2000/svg"><g clip-path="url(#clip0_524_5374)"><path fill-rule="evenodd" clip-rule="evenodd" d="M0 0H10.2441C11.4588 0 12.4717 0.0737625 13.2922 0.212068C14.1126 0.354984 14.8322 0.626985 15.4602 1.03729C16.166 1.50753 16.7206 2.1299 17.1286 2.91364C17.5319 3.69737 17.7336 4.55486 17.7336 5.49073C17.7336 6.2007 17.6373 6.8369 17.4448 7.39473C17.2523 7.95257 16.9865 8.52884 16.6427 9.11894C16.4181 9.46471 16.2027 9.81047 15.9918 10.1562C15.781 10.502 15.5839 10.8155 15.4006 11.1013C15.7443 11.3457 16.0652 11.6038 16.3723 11.8804C16.6748 12.1571 16.9681 12.4752 17.2523 12.8394C17.5548 13.2451 17.7977 13.743 17.9811 14.3331C18.1644 14.9232 18.2515 15.5732 18.2515 16.2832C18.2515 17.3804 18.0728 18.3531 17.7198 19.1968C17.3669 20.0405 16.826 20.755 16.0973 21.3451C15.4097 21.8938 14.5664 22.3041 13.5672 22.5807C12.568 22.8573 11.2892 22.991 9.73078 22.991H0V0ZM12.3388 9.57535C12.458 9.3725 12.5955 9.14199 12.7467 8.88843C12.898 8.63487 13.0447 8.39514 13.1867 8.17385C13.4067 7.7866 13.5901 7.41778 13.7322 7.0628C13.8743 6.70782 13.943 6.31595 13.943 5.8872C13.943 4.90985 13.5993 4.25059 12.9117 3.90483C12.6092 3.74347 12.2105 3.63744 11.7154 3.58672C11.2204 3.53601 10.6108 3.50835 9.88203 3.50835H3.73097V9.57535H12.3388ZM9.79495 19.4826C10.7667 19.4826 11.5321 19.4227 12.1004 19.2982C12.6642 19.1784 13.1317 18.9755 13.4938 18.6897C13.8376 18.4039 14.0851 18.0627 14.2364 17.6662C14.3876 17.2697 14.4655 16.8087 14.4655 16.2786C14.4655 15.6885 14.3647 15.1767 14.163 14.7388C13.9614 14.3008 13.6176 13.932 13.1317 13.6277C12.788 13.4064 12.3709 13.2589 11.8759 13.1851C11.3808 13.116 10.7804 13.0791 10.0745 13.0791H3.73097V19.4826H9.79495Z" fill="#000000"></path><path d="M21.7579 22.991V0H26.731L32.8224 13.9043L38.9139 0H43.8228V22.991H40.156V5.45846L34.4862 18.4177H31.0899L25.4247 5.45846V22.991H21.7579Z" fill="#000000"></path><path d="M46.5685 0L51.2345 22.991H56.1526L60.154 8.57033L64.1554 22.991H69.0643L73.7303 0H69.9718L66.2729 18.2655L62.1478 3.47608H58.206L54.0854 18.2655L50.3865 0H46.5685Z" fill="#000000"></path><path d="M84.1577 0H99.8287V3.56828H87.8841V9.75976H98.1144V13.328H87.8841V22.9956H84.1577V0Z" fill="#000000"></path><path fill-rule="evenodd" clip-rule="evenodd" d="M112.433 7.04439C111.452 6.59721 110.215 6.37131 108.721 6.37131C107.025 6.37131 105.677 6.64331 104.687 7.1827C103.697 7.72209 102.909 8.47816 102.322 9.45552C101.919 10.1056 101.625 10.9216 101.442 11.9081C101.259 12.8947 101.167 13.9228 101.167 15.0016C101.167 16.2002 101.286 17.3113 101.529 18.3255C101.772 19.3444 102.102 20.165 102.528 20.7966C103.115 21.6679 103.885 22.341 104.834 22.8066C105.787 23.2722 107.08 23.5074 108.716 23.5074C110.371 23.5074 111.682 23.24 112.64 22.7006C113.598 22.1612 114.372 21.4466 114.959 20.5522C115.385 19.9022 115.706 19.0908 115.931 18.1134C116.155 17.1361 116.265 16.0804 116.265 14.9416C116.265 13.826 116.164 12.7472 115.963 11.7099C115.761 10.6726 115.376 9.76901 114.812 8.9945C114.207 8.14162 113.414 7.49158 112.433 7.04439ZM106.782 10.1056C107.304 9.87044 107.951 9.75518 108.721 9.75518C109.449 9.75518 110.054 9.852 110.54 10.041C111.026 10.2346 111.439 10.5942 111.782 11.1244C112.122 11.6546 112.346 12.2124 112.447 12.8025C112.548 13.3926 112.598 14.0703 112.598 14.8448C112.598 15.6977 112.539 16.4399 112.415 17.0715C112.296 17.7031 112.094 18.2517 111.81 18.7174C111.489 19.2061 111.067 19.5657 110.554 19.7869C110.041 20.0128 109.427 20.1235 108.721 20.1235C108.015 20.1235 107.387 20.0221 106.841 19.8192C106.296 19.6164 105.861 19.2199 105.54 18.6298C105.297 18.1826 105.118 17.6432 105.008 17.0116C104.898 16.3846 104.843 15.7023 104.843 14.9693C104.843 14.1994 104.893 13.5171 104.994 12.927C105.095 12.3369 105.265 11.8067 105.508 11.3411C105.833 10.751 106.255 10.3407 106.782 10.1056Z" fill="#000000"></path><path d="M132.372 22.2257C131.4 22.4884 130.231 22.7697 128.856 23.0647C127.481 23.3598 126.037 23.5073 124.52 23.5073C123.406 23.5073 122.49 23.3552 121.761 23.0509C121.032 22.7466 120.445 22.3409 120.001 21.8292C119.538 21.2806 119.199 20.5844 118.983 19.7408C118.772 18.8971 118.667 17.8137 118.667 16.4952V6.89218H122.306V16.3753C122.306 16.9654 122.325 17.5233 122.366 18.0534C122.407 18.5836 122.549 18.9985 122.792 19.3028C123.195 19.7915 123.915 20.0358 124.946 20.0358C125.735 20.0358 126.445 19.9759 127.082 19.8514C127.719 19.7315 128.269 19.6071 128.732 19.4872V6.89218H132.372V22.2257Z" fill="#000000"></path><path d="M135.406 6.89228V22.9772H139.05V11.1798C139.329 11.0599 139.65 10.9216 140.003 10.7694C140.356 10.6173 140.732 10.479 141.126 10.3591C141.52 10.2393 141.91 10.1332 142.295 10.041C142.675 9.94884 143.028 9.90273 143.354 9.90273C143.739 9.90273 144.082 9.93501 144.385 9.99494C144.687 10.0549 144.94 10.2208 145.141 10.4836C145.384 10.8109 145.526 11.2028 145.567 11.6592C145.609 12.1202 145.627 12.6412 145.627 13.2313V22.991H149.266V13.0838C149.266 11.6408 149.17 10.5113 148.978 9.69988C148.785 8.88849 148.446 8.22463 147.96 7.71751C147.515 7.21039 146.993 6.86001 146.397 6.66638C145.801 6.47275 145.109 6.37594 144.321 6.37594C143.936 6.37594 143.509 6.42665 143.033 6.52808C142.556 6.6295 142.084 6.75859 141.607 6.91072C141.131 7.06286 140.672 7.22882 140.228 7.3994C139.783 7.56998 139.389 7.72673 139.045 7.86964V6.89228H135.406Z" fill="#000000"></path><path fill-rule="evenodd" clip-rule="evenodd" d="M162.664 22.991V21.0685C162.302 21.3544 161.756 21.7278 161.028 22.198C160.441 22.5853 159.831 22.8988 159.194 23.1431C158.557 23.3875 157.847 23.5073 157.058 23.5073C156.009 23.5073 155.138 23.2676 154.45 22.7927C153.763 22.3133 153.217 21.7094 152.814 20.9763C152.429 20.2848 152.14 19.4688 151.948 18.5237C151.755 17.5786 151.659 16.403 151.659 15.0015C151.659 13.7015 151.751 12.5581 151.934 11.5716C152.117 10.585 152.42 9.72749 152.841 8.99447C153.369 8.08165 154.038 7.41317 154.858 6.99826C155.679 6.58334 156.692 6.37127 157.906 6.37127C158.713 6.37127 159.552 6.47731 160.423 6.68938C161.293 6.90144 162.031 7.09968 162.636 7.28409V0H166.276V22.991H162.664ZM162.632 10.608C162.086 10.4236 161.445 10.2392 160.707 10.0456C159.969 9.85196 159.3 9.75515 158.69 9.75515C158.025 9.75515 157.457 9.85657 156.994 10.0594C156.531 10.2623 156.165 10.6403 155.903 11.1889C155.679 11.6545 155.527 12.1939 155.449 12.8071C155.367 13.4156 155.33 14.1394 155.33 14.9739C155.33 15.8682 155.372 16.6013 155.449 17.1683C155.532 17.7354 155.66 18.2563 155.844 18.722C156.045 19.1922 156.297 19.5195 156.6 19.7131C156.902 19.9068 157.347 20.0036 157.934 20.0036C158.42 20.0036 158.91 19.8837 159.405 19.6394C159.9 19.395 160.358 19.1323 160.785 18.8464C161.17 18.6021 161.513 18.367 161.816 18.1457C162.01 18.0039 162.192 17.8678 162.362 17.7411L162.363 17.7402L162.369 17.7362C162.462 17.6668 162.551 17.6003 162.636 17.5371V10.608H162.632Z" fill="#000000"></path><path fill-rule="evenodd" clip-rule="evenodd" d="M180.187 20.7044V22.9864H183.789V8.10935C182.456 7.62067 181.204 7.21036 180.031 6.87382C178.857 6.53727 177.675 6.37131 176.483 6.37131C174.971 6.37131 173.747 6.58799 172.816 7.02595C171.891 7.45931 171.139 8.14623 170.575 9.08209C170.108 9.8566 169.782 10.7602 169.59 11.7975C169.397 12.8348 169.301 13.9551 169.301 15.1537C169.301 16.3708 169.393 17.4865 169.576 18.4915C169.759 19.4965 170.053 20.3586 170.456 21.0686C170.878 21.8016 171.423 22.3917 172.092 22.8389C172.757 23.2861 173.618 23.512 174.668 23.512C175.475 23.512 176.167 23.3691 176.744 23.0832C177.322 22.7974 177.922 22.4332 178.55 21.986C179.215 21.4973 179.76 21.0686 180.187 20.7044ZM178.564 9.97186C179.16 10.1517 179.692 10.3268 180.155 10.4882V17.0715C179.889 17.2974 179.595 17.5418 179.275 17.8046C179.109 17.9425 178.94 18.0816 178.768 18.2233C178.606 18.3562 178.442 18.4914 178.275 18.6298C177.849 18.9755 177.377 19.2936 176.864 19.5887C176.346 19.8838 175.855 20.0313 175.392 20.0313C174.444 20.0313 173.797 19.6164 173.454 18.7819C173.293 18.3532 173.174 17.8092 173.091 17.1499C173.014 16.4907 172.972 15.8222 172.972 15.1537C172.972 14.2593 173.023 13.4986 173.123 12.8671C173.224 12.2355 173.408 11.6776 173.669 11.1889C173.953 10.6403 174.347 10.2577 174.851 10.0318C175.356 9.80589 175.984 9.69525 176.731 9.69525C177.354 9.69525 177.968 9.78745 178.564 9.97186Z" fill="#000000"></path><path d="M194.565 23.2031C193.534 23.1616 192.558 23.0925 191.641 22.9911C190.72 22.8896 189.936 22.7375 189.29 22.5347C188.684 22.3318 188.212 22.0782 187.878 21.774C187.543 21.4697 187.296 21.1055 187.135 20.6768C187.053 20.4324 186.989 20.1789 186.938 19.9161C186.888 19.6533 186.846 19.3536 186.819 19.0171C186.787 18.6805 186.773 18.2979 186.773 17.8599V2.6832H190.412V6.8923H195.353V10.2762H190.412V16.191C190.412 16.6613 190.422 17.0531 190.445 17.3805C190.463 17.7078 190.495 18.0213 190.536 18.3256C190.577 18.5883 190.674 18.8188 190.825 19.0125C190.976 19.2061 191.233 19.3628 191.6 19.4873C192.003 19.6072 192.461 19.6902 192.979 19.7317C193.493 19.7732 194.024 19.8146 194.57 19.8515V23.2031H194.565Z" fill="#000000"></path><path d="M197.888 0V4.4811H201.587V0H197.888Z" fill="#000000"></path><path d="M197.92 6.89222V22.991H201.56V6.89222H197.92Z" fill="#000000"></path><path fill-rule="evenodd" clip-rule="evenodd" d="M212.161 6.37131C213.655 6.37131 214.893 6.59721 215.874 7.04439C216.855 7.49158 217.648 8.14162 218.253 8.9945C218.816 9.76901 219.202 10.6726 219.403 11.7099C219.605 12.7472 219.706 13.826 219.706 14.9416C219.706 16.0804 219.596 17.1361 219.371 18.1134C219.146 19.0908 218.826 19.9022 218.399 20.5522C217.813 21.4466 217.038 22.1612 216.08 22.7006C215.122 23.24 213.811 23.5074 212.157 23.5074C210.52 23.5074 209.228 23.2722 208.274 22.8066C207.326 22.341 206.556 21.6679 205.969 20.7966C205.543 20.165 205.213 19.3444 204.97 18.3255C204.727 17.3113 204.608 16.2002 204.608 15.0016C204.608 13.9228 204.699 12.8947 204.883 11.9081C205.066 10.9216 205.359 10.1056 205.763 9.45552C206.349 8.47816 207.138 7.72209 208.128 7.1827C209.118 6.64331 210.461 6.37131 212.161 6.37131ZM212.161 9.75518C211.391 9.75518 210.745 9.87044 210.222 10.1056C209.695 10.3407 209.274 10.751 208.948 11.3411C208.705 11.8067 208.536 12.3369 208.435 12.927C208.334 13.5171 208.284 14.1994 208.284 14.9693C208.284 15.7023 208.339 16.3846 208.449 17.0116C208.559 17.6432 208.737 18.1826 208.98 18.6298C209.301 19.2199 209.737 19.6164 210.282 19.8192C210.827 20.0221 211.455 20.1235 212.161 20.1235C212.867 20.1235 213.481 20.0128 213.995 19.7869C214.508 19.5657 214.93 19.2061 215.251 18.7174C215.535 18.2517 215.736 17.7031 215.856 17.0715C215.975 16.4399 216.039 15.6977 216.039 14.8448C216.039 14.0703 215.988 13.3926 215.888 12.8025C215.787 12.2124 215.562 11.6546 215.223 11.1244C214.879 10.5942 214.467 10.2346 213.981 10.041C213.495 9.852 212.885 9.75518 212.161 9.75518Z" fill="#000000"></path><path d="M222.139 6.89228V22.9772H225.783V11.1798C226.063 11.0599 226.384 10.9216 226.737 10.7694C227.09 10.6173 227.466 10.479 227.86 10.3591C228.254 10.2393 228.643 10.1332 229.029 10.041C229.409 9.94884 229.762 9.90273 230.087 9.90273C230.472 9.90273 230.816 9.93501 231.119 9.99494C231.421 10.0549 231.673 10.2208 231.875 10.4836C232.118 10.8109 232.26 11.2028 232.301 11.6592C232.342 12.1202 232.361 12.6412 232.361 13.2313V22.991H236V13.0838C236 11.6408 235.904 10.5113 235.711 9.69988C235.519 8.88849 235.18 8.22463 234.694 7.71751C234.249 7.21039 233.727 6.86001 233.131 6.66638C232.535 6.47275 231.843 6.37594 231.054 6.37594C230.669 6.37594 230.243 6.42665 229.766 6.52808C229.29 6.6295 228.818 6.75859 228.341 6.91072C227.864 7.06286 227.406 7.22882 226.961 7.3994C226.517 7.56998 226.123 7.72673 225.779 7.86964V6.89228H222.139Z" fill="#000000"></path><path fill-rule="evenodd" clip-rule="evenodd" d="M80.9264 44.765C80.0372 44.5345 79.2993 44.2625 78.7172 43.949C78.135 43.6355 77.6721 43.1884 77.3192 42.6029C77.1175 42.2617 76.9433 41.8652 76.8012 41.4088C76.6592 40.9524 76.5492 40.4729 76.4667 39.9612C76.3841 39.4541 76.3291 38.9239 76.2925 38.3799C76.2604 37.8359 76.2421 37.315 76.2421 36.8125C76.2421 36.3653 76.2558 35.8904 76.2833 35.3971C76.3108 34.8992 76.3567 34.4106 76.4254 33.9311C76.4942 33.447 76.5858 32.9952 76.7004 32.5665C76.815 32.1377 76.9617 31.7689 77.1358 31.4554C77.5667 30.6394 78.2313 29.9894 79.1205 29.5099C80.0097 29.0259 81.1556 28.7861 82.5444 28.7861C83.7728 28.7861 84.7857 28.9613 85.5832 29.3071C86.3808 29.6528 87.0362 30.1922 87.5496 30.9253C87.7925 31.2664 87.9987 31.6675 88.1683 32.1377C88.3379 32.608 88.4708 33.1013 88.5717 33.6268C88.6725 34.1524 88.7458 34.6826 88.7825 35.2266C88.8238 35.7706 88.8421 36.3007 88.8421 36.8171C88.8421 37.2504 88.8238 37.7299 88.7917 38.2416C88.7596 38.758 88.6954 39.2743 88.6084 39.7906C88.5213 40.307 88.3975 40.8049 88.2325 41.289C88.0721 41.773 87.8658 42.1972 87.6229 42.5614C87.27 43.0777 86.862 43.4926 86.3991 43.8061C85.9316 44.1196 85.4091 44.3639 84.827 44.5391L88.7596 45.5395V46.8027L80.9264 44.765ZM82.549 30.0078C81.6185 30.0078 80.7751 30.16 80.028 30.4642C79.2763 30.7685 78.6942 31.3171 78.2771 32.1055C78.1396 32.3636 78.025 32.6817 77.9334 33.0552C77.8371 33.4286 77.7592 33.8251 77.6996 34.2354C77.64 34.6503 77.5988 35.079 77.5759 35.5308C77.5575 35.978 77.5438 36.4068 77.5438 36.8125C77.5438 37.2089 77.5575 37.6377 77.585 38.1079C77.6125 38.5782 77.6538 39.0392 77.7179 39.4956C77.7775 39.952 77.86 40.3807 77.9609 40.7818C78.0617 41.1829 78.1946 41.5241 78.3551 41.8099C78.5567 42.1649 78.8088 42.4599 79.1159 42.6951C79.4184 42.9348 79.7622 43.1238 80.138 43.2667C80.5139 43.4096 80.9127 43.5064 81.3252 43.5618C81.7377 43.6171 82.1456 43.6448 82.549 43.6448C83.3602 43.6448 84.0753 43.5387 84.6986 43.3313C85.322 43.1192 85.8674 42.7227 86.3395 42.1372C86.5824 41.8514 86.7795 41.5056 86.9354 41.0999C87.0912 40.6942 87.2104 40.2517 87.3021 39.7768C87.3891 39.302 87.4533 38.8133 87.4946 38.3108C87.5358 37.8083 87.5541 37.3104 87.5541 36.8217C87.5541 36.3745 87.5358 35.9135 87.5037 35.4478C87.4716 34.9776 87.4166 34.5258 87.3433 34.0925C87.27 33.6591 87.1691 33.2488 87.05 32.8615C86.9262 32.4743 86.7749 32.1331 86.5824 31.8335C86.1653 31.1558 85.6153 30.6809 84.9416 30.4181C84.2632 30.1415 83.4657 30.0078 82.549 30.0078Z" fill="#AAA5A2"></path><path d="M0 44.4976V29.1319H1.25588V35.7337H10.0929V29.1319H11.3488V44.4976H10.0929V36.9554H1.25588V44.4976H0Z" fill="#AAA5A2"></path><path fill-rule="evenodd" clip-rule="evenodd" d="M23.142 44.4376C22.9823 44.4705 22.7968 44.5034 22.5854 44.5408L22.5824 44.5413L22.4133 44.5713C22.1291 44.6174 21.8266 44.6636 21.5103 44.705C21.1941 44.7465 20.8778 44.7788 20.5661 44.8065C20.2544 44.8341 19.9657 44.848 19.6952 44.848C19.0994 44.848 18.586 44.8111 18.1552 44.7373C17.7243 44.6635 17.3439 44.5483 17.0185 44.3915C16.6931 44.2348 16.418 44.0458 16.1889 43.8199C15.9597 43.594 15.758 43.3404 15.5793 43.0546C15.2951 42.5797 15.1026 42.0311 15.0017 41.4134C14.9009 40.7956 14.8505 40.0441 14.8505 39.1636C14.8505 38.4859 14.8917 37.8266 14.9742 37.1858C15.0567 36.545 15.2493 35.9273 15.5609 35.3325C15.8589 34.7747 16.308 34.3137 16.9085 33.9449C17.5089 33.5761 18.3523 33.3963 19.4294 33.3963C20.4699 33.3963 21.2811 33.5714 21.8587 33.9264C22.4408 34.2814 22.8808 34.7148 23.1741 35.2311C23.4033 35.6276 23.5454 36.0333 23.6004 36.4528C23.6554 36.8723 23.6829 37.2596 23.6829 37.6146C23.6829 37.8727 23.6646 38.2001 23.6325 38.5919C23.6004 38.9884 23.55 39.3665 23.4812 39.7353H16.1109C16.1109 40.1271 16.143 40.5651 16.2118 41.0399C16.2805 41.5148 16.4089 41.9297 16.5968 42.2847C16.8672 42.7872 17.2385 43.1422 17.7106 43.3543C18.1827 43.5663 18.8473 43.6724 19.6952 43.6724C20.3049 43.6724 20.919 43.6216 21.5516 43.5202C22.1795 43.4188 22.7112 43.3266 23.142 43.2436V44.4376ZM22.3491 38.5873C22.3766 38.4398 22.3949 38.2738 22.4087 38.0986C22.4224 37.9235 22.427 37.7298 22.427 37.527C22.427 37.2412 22.4041 36.9461 22.3583 36.6418C22.3124 36.3376 22.2208 36.0702 22.0833 35.835C21.6112 34.9914 20.7265 34.5719 19.4294 34.5719C18.7144 34.5719 18.1277 34.6825 17.6785 34.9084C17.2247 35.1343 16.8626 35.5031 16.5968 36.0195C16.5005 36.1946 16.4226 36.4021 16.363 36.6326C16.3035 36.8631 16.253 37.0982 16.2118 37.3334C16.1705 37.5731 16.143 37.799 16.1293 38.0157C16.1155 38.2323 16.1109 38.4214 16.1109 38.5873H22.3491Z" fill="#AAA5A2"></path><path d="M26.7494 33.7374V44.5068H27.9823V36.4344C28.2527 36.2407 28.5415 36.0563 28.8532 35.8719C29.1649 35.6921 29.4811 35.5215 29.8066 35.374C30.132 35.2219 30.4528 35.102 30.7691 35.0052C31.0854 34.9084 31.4245 34.83 31.7912 34.7609V33.4977C31.3329 33.5761 30.8974 33.6821 30.4941 33.8019C30.0907 33.9218 29.7332 34.0601 29.4215 34.2076C29.1511 34.3413 28.9082 34.4796 28.6836 34.6133C28.4636 34.7516 28.2298 34.9084 27.9869 35.0836V33.7374H26.7494Z" fill="#AAA5A2"></path><path fill-rule="evenodd" clip-rule="evenodd" d="M33.8812 29.1319H35.1188V34.7563C35.1738 34.7286 35.2608 34.6825 35.38 34.6134C35.499 34.5443 35.6363 34.4753 35.7828 34.4016L36.2509 34.1662C36.4113 34.0832 36.5626 34.0187 36.6955 33.9634C37.0072 33.8158 37.3601 33.6821 37.7589 33.5669C38.1576 33.4516 38.5747 33.3917 39.0056 33.3917C39.7618 33.3917 40.376 33.5392 40.8481 33.8297C41.3202 34.1201 41.7144 34.5581 42.0215 35.1436C42.2782 35.6322 42.4661 36.2085 42.5807 36.8678C42.6953 37.527 42.7549 38.2647 42.7549 39.0807C42.7549 39.9105 42.6861 40.6481 42.5532 41.2935C42.4203 41.939 42.1865 42.5198 41.8657 43.0362C41.499 43.6217 41.0406 44.0689 40.486 44.3824C39.9314 44.6959 39.1843 44.8526 38.2355 44.8526C37.8322 44.8526 37.4655 44.8342 37.1401 44.7927C36.8147 44.7512 36.4434 44.6912 36.0263 44.6083C35.6734 44.5391 35.3158 44.4607 34.9538 44.3639C34.8664 44.3409 34.7795 44.318 34.6932 44.2954L34.6923 44.2951L34.6918 44.295L34.6911 44.2948L34.6895 44.2944C34.4148 44.2223 34.1454 44.1515 33.8812 44.0781V29.1319ZM35.1142 43.133C35.3021 43.1883 35.4992 43.239 35.7009 43.2851C35.8659 43.3229 36.0585 43.3698 36.2787 43.4236L36.4296 43.4603C36.7276 43.5295 37.0117 43.5802 37.2913 43.6125C37.5663 43.6447 37.8826 43.6632 38.2355 43.6632C38.8589 43.6632 39.3722 43.5571 39.7756 43.3451C40.1789 43.133 40.5181 42.8103 40.7886 42.3769C41.0452 41.9574 41.2286 41.4826 41.334 40.9524C41.444 40.4222 41.4944 39.7998 41.4944 39.076C41.4944 38.426 41.4532 37.8313 41.3752 37.2919C41.2973 36.7525 41.1598 36.2777 40.9719 35.8535C40.7565 35.3787 40.4769 35.0467 40.1331 34.8531C39.7893 34.6641 39.4089 34.5673 38.9872 34.5673C38.6343 34.5673 38.3226 34.6134 38.043 34.701C37.768 34.7886 37.4518 34.9084 37.0988 35.056C36.7092 35.2312 36.3471 35.4017 36.0263 35.5631C35.7009 35.7244 35.3983 35.8812 35.1142 36.0333V43.133Z" fill="#AAA5A2"></path><path fill-rule="evenodd" clip-rule="evenodd" d="M53.1987 44.5408L53.1992 44.5407C53.4104 44.5033 53.5958 44.4705 53.7553 44.4376H53.7507V43.2436C53.3199 43.3266 52.7882 43.4188 52.1603 43.5202C51.5277 43.6216 50.9135 43.6724 50.3039 43.6724C49.456 43.6724 48.7914 43.5663 48.3193 43.3543C47.8472 43.1422 47.4759 42.7872 47.2055 42.2847C47.0176 41.9297 46.8892 41.5148 46.8205 41.0399C46.7517 40.5651 46.7196 40.1271 46.7196 39.7353H54.0945C54.1633 39.3665 54.2137 38.9884 54.2458 38.5919C54.2778 38.2001 54.2962 37.8727 54.2962 37.6146C54.2962 37.2596 54.2687 36.8723 54.2137 36.4528C54.1587 36.0333 54.0166 35.6276 53.7874 35.2311C53.4941 34.7148 53.054 34.2814 52.4719 33.9264C51.8944 33.5714 51.0831 33.3963 50.0427 33.3963C48.9656 33.3963 48.1222 33.5761 47.5218 33.9449C46.9213 34.3137 46.4721 34.7747 46.1742 35.3325C45.8625 35.9273 45.67 36.545 45.5875 37.1858C45.505 37.8266 45.4638 38.4859 45.4638 39.1636C45.4638 40.0441 45.5142 40.7956 45.615 41.4134C45.7159 42.0311 45.9084 42.5797 46.1925 43.0546C46.3713 43.3404 46.573 43.594 46.8021 43.8199C47.0313 44.0458 47.3063 44.2348 47.6318 44.3915C47.9572 44.5483 48.3376 44.6635 48.7685 44.7373C49.1993 44.8111 49.7127 44.848 50.3085 44.848C50.5789 44.848 50.8677 44.8341 51.1794 44.8065C51.4911 44.7788 51.8073 44.7465 52.1236 44.705C52.4399 44.6636 52.7424 44.6174 53.0265 44.5713C53.0857 44.5608 53.1431 44.5506 53.1987 44.5408ZM53.0265 38.0986C53.0128 38.2738 52.9945 38.4398 52.967 38.5873H46.7288C46.7288 38.4214 46.7334 38.2323 46.7471 38.0157C46.7609 37.799 46.7884 37.5731 46.8296 37.3334C46.8709 37.0982 46.9213 36.8631 46.9809 36.6326C47.0405 36.4021 47.1184 36.1946 47.2147 36.0195C47.4805 35.5031 47.8426 35.1343 48.2964 34.9084C48.7455 34.6825 49.3322 34.5719 50.0473 34.5719C51.3444 34.5719 52.229 34.9914 52.7011 35.835C52.8386 36.0702 52.9303 36.3376 52.9761 36.6418C53.022 36.9461 53.0449 37.2412 53.0449 37.527C53.0449 37.7298 53.0403 37.9235 53.0265 38.0986Z" fill="#AAA5A2"></path><path d="M57.3626 33.7374H58.6001V35.0836C58.8431 34.9084 59.0768 34.7516 59.2968 34.6133C59.5214 34.4796 59.7643 34.3413 60.0348 34.2076C60.3464 34.0601 60.704 33.9218 61.1073 33.8019C61.5107 33.6821 61.9461 33.5761 62.4044 33.4977V34.7609C62.0378 34.83 61.6986 34.9084 61.3823 35.0052C61.0661 35.102 60.7452 35.2219 60.4198 35.374C60.0944 35.5215 59.7781 35.6921 59.4664 35.8719C59.1547 36.0563 58.866 36.2407 58.5955 36.4344V44.5068H57.3626V33.7374Z" fill="#AAA5A2"></path><path d="M68.4821 43.4557V44.6403C67.9979 44.6126 67.5227 44.5713 67.0567 44.5207C66.5891 44.4654 66.195 44.387 65.8695 44.2764C65.2462 44.0873 64.8474 43.7278 64.6732 43.1976C64.6182 43.0501 64.577 42.8887 64.5495 42.7181C64.522 42.5475 64.5036 42.3585 64.4899 42.1465C64.4761 41.9344 64.4716 41.6901 64.4716 41.4134V31.0267H65.7091V33.7375H68.9496V34.9177H65.7091V40.4222C65.7091 40.8556 65.7137 41.2014 65.7183 41.4595C65.7229 41.7177 65.7412 41.9713 65.7687 42.2156C65.7962 42.4599 65.8649 42.6628 65.9704 42.8149C66.0804 42.9717 66.2545 43.0915 66.4975 43.1699C66.7404 43.2483 67.0383 43.3128 67.3867 43.3543C67.7396 43.3958 68.1017 43.4281 68.4821 43.4557Z" fill="#AAA5A2"></path><path d="M98.0686 44.5898C98.7974 44.4239 99.5812 44.221 100.42 43.9905H100.425V33.7328H99.187V43.0869C98.7561 43.2252 98.2703 43.3543 97.7294 43.4742C97.1886 43.5986 96.5332 43.6586 95.7631 43.6586C95.2498 43.6586 94.851 43.6079 94.5668 43.5064C94.2826 43.405 94.0443 43.2252 93.8564 42.967C93.6501 42.695 93.531 42.3308 93.4897 41.8744C93.4485 41.418 93.4301 40.934 93.4301 40.4176V33.7328H92.1926V40.4176C92.1926 41.1645 92.2338 41.8283 92.3163 42.4046C92.3942 42.9809 92.5776 43.4465 92.8618 43.8015C93.1597 44.1841 93.5401 44.4515 94.0076 44.6083C94.4706 44.765 95.0573 44.8434 95.7585 44.8434C96.5698 44.8434 97.3398 44.7604 98.0686 44.5898Z" fill="#AAA5A2"></path><path fill-rule="evenodd" clip-rule="evenodd" d="M111.058 42.6858C110.87 42.861 110.673 43.0316 110.472 43.1975L110.46 43.2071L110.458 43.2083L110.456 43.2099C110.258 43.368 110.039 43.5435 109.802 43.7277C109.33 44.0827 108.89 44.3547 108.487 44.5529C108.084 44.7512 107.644 44.848 107.171 44.848C106.36 44.848 105.732 44.6958 105.288 44.3916C104.843 44.0873 104.486 43.677 104.215 43.1607C103.986 42.7273 103.816 42.1418 103.706 41.4088C103.596 40.6758 103.546 39.9013 103.546 39.0853C103.546 38.3107 103.61 37.5731 103.738 36.8724C103.867 36.1716 104.087 35.5861 104.398 35.1113C104.829 34.4474 105.343 33.9956 105.939 33.7559C106.534 33.5161 107.24 33.4009 108.065 33.4009C108.712 33.4009 109.381 33.5115 110.073 33.7282C110.76 33.9449 111.503 34.2031 112.3 34.5027V44.5114H111.058V42.6858ZM111.058 35.3095C110.559 35.1205 110.064 34.9499 109.569 34.8024C109.074 34.6549 108.574 34.5765 108.061 34.5765C107.401 34.5765 106.86 34.6733 106.438 34.8623C106.021 35.0513 105.673 35.3833 105.407 35.8627C105.191 36.2454 105.036 36.7202 104.939 37.2873C104.843 37.8589 104.797 38.4583 104.797 39.0806C104.797 39.7307 104.834 40.3669 104.907 40.9754C104.981 41.5886 105.091 42.0634 105.242 42.4C105.43 42.8333 105.673 43.156 105.971 43.3589C106.269 43.5617 106.667 43.6632 107.167 43.6632C107.506 43.6632 107.841 43.5802 108.18 43.4096C108.519 43.239 108.867 43.0131 109.234 42.7273C109.546 42.483 109.862 42.2248 110.187 41.9528C110.513 41.6808 110.802 41.4318 111.058 41.1967V35.3095Z" fill="#AAA5A2"></path><path d="M115.821 33.7375V44.493H117.063V35.789C117.31 35.6845 117.572 35.5696 117.85 35.4472L117.975 35.3925C118.3 35.2496 118.63 35.1159 118.969 34.9961C119.304 34.8762 119.648 34.7748 119.992 34.6918C120.335 34.6088 120.656 34.5673 120.954 34.5673C121.344 34.5673 121.669 34.6134 121.926 34.7102C122.182 34.8024 122.407 34.973 122.595 35.2173C122.783 35.4755 122.902 35.7982 122.948 36.1855C122.994 36.5727 123.017 37.0061 123.017 37.4809V44.493H124.254V37.4809C124.254 36.8032 124.217 36.1993 124.135 35.6784C124.052 35.1574 123.865 34.7194 123.567 34.3645C123.255 33.9726 122.888 33.7098 122.471 33.5807C122.049 33.4516 121.545 33.3871 120.949 33.3871C120.354 33.3871 119.73 33.4977 119.084 33.7236C118.438 33.9495 117.759 34.2169 117.058 34.5304V33.7375H115.821Z" fill="#AAA5A2"></path><path fill-rule="evenodd" clip-rule="evenodd" d="M134.989 43.0731C134.842 43.1838 134.636 43.3267 134.37 43.5019C134.109 43.6771 133.825 43.8615 133.531 44.0505C133.151 44.281 132.752 44.47 132.335 44.6221C131.918 44.7697 131.478 44.848 131.019 44.848C130.589 44.848 130.213 44.8066 129.896 44.7236C129.58 44.6406 129.301 44.5253 129.067 44.3778C128.829 44.2303 128.631 44.0505 128.471 43.8384C128.311 43.6263 128.168 43.3958 128.045 43.1377C127.802 42.6352 127.628 42.0358 127.518 41.3351C127.408 40.6343 127.357 39.8921 127.357 39.1038C127.357 38.3569 127.408 37.6377 127.508 36.9554C127.609 36.2685 127.811 35.6461 128.104 35.0929C128.457 34.4521 128.925 34.0141 129.511 33.7698C130.098 33.5254 130.776 33.401 131.547 33.401C131.858 33.401 132.17 33.424 132.491 33.4701C132.807 33.5162 133.119 33.5808 133.421 33.6545C133.724 33.7283 134.012 33.802 134.283 33.8804C134.553 33.9542 134.792 34.0279 134.993 34.0925V29.1412H136.231V44.5069H134.989V43.0731ZM134.989 35.328C134.342 35.1252 133.737 34.9454 133.174 34.7978C132.614 34.6503 132.069 34.5719 131.542 34.5719C130.974 34.5719 130.488 34.6642 130.084 34.8486C129.681 35.033 129.36 35.3603 129.131 35.8351C128.929 36.2547 128.792 36.748 128.714 37.3012C128.641 37.859 128.604 38.4583 128.604 39.0945C128.604 39.7722 128.636 40.3854 128.705 40.9294C128.773 41.4734 128.893 41.9575 129.071 42.377C129.259 42.8103 129.498 43.1331 129.782 43.3451C130.066 43.5572 130.479 43.6632 131.019 43.6632C131.409 43.6632 131.78 43.5941 132.124 43.4512C132.468 43.3082 132.789 43.1469 133.087 42.9717C133.462 42.7412 133.811 42.5153 134.118 42.2894C134.22 42.214 134.321 42.1402 134.42 42.0677C134.618 41.923 134.809 41.7837 134.989 41.6486V35.328Z" fill="#AAA5A2"></path><path d="M143.739 44.6406C143.737 44.6405 143.736 44.6404 143.734 44.6403L143.739 44.6406Z" fill="#AAA5A2"></path><path d="M142.309 44.5207C142.775 44.5713 143.25 44.6126 143.734 44.6403V43.4557C143.354 43.4281 142.992 43.3958 142.639 43.3543C142.29 43.3128 141.992 43.2529 141.749 43.1699C141.507 43.0915 141.332 42.9717 141.222 42.8149C141.117 42.6628 141.048 42.4599 141.021 42.2156C140.993 41.9713 140.975 41.7177 140.97 41.4595C140.966 41.2014 140.961 40.8556 140.961 40.4222V34.9177H144.202V33.7375H140.961V31.0267H139.724V41.4134C139.724 41.6901 139.728 41.9344 139.742 42.1465C139.756 42.3585 139.774 42.5475 139.801 42.7181C139.829 42.8887 139.87 43.0501 139.925 43.1976C140.099 43.7278 140.498 44.0873 141.122 44.2764C141.447 44.387 141.841 44.4654 142.309 44.5207Z" fill="#AAA5A2"></path></g><defs><clipPath id="clip0_524_5374"><rect width="236" height="47" fill="#000000"></rect></clipPath></defs></svg>