<?xml version="1.0" encoding="UTF-8" standalone="no"?>
<!DOCTYPE svg PUBLIC "-//W3C//DTD SVG 1.1//EN" "http://www.w3.org/Graphics/SVG/1.1/DTD/svg11.dtd">
<svg width="100%" height="100%" viewBox="0 0 463 142" version="1.1" xmlns="http://www.w3.org/2000/svg" xmlns:xlink="http://www.w3.org/1999/xlink" xml:space="preserve" xmlns:serif="http://www.serif.com/" style="fill-rule:evenodd;clip-rule:evenodd;stroke-linejoin:round;stroke-miterlimit:2;">
    <g transform="matrix(1,0,0,1,-4871,-1431.28)">
        <g transform="matrix(0.923077,0,0,2.66667,4220.97,1180.3)">
            <g transform="matrix(0.83991,0,0,0.290738,954.747,120.602)">
                <g transform="matrix(1,0,0,1,-298.3,-91.1)">
                    <clipPath id="_clip1">
                        <rect x="0" y="0" width="596.6" height="182.2"/>
                    </clipPath>
                    <g clip-path="url(#_clip1)">
                        <g transform="matrix(2,0,0,2,0,0)">
                            <path d="M146.2,5.6L153.9,5.6L153.9,30C153.9,34.3 152.6,37.6 149.9,39.8C143.8,44.3 135.6,44.3 129.5,39.8C126.8,37.6 125.5,34.3 125.5,30L125.5,5.6L133.2,5.6L133.2,30C133.2,32.5 133.8,34.2 135,35.3C137.8,37.5 141.8,37.5 144.6,35.3C145.8,34.2 146.3,32.4 146.3,30L146.2,5.6ZM170.8,20.5C168.9,20.4 167,21.4 166.1,23.1L166.1,42.6L158.7,42.6L158.7,15.1L165.6,15.1L165.8,18.2C167.7,15.8 170.7,14.4 173.7,14.5C176,14.4 178.3,15.2 180,16.8C181.6,18.4 182.4,21.1 182.4,25L182.4,42.5L175,42.5L175,25.1C175,23.3 174.6,22.1 173.9,21.5C173.1,20.8 172,20.4 170.8,20.5ZM187.4,8C187.4,7 187.8,6 188.5,5.3C190.2,3.9 192.8,3.9 194.5,5.3C195.2,6 195.7,7 195.6,8C195.6,9 195.2,10 194.5,10.7C192.8,12.1 190.2,12.1 188.5,10.7C187.8,10 187.4,9 187.4,8ZM195.3,15.1L195.3,42.6L187.9,42.6L187.9,15.1L195.3,15.1ZM214.4,42.5C213,43 211.5,43.2 210,43.2C207.9,43.3 205.9,42.6 204.2,41.3C202.8,40.1 202.1,38 202.1,35L202.1,20.5L198,20.5L198,15.1L202.1,15.1L202.1,8.3L209.5,8.3L209.5,15.1L214.2,15.1L214.2,20.5L209.5,20.5L209.5,34.3C209.4,35.1 209.6,36 210.2,36.6C210.8,37 211.6,37.2 212.3,37.2C212.7,37.2 213.1,37.2 213.5,37.1C213.9,37.1 214.2,37 214.4,37L214.4,42.5ZM241,38.2C239.9,39.6 238.6,40.8 237,41.6C234.9,42.7 232.6,43.2 230.3,43.2C226,43.2 222.6,41.9 220.2,39.3C217.8,36.7 216.5,33.4 216.6,29.9L216.6,28.9C216.4,25.2 217.7,21.5 220.1,18.7C222.5,16 225.9,14.5 229.5,14.7C233.5,14.7 236.5,15.9 238.5,18.4C240.5,20.9 241.6,24.2 241.6,28.2L241.6,31.3L224.1,31.3C224.3,32.9 225,34.5 226.2,35.6C227.4,36.7 229.1,37.3 230.8,37.2C233.4,37.3 235.9,36.2 237.4,34.1L241,38.2ZM229.4,20.5C228,20.4 226.7,21 225.8,22.1C224.9,23.3 224.3,24.7 224.1,26.2L234.3,26.2L234.3,25.6C234.3,24.3 233.9,23 233.1,21.9C232.2,20.9 230.8,20.4 229.4,20.5ZM262.1,42.7L261.7,39.8C260.9,40.8 259.9,41.7 258.7,42.3C257.5,42.9 256.1,43.2 254.7,43.2C251.5,43.3 248.5,41.8 246.8,39.2C244.8,36.2 243.8,32.7 244,29.2L244,28.7C244,24.5 244.9,21.1 246.8,18.5C248.6,15.9 251.6,14.5 254.8,14.6C257.4,14.5 259.8,15.6 261.4,17.6L261.4,3.6L268.8,3.6L268.8,42.7L262.1,42.7ZM251.3,29.2C251.2,31.1 251.6,33.1 252.5,34.8C253.3,36.3 254.9,37.3 256.6,37.1C258.6,37.2 260.5,36.1 261.4,34.3L261.4,23.4C260.6,21.6 258.7,20.4 256.6,20.5C254.9,20.4 253.3,21.3 252.5,22.9C251.6,24.7 251.2,26.7 251.3,28.7L251.3,29.2ZM155.9,49.9L155.9,87L148.3,87L133.4,62.5L133.4,87L125.7,87L125.7,49.9L133.4,49.9L148.3,74.4L148.3,49.9L155.9,49.9ZM177.4,87C177,86.2 176.8,85.4 176.7,84.5C175.9,85.4 175,86.1 173.9,86.6C172.6,87.2 171.2,87.5 169.7,87.5C167.3,87.6 164.9,86.7 163.1,85.2C161.3,83.7 160.4,81.6 160.4,79.3C160.3,76.7 161.5,74.1 163.6,72.6C165.7,71 168.9,70.2 173.1,70.2L176.4,70.2L176.4,68.6C176.5,67.5 176.1,66.4 175.4,65.5C174.6,64.7 173.5,64.3 172.3,64.4C169.7,64.4 168.4,65.5 168.4,67.7L161,67.7C161,65.3 162.2,63 164.2,61.5C166.7,59.7 169.7,58.8 172.7,58.9C175.5,58.8 178.3,59.6 180.6,61.3C182.7,62.9 183.7,65.3 183.7,68.6L183.7,80.2C183.7,81.5 183.8,82.7 184,84C184.2,84.9 184.4,85.7 184.8,86.5L184.8,87L177.4,87ZM171.3,81.9C172.4,81.9 173.5,81.6 174.5,81.1C175.3,80.7 175.9,80 176.4,79.3L176.4,74.5L173.4,74.5C171.9,74.4 170.3,74.8 169.1,75.7C168.2,76.5 167.7,77.6 167.7,78.7C167.7,79.6 168,80.4 168.6,81C169.4,81.6 170.4,81.9 171.3,81.9ZM202.6,86.8C201.9,87 201.3,87.2 200.6,87.3C199.8,87.4 199,87.5 198.2,87.5C196.1,87.6 194.1,86.9 192.4,85.6C191,84.4 190.3,82.3 190.3,79.3L190.3,64.8L186.2,64.8L186.2,59.4L190.3,59.4L190.3,52.6L197.7,52.6L197.7,59.4L202.4,59.4L202.4,64.8L197.7,64.8L197.7,78.6C197.6,79.4 197.8,80.3 198.4,80.9C199,81.3 199.8,81.5 200.5,81.5C200.9,81.5 201.3,81.5 201.7,81.4C202.1,81.4 202.4,81.3 202.6,81.3L202.6,86.8ZM205.7,52.3C205.7,51.3 206.1,50.3 206.8,49.6C208.5,48.2 211.1,48.2 212.8,49.6C214.3,51.1 214.3,53.5 212.8,55.1C211.1,56.5 208.5,56.5 206.8,55.1C206,54.3 205.6,53.3 205.7,52.3ZM213.5,59.4L213.5,87L206.1,87L206.1,59.4L213.5,59.4ZM217.7,73.5L217.7,73C217.6,69.4 218.8,65.8 221.1,63C223.4,60.3 226.6,59 230.7,59C234.9,59 238.1,60.3 240.4,63C242.7,65.8 243.9,69.4 243.8,73L243.8,73.5C243.9,77.1 242.7,80.7 240.4,83.5C238.1,86.2 234.9,87.5 230.8,87.5C226.6,87.5 223.4,86.2 221.1,83.5C218.8,80.7 217.6,77.1 217.7,73.5ZM225.1,72.9L225.1,73.4C225,75.4 225.5,77.4 226.4,79.1C228,81.5 231.3,82.2 233.7,80.6C234.3,80.2 234.8,79.7 235.2,79.1C236.1,77.3 236.5,75.4 236.5,73.4L236.5,72.9C236.6,70.9 236.1,69 235.2,67.2C234.3,65.6 232.6,64.6 230.8,64.8C229,64.7 227.3,65.6 226.4,67.2C225.5,69 225,71 225.1,72.9ZM259.6,64.9C257.7,64.8 255.8,65.8 254.9,67.6L254.9,87L247.5,87L247.5,59.4L254.4,59.4L254.7,62.6C256.6,60.2 259.5,58.8 262.6,58.9C265,58.8 267.3,59.6 269,61.2C270.6,62.8 271.4,65.5 271.4,69.4L271.4,87L264,87L264,69.4C264,67.6 263.6,66.4 262.9,65.8C261.9,65.1 260.7,64.8 259.6,64.9ZM291.2,79.3C291.2,78.5 290.8,77.7 290.1,77.3C288.7,76.5 287.1,76 285.6,75.8C283.1,75.3 280.7,74.4 278.6,73C276.8,71.8 275.7,69.7 275.8,67.5C275.8,65.2 276.9,63 278.7,61.5C280.7,59.8 283.3,58.9 286.8,58.9C290.3,58.9 293.2,59.7 295.3,61.4C297.3,62.9 298.4,65.3 298.4,67.8L291,67.8C291,66.8 290.7,65.9 290,65.2C289.1,64.5 288,64.1 286.8,64.2C285.8,64.1 284.8,64.4 283.9,65C283.3,65.5 282.9,66.3 282.9,67.1C282.9,67.9 283.3,68.7 284,69.1C285.2,69.8 286.6,70.2 288,70.4C290.6,70.9 293.1,71.8 295.4,73.1C297.4,74.3 298.4,76.3 298.4,79C298.4,81.4 297.2,83.6 295.3,85C293.2,86.6 290.4,87.4 286.8,87.4C283,87.4 280,86.4 278,84.4C276.1,82.8 275,80.5 274.9,78.1L281.9,78.1C281.9,79.3 282.5,80.5 283.5,81.2C284.5,81.8 285.7,82.2 287,82.1C289.7,82.3 291.2,81.3 291.2,79.3Z" style="fill:rgb(189,224,217);fill-rule:nonzero;"/>
                        </g>
                        <g transform="matrix(2,0,0,2,0,0)">
                            <g>
                                <g>
                                    <g>
                                        <path d="M86.4,83.1C83.5,84.5 80.3,84.9 77.1,84.2C74.9,83.7 72.9,83 70.9,82.1L66.5,80.3C62.7,79.1 58.6,79 54.7,80L54.3,80C50.4,78.9 46.3,79 42.5,80.3C41,80.8 39.6,81.5 38.1,82.1C36.1,83 34,83.8 31.9,84.3C28.8,85 25.5,84.6 22.6,83.2L22.2,83C22.1,83 22.1,83 22.1,83.1C24,85.1 26.5,86.5 29.1,87.2C30.9,87.7 32.8,87.8 34.6,87.6C37.4,87.2 40.1,86.2 42.4,84.6L46.6,81.8C48.2,80.8 50.1,80.4 51.9,80.8C52.9,80.9 52.1,81.4 52,81.5C49.5,82.7 47.1,84.2 44.9,85.9C43.4,87 40.7,89.6 40.7,89.6L42.7,91.3L44.9,88.9C47.6,86.1 50.7,83.7 54.1,81.8C54.4,81.6 54.7,81.6 55,81.8C58.4,83.7 61.5,86.1 64.2,88.9L66.4,91.3L68.4,89.6L64.2,85.9C62,84.2 59.6,82.7 57.1,81.5C56.9,81.4 56.2,80.9 57.2,80.8C59,80.4 60.9,80.8 62.5,81.8L66.7,84.6C69,86.2 71.7,87.2 74.5,87.6C76.3,87.8 78.2,87.7 80,87.2C82.6,86.4 85.1,85 87,83.1C87,83.1 86.9,83 86.8,83L86.4,83.1M96.2,74.4C94.9,75.4 93.5,76.1 92,76.6C89.9,77.2 87.6,77.6 85.4,77.6C82.5,77.7 79.7,77.9 76.8,78.3C76.6,78.3 76.5,78.3 76.6,78.2C79.1,77.2 81.1,75.2 82.2,72.8L85,67.1L85,66.9C84.8,67 82,69.4 80.7,70.6L76,75.2C73.9,77 71.4,78.3 68.7,79L68.6,79L68.5,79.1L73.9,80.4C76.2,81.1 78.6,81.5 81,81.7C87.1,82.3 93,79.5 96.4,74.5C96.4,74.4 96.3,74.4 96.2,74.4M105,61C103.6,62.7 101.9,64.2 100,65.4C98.4,66.5 96.7,67.4 94.9,68.2C92.6,69.1 90.5,70.4 88.6,71.9L88.2,72.2C88.1,72.2 88.1,72.2 88.1,72.1C88.1,72 91.1,69 92,62.7C92.1,60.4 92.5,58.2 93,56L93,55.8C90.9,58.4 89.3,61.3 88.2,64.4L86.4,69.5C85.7,71.8 84.4,73.9 82.7,75.6L82.5,75.8L82.5,75.9C82.7,75.9 82.9,75.8 83.1,75.8L88.9,74.6C92.1,74.1 95.1,72.8 97.7,70.9C100.4,69 102.5,66.4 104,63.5C104.4,62.7 104.7,61.9 105,61.1C105.2,60.9 105.1,60.9 105,61M108.8,46C107.9,48.7 106.3,51.2 104.2,53.2C101.8,55.5 99.6,58.1 97.6,60.7C97.6,60.8 97.4,60.7 97.5,60.6C98.3,57.9 98.5,55 98.1,52.1C97.7,49.7 96.7,47.1 96.4,44.2L96.3,44.1C96.3,44.2 96.2,44.3 96.2,44.4C95.6,46.3 95.2,48.2 95,50.2C94.9,52.6 95.3,55.7 95.1,58.1C94.9,60.9 94.7,63.8 93.4,66.3L93.4,66.5L99.4,62.8C101.9,61.2 104,59.2 105.7,56.8C107.9,53.7 109,50.1 109,46.3L109,45.9C108.9,45.9 108.8,46 108.8,46" style="fill:rgb(0,158,219);fill-rule:nonzero;"/>
                                        <path d="M102.4,47.6C102.5,47.6 102.5,47.6 102.4,47.6C102.4,47.7 102.4,47.6 102.4,47.6C102.4,46.8 102.4,46 102.3,45.2C102.1,42.4 100.4,40.1 98.9,37.7C97.9,36.2 97,34.6 96.2,32.9C96.2,32.9 96.1,32.8 96,32.8C96,33 96,33.9 96.1,34.4C96.6,38.4 97.6,42.4 99.1,46.2C100,48.6 100.3,51.1 100.1,53.6C100.1,53.8 100.1,53.8 100.2,53.9C101.1,52.6 102.9,50.8 104,49.4C105.1,48 111.1,41.2 108.2,31.8C108.1,31.4 107.9,31 107.7,30.6L107.6,30.7C107.6,37.5 104.3,40.4 103,45C102.7,46.1 102.5,46.9 102.4,47.6M102.5,33.6L101.9,32L101.5,31.1C100.5,29.3 99.1,27.7 97.4,26.5C96,25.3 94.8,24 93.8,22.5L93.5,22.5C93.6,22.8 94.5,25.8 95.1,27.2C96.1,29.1 97.3,31 98.7,32.6L99,33C100.7,35.3 102,37.8 102.9,40.5C102.9,40.6 103,40.6 103,40.6L104.7,35.4C105.3,33.6 105.8,31.7 106.2,29.8C106.8,25.3 105.4,19.6 102.8,16.4C102.8,16.4 102.7,16.5 102.7,16.6L102.8,17L103,17.6C103.5,20 103.6,22.6 103.1,25C102.7,26.9 102.6,28.9 102.6,30.9C102.6,31.2 102.8,33.7 102.8,33.8C102.8,33.9 102.7,33.8 102.6,33.8M94.5,8.5C95.3,9.3 96,10.2 96.4,11.3C97.1,13 97.3,15.5 97.8,17.4L98.7,20.7C98.7,20.8 98.6,20.9 98.5,20.8C97,19 95.2,17.5 93.1,16.3C91.7,15.5 90.6,14.4 89.6,13.2L89.1,12.5C89.1,12.5 89,12.4 88.9,12.5L88.9,12.8C89.4,15 90.4,17.1 92,18.8C93.3,20 94.7,21.1 96,22.2C97.7,23.6 99.3,25.3 100.8,27C100.8,27 100.9,27.1 100.9,27L100.9,25.4L101,20.6L101,19C101,17.4 100.7,15.7 100.1,14.2C99.1,11.7 97.2,9.7 94.9,8.5C94.8,8.4 94.6,8.4 94.4,8.3C94.4,8.3 94.4,8.4 94.5,8.5M84.2,3.8C85.6,5.1 86.8,6.6 87.9,8.2C88.9,9.8 90,11.2 91.4,12.5C92.3,13.4 95,15.5 95.7,16.1C95.6,15.3 94.3,9.6 90.8,6.8C88.8,5.2 86.4,4 83.9,3.4L83.9,3.6L84.2,3.8M28.2,81.7C30.5,81.5 32.9,81.1 35.1,80.4L40.5,79.1L40.6,79.1C40.6,79.1 40.6,79 40.5,79L40.4,79C37.7,78.3 35.2,77 33,75.2L28.3,70.7L24,67L24,67.2C24.4,67.8 25.9,71.1 26.8,72.9C27.9,75.4 29.9,77.3 32.4,78.3C32.5,78.4 32.4,78.4 32.2,78.4C29.4,78 26.5,77.8 23.6,77.7C21.4,77.7 19.1,77.3 17,76.7C15.5,76.2 14.1,75.5 12.8,74.5L12.6,74.5C14.6,77.3 17.4,79.5 20.6,80.7C23.1,81.5 25.6,81.8 28.2,81.7M25.9,75.8C26.1,75.8 26.2,75.9 26.5,75.9L26.5,75.8L26.3,75.6C24.6,73.9 23.4,71.8 22.6,69.5L20.8,64.4C19.7,61.3 18.1,58.4 16,55.8L16,56C16.6,58.2 16.9,60.4 17.1,62.7C18,68.9 21,71.9 21,72C21,72.1 21,72.2 20.9,72.1L20.5,71.8C18.6,70.3 16.5,69 14.2,68.1C12.4,67.3 10.7,66.4 9.1,65.3C7.2,64.1 5.5,62.6 4.1,60.9L4,60.9C4.3,61.7 4.6,62.5 5,63.3C6.5,66.2 8.7,68.8 11.4,70.7C14,72.7 17,74 20.2,74.4C22.1,74.9 24,75.4 25.9,75.8M9.8,62.8L15.8,66.5C15.8,66.5 15.9,66.4 15.9,66.3C14.6,63.7 14.4,60.9 14.2,58.1C14,55.6 14.4,52.6 14.3,50.2C14.1,48.2 13.7,46.2 13.1,44.3C13.1,44.2 13,44.1 13,44L12.9,44.1C12.7,47 11.6,49.6 11.2,52C10.8,54.8 11,57.7 11.8,60.5C11.9,60.6 11.7,60.7 11.7,60.6C9.7,57.9 7.5,55.4 5.1,53.1C3,51.1 1.4,48.7 0.5,46C0.5,46 0.4,45.9 0.3,45.9C0.2,45.9 0.3,46.1 0.3,46.3C0.3,50 1.4,53.7 3.6,56.8C5.2,59.1 7.3,61.2 9.8,62.8M8.7,54C8.8,53.9 8.8,53.9 8.8,53.7C8.6,51.2 8.9,48.6 9.9,46.3C11.3,42.5 12.3,38.6 12.9,34.5C12.9,34 13,33.1 13,32.9C12.9,32.9 12.9,32.9 12.9,33C12.1,34.7 11.2,36.3 10.2,37.8C8.6,40 7,42.4 6.8,45.2C6.7,46 6.7,46.8 6.8,47.6C6.8,47.6 6.8,47.7 6.7,47.7L6.7,47.6L6,45.2C4.6,40.6 1.4,37.7 1.4,30.9L1.3,30.8C1.1,31.2 1,31.6 0.8,32C-2.1,41.4 3.8,48.2 5,49.6C6.2,51 7.8,52.7 8.7,54M4.5,35.3L6.2,40.5C6.2,40.5 6.3,40.5 6.3,40.4C7.2,37.7 8.6,35.2 10.2,32.9L10.5,32.5C11.9,30.8 13.1,29 14.1,27.1C14.7,25.7 15.6,22.7 15.7,22.4L15.4,22.4C14.4,23.9 13.2,25.2 11.8,26.4C10.1,27.6 8.6,29.2 7.6,31.1C7.5,31.4 7.3,31.7 7.2,32L6.6,33.7C6.6,33.7 6.5,33.9 6.5,33.7C6.5,33.5 6.7,31.2 6.7,30.8C6.7,28.8 6.5,26.8 6.1,24.9C5.6,22.4 5.7,19.9 6.2,17.5C6.2,17.3 6.3,17.1 6.4,16.9C6.4,16.8 6.5,16.6 6.5,16.5C6.5,16.4 6.5,16.4 6.4,16.3C3.8,19.5 2.3,25.3 2.9,29.7C3.4,31.6 3.9,33.5 4.5,35.3M8.1,20.7L8.2,25.5L8.2,27L8.3,27C9.7,25.2 11.3,23.6 13,22.1L17,18.7C18.6,17 19.6,14.9 20.1,12.7L20.1,12.4L20,12.4L19.5,13.1C18.6,14.3 17.4,15.4 16.1,16.2C13.7,17.7 12.1,18.8 10.7,20.7C10.6,20.8 10.5,20.8 10.6,20.6L11.5,17.3C12,15.4 12.2,12.9 12.9,11.2C13.3,10.2 14,9.2 14.8,8.4L14.8,8.2C14.6,8.2 14.5,8.3 14.3,8.4C11.8,9.7 10,11.8 9,14.2C8.4,15.7 8,17.3 8.1,19L8.1,20.7M13.4,16L17.8,12.4C19.1,11.1 20.3,9.7 21.3,8.1C22.3,6.5 23.6,5 25,3.7L25.3,3.4L25.3,3.2C22.8,3.8 20.4,4.9 18.4,6.6C14.7,9.5 13.5,15.2 13.4,16M53.6,47C53.9,46.6 53.2,46.3 53,47C52.8,47.7 53.3,47.5 53.6,47M61.2,29.4C60.9,29.3 59.8,30.6 60,30.8C60.5,30.5 60.9,30 61.2,29.4M61.4,29.2C61.6,29.3 62.3,28.9 62.2,28.8C62.1,28.7 61.2,28.3 61.2,28.5C61.2,28.9 61.3,29.1 61.4,29.2M74.9,41.6C75.3,41.5 75.2,40.9 74.9,40.9C74.6,40.9 74.2,41.4 74.3,41.4C74.4,41.4 74.7,41.7 74.9,41.6M70,28.3C69.7,28.3 69.6,28.6 69.9,28.8C70.2,28.9 70.4,28.8 70.6,28.7C70.8,28.6 71,28.4 71,28.1C71,27.8 70.6,27.4 70.8,27.2C71,27 71.3,27.3 71.5,27.2C71.7,27.1 71.8,26.9 71.8,26.7C71.8,26.5 71.7,25.9 71.3,25.9C70.9,25.9 70.5,26.7 70.5,26.7C70.4,26.9 70.4,27.2 70.5,27.4C70.6,27.8 70.5,28.3 70,28.3" style="fill:rgb(0,158,219);fill-rule:nonzero;"/>
                                        <path d="M76.6,28.4C76.6,28.6 77.1,29.9 77.2,30.2C77.3,30.5 77.4,31.6 77.6,31.5C77.8,31.4 77.8,30.8 77.7,30.5C77.6,29.8 77.4,29 77.2,28.4C77.1,28 76.4,26.5 76.2,26.6C76,26.7 76.5,27.6 76.6,28C76.7,28.4 76.5,28.2 76.6,28.4M73.1,11.4C73.4,11.5 73.4,10.9 72.9,10.5C72.4,10.1 71.6,10.3 71.8,10.5C72.2,10.8 72.6,11.2 73.1,11.4M58.1,7.1C57.4,6.7 58,6.1 57.5,5.7C56.9,5.5 56.3,5.6 55.9,6C55.4,6.6 56.5,6.4 56.8,6.6C57.1,6.8 58.1,7.5 58.2,7.4C58.3,7.3 58.2,7.1 58.1,7.1M62.1,5.1C61.2,4.7 57.9,4.7 58,5.6C58.1,6.5 59.9,5.6 60.4,5.6C60.9,5.6 62.9,5.5 62.1,5.1M53,43.7C52.8,43.6 52.5,43.8 52.4,43.6C52.3,43.4 52.1,43.5 52.1,43.6C52.1,43.7 52,43.9 52.2,44.1C52.4,44.3 52.8,44.3 53,44.1C53.1,44 53.1,43.8 53,43.7M51.1,37C51.4,37 51.4,36.8 51.5,36.8C51.6,36.8 51.5,37 51.8,37C52.1,37 52.4,36.3 51.5,36.3C50.8,36.3 50.9,37 51.1,37M52.3,37.8C51.8,37.7 51.9,38 51.5,38C50.9,38.1 51.4,37.6 51.2,37.4C51.1,37.3 50.8,37.8 50.7,38.1C50.7,38.3 50.7,38.7 50.9,38.8L52.8,39C53.2,39 52.8,37.9 52.3,37.8M46.1,44.3C46.3,44.3 46.4,43.7 46.3,43.4C46.2,43.1 45.6,43.3 45.6,43.5C45.6,43.7 46,44.3 46.1,44.3M38.1,44.3C38.1,44.1 38.1,43.3 37.9,43.1C37.7,42.9 37.7,43.2 37.6,43.2C37.5,43.2 37.5,42.8 37.4,42.8C37.3,42.8 37.4,43.4 37.6,43.8C37.8,44.2 38.1,44.8 38.1,44.3M37.9,42.5C38.1,41.9 38.2,41.3 38.2,40.7C38.2,40.2 37.9,39.8 37.8,39.8C37.7,39.8 37.8,40.1 37.9,40.6C37.9,41.1 37.7,41.6 37.6,42.1C37.6,42.2 37.8,42.7 37.9,42.5" style="fill:rgb(0,158,219);fill-rule:nonzero;"/>
                                        <path d="M27.7,64.9C42.6,79.8 66.6,79.8 81.5,64.9C96.4,50 96.4,26 81.5,11.1C66.6,-3.8 42.6,-3.8 27.7,11.1C12.8,26 12.8,50.1 27.7,64.9M18.2,38.8L24,38.8C24.1,41.8 24.6,44.7 25.5,47.5C25.2,47.4 24.9,47.3 24.6,47.1C24.2,46.9 23.9,47.2 23.8,47.2C23.4,47.2 22.9,46.9 22.9,47.2C22.9,47.5 23.3,47.3 23.3,47.5C23.3,47.7 22.3,47.7 22.2,47.3C22.1,46.9 21.9,46.5 21.8,47C21.7,47.5 21.3,47.4 21.1,47.5C21,47.6 20.9,47.8 20.9,48C20.9,48.2 20.4,48.1 20.4,48.4C20.4,48.7 20.7,48.8 20.8,49.1C20.9,49.4 21.2,49.6 21,49.7C20.8,49.8 20.9,49.6 20.7,49.7C20.5,49.8 21.6,52.8 21.8,52.7C22,52.6 21.5,51.7 21.5,51.3C21.5,50.9 21.6,50.8 21.9,50.6C22.2,50.4 23,51.8 23.3,51.6C23.6,51.4 23.2,51.2 23.5,51.1C23.8,51 24.7,52.4 25,52C25.2,51.7 25.4,52.2 25.4,52.3C25.7,52.8 26.2,52.8 26.5,53.4C26.8,54 27.5,55.1 28,55.1C28.5,55.1 28.2,54.6 28.4,54.6C28.6,54.6 28.8,55.3 29.1,55.7C29.3,56 29.6,56.2 30,56.3C30.7,57.2 31.5,58.1 32.3,59L28.2,63.1C21.9,56.7 18.3,48 18.2,38.8M51.3,30.5L50.9,30.7C50.3,31 49.8,31.3 49.4,31.7L45.3,27.6C47.7,25.5 50.7,24.2 53.8,24.1L53.8,29.9C53.1,30 52.4,30.1 51.7,30.4C51.9,30 52.3,29.6 52.3,29.6C52.3,29.6 51.6,30 51.3,30.5M48.2,40C48.2,40 48.2,40.1 48.2,40L48.2,40.2C48.2,40 48.1,39.9 48,39.7C47.9,39.6 47.8,39.5 47.7,39.5L47.2,39.5L47,39.6L45.6,39.6C45.4,39.6 45.3,39.6 45.3,39.5C45.2,39.1 45.8,39.4 46.2,38.2C46.3,38.1 46.3,37.9 46.4,37.8L46.5,37.6L46.7,37.4C46.9,37.2 47.1,37.2 47.3,37.2L47.5,37.2L47.7,37.4L48,38C48.1,38.1 48.2,38.1 48.2,38.2C48.4,38.3 48.5,38.4 48.6,38.5L48.7,38.6L48.7,38.7C48.8,38.8 48.8,38.8 48.9,38.8L49.3,38.8C49.5,38.7 49.5,38.8 49.6,38.8L49.6,38.9C49.6,39 49.6,39 49.5,39.1C49.5,39.2 49.4,39.2 49.4,39.3C49.3,39.4 49.2,39.5 49.1,39.5C48.9,39.5 48.7,39.4 48.6,39.4C48.5,39.4 48.4,39.4 48.4,39.5L48.4,40M37.4,49.6C37.1,49.1 37,48.4 37,47.8C37,47.2 36.8,46.6 36.5,46.1C36.4,45.7 36.3,45.3 36.3,44.9C36.3,44.2 35.7,44.4 35.7,44.2C35.7,44 36.2,44.2 36.2,44C36.2,43.8 35.6,43 35.1,42.8C34.6,42.6 34.8,42.3 34.8,42C34.8,41.7 34.8,41.4 34.6,41.2C34.5,40.8 34.6,40.1 35.1,40.1C35.3,40.1 35.6,40.3 35.9,40.1C36.2,39.9 36,39.3 36,38.8L38.8,38.8C38.8,39.2 38.9,39.7 38.9,40.1C38.7,40.2 38.6,40.4 38.7,40.5C38.8,40.6 38.9,40.7 39,40.6C39.5,43.5 40.8,46.2 42.8,48.4L38.7,52.5C38.4,52.2 38.1,51.8 37.8,51.4L37.8,51.1C37.8,50.4 37.3,50 37.1,49.4M33.5,42.6C33.2,41.4 33.1,40.1 33,38.8L35.4,38.8C35.2,39.1 34.7,39.4 34.6,39.7C34.5,40 33.9,41 34.3,41.4C35.2,42.4 34.1,42.8 33.5,42.6M34,57.4L33.5,57.9C33.3,57.7 33,57.4 32.8,57.2C33.2,57 33.6,57.1 34,57.4M40.2,31.7C40.1,31.7 40.1,31.8 40,31.8C39.7,32.1 38.9,32 39,32.3C39.1,32.6 41.2,31.6 41.2,31.8C41.2,32 40.3,32.3 39.7,32.6C39.1,32.9 38.9,33.4 37.9,33.4C37.4,33.4 37.2,33.8 37,34.1C36.7,34.5 36.5,34.9 36.3,35.3C36.3,35.9 36.2,36.5 35.9,37.1L33,37.1C33.2,32 35.2,27.1 38.7,23.3L42.8,27.4C41.8,28.8 40.9,30.2 40.2,31.7M44,28.7L47.6,32.3L47.2,32.3C46.8,32.3 46.8,32 46.5,32C45.9,32.1 45.8,32.3 45.7,32.2C45.3,31.8 44.8,31.5 44.2,31.2C43.5,31 42.8,31 42.2,31.3C42.1,31.3 42.1,31.4 42,31.4C42.7,30.5 43.4,29.6 44,28.7M39,36C39,36.4 38.9,36.8 38.9,37.2L36.8,37.2C36.7,36.9 36.8,36.6 37,36.3C37.2,35.9 37.7,35.7 38.2,35.8C38.4,35.8 38.7,35.9 39,36M40.8,40.7L41,41C41.2,41.2 41.4,41.4 41.6,41.3C41.8,41.2 42.3,41.3 42.4,41.3C42.7,41.4 42.9,41.6 43.1,41.8C43.3,42.1 43.7,41.9 44,42.1C44.3,42.3 44.6,42.5 44.2,42.7C43.8,42.9 44.6,43.3 44.7,43.3C44.8,43.3 44.9,43.1 44.9,42.8C44.9,42.7 45.1,42.3 45.4,42.4C45.7,42.5 46.6,43.6 46.9,43.2C47.2,42.8 47,42.3 47.1,42.1C47.1,42 47.2,41.9 47.3,41.9C47.6,42.4 47.8,42.8 48.2,43.2L44.1,47.3C42.4,45.5 41.2,43.2 40.8,40.7M44,26.4L40,22.3C43.8,18.8 48.7,16.8 53.8,16.6L53.8,22.4C50.2,22.5 46.8,23.9 44,26.4M38.8,21.1L34.7,17C39.9,12.1 46.7,9.3 53.8,9.1L53.8,14.9C48.2,15.1 42.8,17.3 38.8,21.1M37.6,22.2C33.8,26.3 31.6,31.6 31.4,37.2L25.6,37.2C25.8,30.1 28.6,23.3 33.5,18.1L37.6,22.2ZM31.4,38.8C31.4,39.9 31.5,40.9 31.7,42C31.6,42 31.6,41.7 31.3,41.8C31,41.9 29.9,43.8 29.4,44.6C29,45.3 29.6,46.8 29,47.3C28.4,47.5 27.8,47.6 27.2,47.6L27.1,47.6C26.1,44.8 25.6,41.9 25.5,39L31.4,38.8ZM53.7,74.4C44.6,74.2 35.9,70.6 29.4,64.3L33.5,60.2C39,65.4 46.2,68.4 53.7,68.6L53.7,74.4ZM53.7,67C46.6,66.8 39.8,64 34.6,59.1L35.3,58.4C35.4,58.5 35.6,58.6 35.8,58.7C36.2,58.9 36.7,59 37.2,58.9C37.6,58.8 38.4,58.1 38.9,58.1C39.4,58.1 40.2,58.3 40.7,58C41.2,57.7 40.4,56.7 40.1,56.2C40,56.1 40,56 39.9,55.9C43.8,59.2 48.8,61.1 53.9,61.2L53.7,67ZM53.7,59.5C48.6,59.3 43.7,57.3 39.9,53.8L44,49.7C45.9,51.4 48.2,52.7 50.8,53.3C49.9,53.7 49.5,54.3 49.6,54.8C49.7,55.3 49,55.6 49,56.2C49,56.8 49.8,57.2 49.9,57.8C50,58.1 50.7,58.6 51.3,59C52.1,59.2 52.9,59.3 53.6,59.2L53.7,59.5ZM53.5,51.5C53.2,51.3 53,51.7 52.6,51.9C49.8,51.5 47.3,50.3 45.2,48.5L49.3,44.4C50.6,45.4 52.1,46.1 53.7,46.2C53.7,46.4 53.9,46.6 53.9,47C53.9,47.4 53.6,47.6 53.7,47.8C53.8,48 54.7,47.8 54.8,47.5C54.9,47.2 54.5,47 54.4,46.7C54.3,46.5 54.3,46.4 54.2,46.2L54.5,46.2C54.8,46.2 55.1,46.2 55.4,46.1C55.5,46.1 55.6,46 55.6,45.9C55.6,45.8 55.7,45.7 55.7,45.6C55.7,45.5 55.8,45.5 55.8,45.4L55.9,45.5C56,45.7 56.2,46.3 56.4,46.2C56.6,46.1 56.7,45.2 56.6,45C56.4,44.7 56.4,44.4 56.6,44.1C56.6,44 56.7,43.4 56.9,43.5C57.1,43.6 56.9,44.1 56.9,44.3C56.9,44.6 57.1,45 57.4,44.8C57.6,44.7 57.8,44.4 58,44.5C58.2,44.6 57.5,44.8 57.4,45C57.3,45.2 57.7,45.3 57.6,45.4C57.5,45.5 57.4,45.4 57.3,45.5C57.2,45.6 57.5,46.2 57.3,46.3C57.1,46.4 56.4,46.6 56.2,46.7C56,46.8 55.8,46.6 55.9,46.5C56,46.4 55.9,46 55.7,46C55.5,46 55.5,46.1 55.5,46.3C55.5,46.5 55.7,46.8 55.7,46.9C55.7,47 55.4,47.1 55.2,47.2C55,47.5 54.7,47.8 54.4,48C54.1,48.2 53.5,48.2 53.5,48.4C53.5,48.6 53.8,48.6 53.9,48.7C54.1,49 54.2,49.4 53.8,49.6C53.4,49.8 52.9,49.3 52.7,49.4C52.5,49.5 52.4,50 52.3,50.6C52.2,51.2 53.4,51.4 54,51.1C54.4,50.9 54.3,50.3 54.7,50.1C55.1,49.9 55,49.5 55.4,49.6C55.8,49.7 55.7,49.3 56.1,49.3C56.5,49.3 56.5,49.6 57,49.7C57.8,49.9 57.8,50.5 57.9,50.2C58,49.9 58.1,49.7 57.5,49.5C56.9,49.3 56.6,48.6 57.1,48.8C57.7,49.1 58.2,49.1 58.3,49.4C58.4,49.7 59,49.6 59.1,49.9C59.2,50.4 59.6,49.9 59.3,49.6C59,49.3 59.1,49.2 59.3,49C59.5,48.8 59.6,49.1 59.9,48.7C60.2,48.3 59.8,48.4 59.7,48.2C59.6,48 59.7,46.9 60.1,47.1C60.5,47.3 60.9,47 60.7,46.9C60.5,46.8 60.8,46.2 60.9,46.2C61,46.2 60.9,46.6 61,46.7C61.1,46.8 62.1,46.4 62.2,46.9C62.3,47.4 61.5,47.7 61.3,47.7C60.9,47.7 60.6,48.1 60.3,48.5C60,48.9 59.7,49 59.9,49.4C60.1,49.8 60.5,49.7 60.9,49.5C61.3,49.3 61.6,49 61.8,48.9C62.2,48.7 62.5,49.9 62.3,50.1C62.1,50.3 61.7,50.4 61.5,50.6C60.9,50.9 60.3,51.2 59.6,51.2C59.2,51.3 59.2,51.4 59.1,51.8C59,52.2 57.2,51.9 56.8,51.9C56.4,51.9 57.1,51 56.5,51.1C55.9,51.2 55.3,51.3 54.7,51.4C54.6,51.4 54,51.9 53.5,51.5M58.8,60.8C59.3,61 59.8,61.4 60.1,61.8C60.4,62.3 60.5,62.5 60.3,63C59.8,63.9 60,64.5 61,64.8C61.6,65 61.8,65.6 62.2,66C60,66.6 57.7,66.9 55.4,67L55.4,61.2C56.5,61.1 57.7,61 58.8,60.8M55.4,59.6L55.4,58.9C56.7,58.7 56.4,59.5 57.3,59.2C57.6,59.1 57.9,59.2 58.1,59.4C57.2,59.4 56.3,59.5 55.4,59.6M55.4,74.5L55.4,68.6C58.4,68.5 61.4,68 64.3,67C64.4,67.1 64.5,67.1 64.6,67.1C65,67.1 65.4,66.9 65.7,66.7C66.7,66.3 67.6,65.8 68.4,65.2C71,63.9 73.5,62.1 75.6,60.1L79.7,64.2C73.2,70.6 64.5,74.2 55.4,74.5M71.6,22.2L73,20.8C73.4,21.2 73.8,21.5 74.4,21.6C74.9,21.7 75.1,21.9 75.2,22.4C75.3,22.9 75.8,23.1 76.3,23.2C76.8,23.3 77.1,23.9 77.5,23.9C77.9,23.9 79.2,25.7 79.7,26.3C80,26.6 80.4,27.1 80.7,26.7C81,26.3 81,26.4 81.2,26.3C82.7,29.7 83.6,33.5 83.7,37.2L77.9,37.2C77.9,35.9 77.7,34.6 77.4,33.3C77.6,32.9 77.7,32.5 77.7,32C77.7,31.6 77.3,31.4 77,31.7C76.8,30.9 76.5,30.2 76.2,29.5C76.1,29.1 76,28.6 75.9,28.2C75.9,28.1 75.7,28 75.5,27.8C75.3,27.4 75.2,27.1 75,26.8C75.3,26.6 75.4,26.1 75,26.2C74.4,26.3 74.8,25.9 74.6,25.7C74.4,25.5 74.4,25.7 74.3,25.8C73.5,24.6 72.7,23.5 71.7,22.4L71.7,22.3C71.5,22.3 71.5,22.2 71.6,22.2M75.1,56.1C74.9,55.7 74.8,55.2 74.6,54.8C74.5,54.4 73.7,54.4 73.7,54.6C73.7,55 73.7,55.4 73.6,55.8L73.6,55.9L71.5,53.8C75.3,49.7 77.5,44.4 77.7,38.8L83.5,38.8C83.3,45.9 80.5,52.7 75.6,57.8L75.3,57.5C75.4,57.1 75.3,56.6 75.1,56.1M70.3,60.1C70.6,59.6 71.2,58.7 71.5,58.2C71.8,57.7 70.7,57 70.1,56.8C69.5,56.6 69.5,56.3 69.5,55.8C69.8,55.6 70.1,55.3 70.4,55L74.5,59.1C73.1,60.4 71.7,61.5 70.1,62.5C70,62.3 70.7,61.6 70.9,61.3C71.1,61 70.1,60.6 70.3,60.1M72.8,36.2C72.3,35.5 73,35.4 73.7,35.1C74.1,34.9 74.6,35.2 74.6,35C74.6,34.8 74.8,34.4 75,34.3C75.2,34.2 75.5,34 75.6,33.8C75.6,34 75.7,34.2 75.7,34.4C75.5,34.8 75.4,35.1 75.4,35.5C75.4,35.8 75.4,36.2 75.7,35.5C75.7,35.4 75.8,35.4 75.8,35.3C76,36 76,36.6 76,37.2L71.7,37.2L71.7,37.1C72,36.6 73.1,36.7 72.8,36.2M73.6,28C73.6,28 73.6,28.1 73.5,28.1C73.4,28.2 72.9,27.4 72.9,28C72.9,28.6 73.1,28.8 73.5,28.9C73.9,29 73.7,29.2 74,29.3C74.1,29.3 74.3,29.4 74.4,29.5C74.9,30.6 75.2,31.7 75.5,32.9C75.3,33 75.2,33.1 75.1,33.2C74.9,33.4 75,33.8 74.8,34.1C74.5,34.6 74.4,34.9 73.6,34.7C73.1,34.5 73.5,33.9 73.6,33.4C73.7,32.9 73.9,33 73.9,32.7C73.9,32.4 72.9,31.3 72.4,31.7C71.9,32.1 72,32.5 71.6,32.9C71.4,33.1 71.2,33.1 70.9,32.9C70.6,32.7 70.5,32.5 70.6,32.3C70.7,32.1 69.9,31.2 69.6,30.8C69.2,30.3 68.6,30 68,30C67.5,29.1 66.8,28.2 66.1,27.4L70.2,23.3C71.6,24.8 72.7,26.3 73.6,28M66.7,30.8L66.5,31.1C66.4,31.3 65.9,30.9 65.8,31C65.7,31.1 66.5,32.1 65.7,31.8C64.9,31.5 65.4,31.5 65.4,31.2C65.4,30.9 64.7,30.7 65.1,30.5C65.5,30.3 65.1,30 65.5,29.9C65.9,29.8 65.8,29.4 65.3,29.3C64.8,29.2 64.9,30.4 64.6,30.2C64.3,30.1 64,30.1 63.7,30.1L65.1,28.7C65.3,28.8 65.4,28.8 65.6,28.8C65.8,29.6 66.3,30.2 66.7,30.8M65.1,51.1C65.7,51.2 66.4,51.3 67,51.5C67.4,51.7 67.7,52.1 68,51.6C68.6,50.7 69,49.7 69.2,48.6C69.4,47.1 69.1,46.6 68.9,46.6C68.7,46.6 68.3,47 67.9,47C67.7,47 67.7,47.4 67.7,47.7C67.7,48 67.3,48.3 67.2,48.1C67.1,47.9 66.9,48 67,48.2C67.1,48.4 66.2,48.3 65.8,48.1C65.2,47.8 66.5,47.8 67.1,47.3C67.6,46.9 68.1,46.4 68.6,45.9C68.9,45.4 68.9,44.8 69.4,44.4C69.9,44 70.7,44.1 70.8,43.5C70.9,42.9 71,43 71.3,43.1C71.6,43.2 74.4,43 74.4,42.1C74.4,41.7 73.8,41.2 73.2,41.1C72.8,41.1 72.7,40.3 72.5,39.9C72.3,39.5 72.1,39.1 71.8,38.7L76,38.7C75.8,43.8 73.8,48.7 70.3,52.5L70.2,52.4L70.2,52C70.3,51.2 69.7,49.9 69.5,50.1C69.3,50.3 69.5,50.3 68.9,51.2C68.7,51.5 68.4,52 68,52C67.6,52 67.6,51.8 67,51.9C66.5,52 65.9,52 65.4,51.9C64.5,51.6 63.6,51.2 62.7,50.6C62.8,50.5 63.1,50.7 63.1,50.4C63.1,50.1 64.7,51 65.1,51.1M80.8,63.2L76.7,59.1C81.9,53.6 84.9,46.4 85.1,38.9L91,38.9C90.8,48 87.2,56.6 80.8,63.2M91,37.2L85.1,37.2C85,32.9 84,28.7 82.1,24.8L82.2,24.7C82.6,24.3 80.3,21.3 79.9,21C79.5,20.7 79.1,20.2 78.6,19.7C77.8,18.9 77,18 76.4,17.1L80.7,12.8C87.2,19.4 90.8,28.1 91,37.2M55.4,1.6C64.5,1.8 73.2,5.4 79.8,11.7L75.8,15.7C75.6,15.6 75.4,15.5 75.5,15.3C75.7,15 75.2,15 75.1,14.2C74.9,13.4 74.3,12.7 73.6,12.3C73.1,12 72.8,11.6 72.3,11.4C71.8,11.2 70.8,10.6 70.3,10.8C70,10.9 69.6,11 69.3,11C65,8.7 60.3,7.5 55.5,7.4L55.4,1.6ZM55.4,9.1C59.7,9.2 63.8,10.3 67.7,12.2C67.8,12.8 68.1,13.5 68.5,14C68.7,14.5 69,14.9 69.3,15.4C69.6,15.7 69.4,16.3 69.5,16.8C69.5,17 69.7,17.2 69.8,17.4L69.8,18.2C69.8,18.3 70.2,18.3 70.5,18.1C70.8,17.9 71,17.5 71.4,17.6C71.8,17.7 72.3,18.5 72.6,19L70.7,20.9C70.5,20.5 70.3,20 70.4,20C70.5,20 70.7,20.1 70.8,20.1C71.2,20.1 70.5,19.8 70.5,19.7C70.2,19.4 70.2,19 69.8,18.7C69.4,18.4 68.8,18.6 68.6,18.2C68.2,17.5 67.7,16.9 67,16.4C66.9,16.4 67.8,17.5 67.5,17.7C67.2,17.9 66.1,17 66,17.2C65.9,17.4 67.2,17.9 67.6,18.3C67.8,18.5 68.2,19.1 68.6,19.6C64.8,16.7 60.2,15.1 55.4,14.9L55.4,9.1ZM55.4,16.5C60.5,16.7 65.4,18.7 69.2,22.2L65.1,26.3C62.4,23.9 59,22.5 55.4,22.3L55.4,16.5ZM55.4,24C58.6,24.2 61.6,25.4 63.9,27.5L63.7,27.7L63.5,27.6C63,27.4 62,28.4 62.2,28.5C62.4,28.6 62.8,28.1 63,28.2L63.1,28.2L61.4,30C60.9,30.2 60.4,30.6 60.4,30.9L60.4,31L59.8,31.6L59.5,31.3C59,30.9 58.5,30.6 57.9,30.4C58.2,30.2 58.3,29.9 58.4,29.5C58.4,28.9 58.2,29.1 57.9,29.4C57.6,29.7 57.3,29.8 57.1,30.1C56.6,29.9 56,29.8 55.5,29.8L55.5,24L55.4,24ZM54.7,31.4C54.8,31.6 54.7,31.8 54.6,31.9C54.4,32.1 53.8,31.4 53.7,32C53.5,32.6 54.1,32.3 54.1,32.4C54.4,32.8 54.8,33 55.3,33.1C55.7,33.1 56.3,33.1 56.3,33.5C56.3,33.7 56.8,33.7 56.9,33.9C56.9,34.2 57.2,34.7 57.4,34.6C57.6,34.5 57.9,34.7 58,34.9C58.1,35.1 58,35.2 57.9,35.4C57.6,35.7 58.2,35.6 58.3,36.2C58.4,36.8 57.8,36.4 57.7,36.8C57.5,37.1 57.3,37.3 57.1,37.6C57,37.7 57.2,37.9 57.3,37.8C57.4,37.7 57.6,37.4 57.9,37.4C58.2,37.4 58.5,38.5 58.8,38.6C59.1,38.7 59,39.1 59.1,39.2C59.2,39.3 58.6,39.2 58.7,39.4C58.8,39.6 59.4,39.7 59.4,40C59.3,40.3 59.1,40.6 58.7,40.6C58.4,40.6 57.9,39.9 57.9,40.1C57.9,40.3 58.1,40.9 58.4,40.9C58.7,40.9 59.4,40.6 59.1,41C58.8,41.4 58.9,42 58.7,42C58.5,42 58.4,42 58.6,42.3C58.7,42.6 58.6,42.9 58.4,43.2C58.2,43.4 57.7,43.2 57.7,43.1C57.7,43 58.3,43 58.3,42.7C58.3,42.4 58,42.3 57.4,42.5C57.1,42.6 57,42.4 56.8,42.4C56.6,42.4 56,43.1 56,43.2L56,43.7C56,44.1 55.9,44.4 55.7,44.7C55.3,44.8 55,44.8 54.6,44.8C53,44.8 51.4,44.1 50.2,43.1C50.4,43 50.7,42.9 51,42.9C51.3,43 51.4,42.8 51.6,42.7C51.8,42.6 52.3,42.9 52.6,42.7C52.9,42.5 53.6,41.2 53.5,40.9C53.4,40.6 54.2,40.1 54.1,40C54,39.9 53.9,40.1 53.9,40C53.9,39.9 54.1,39.9 53.9,39.5C53.7,39.1 53.4,39.3 53.2,39.3C52.9,39.1 52.4,39 52.3,39.1C52.2,39.2 51.9,38.9 51.8,39C51.7,39 51.5,39.1 51.5,39.3C51.4,39.5 51.6,39.7 51.6,39.9C51.5,40.3 50.9,40.6 50.9,40.9C50.9,41.2 50.6,41 50.5,41.1C50.4,41.2 50.5,41.4 50.3,41.4C50.1,41.4 49.8,41.9 49.6,42.3C49.3,41.9 49,41.4 48.7,41C48.9,40.9 49.1,40.8 49.2,40.9C49.5,41.1 50.7,39 50.5,38.4C50.3,37.8 50,38.2 49.7,38.3C49.4,38.4 49.4,38.1 49.5,38C49.6,37.9 50.9,37.9 50.2,37.5C49.9,37.3 49.1,37.3 49.2,37C49.3,36.7 49.7,37 49.8,37C50.3,37.2 50.6,36.2 50.9,36.2C51.4,36.2 51.2,35.2 50.7,35.5C50.2,35.8 50,35.7 49.8,36C49.6,36.3 49.1,36.7 49.1,36.3C49.1,36.1 50.2,35.5 50.4,35.2C50.6,35 50.8,34.7 50.9,34.4C51,34.1 52.4,33.9 52.7,33.7C52.9,33.5 53.1,33.2 53.1,32.9C53.1,32.6 52.7,32.7 52.6,32.5C52.5,32.3 53.1,32.5 53.1,32.2C53.1,31.9 52.6,32.2 52.4,32C52.4,31.9 52.4,31.9 52.5,31.8C53.4,31.5 54,31.4 54.7,31.4L54.9,31.4M53.8,1.6L53.8,7.4C46.3,7.6 39.1,10.6 33.6,15.8L29.5,11.7C36,5.4 44.7,1.8 53.8,1.6M28.2,12.9L32.3,17C27.1,22.5 24.1,29.7 23.9,37.2L18.1,37.2C18.4,28.1 22,19.4 28.2,12.9" style="fill:rgb(0,158,219);fill-rule:nonzero;"/>
                                    </g>
                                </g>
                            </g>
                        </g>
                    </g>
                </g>
            </g>
        </g>
    </g>
</svg>
