<svg height="31" viewBox="0 0 200 31" width="200" xmlns="http://www.w3.org/2000/svg"><g fill="#fff"><path d="m0 10.3954731c0-1.9319859.4372223-3.6824535 1.31166689-5.24982441.87286617-1.56894932 2.11034733-2.80327364 3.71086505-3.70455137 1.59893931-.90127773 3.41254371-1.35270581 5.43765636-1.35270581 1.7473108 0 3.3288875.34409553 4.7447301 1.033865 1.4142641.68819105 2.5523048 1.61314508 3.4125437 2.77486208.8602388 1.16013859 1.4332052 2.47496232 1.7204776 3.94604961l-5.9948386.84761146s-.3314681-3.41885738-5.11881553-3.54513097c-1.87200594-.05050943-5.14407027 1.68417397-5.48185212 6.38470831-.12627359 1.7583597.59032902 3.4425336 1.66838977 4.5647901 1.07648234 1.123835 4.75262218 3.6130031 9.79409518 1.0433356 3.0400366-1.5500083 5.1330213-4.342233 5.1330213-4.342233-.4356439 2.2287288-1.6810171 4.2759393-3.5167194 5.7186151-1.8357023 1.4426757-3.7440119 2.2018957-6.361032 2.2018957-2.03458317 0-3.85134441-.4498497-5.45186214-1.3527059-1.60051772-.9012777-2.83484203-2.1340236-3.70455137-3.6966592-.86970933-1.5626357-1.30377479-3.319417-1.30377479-5.2719223zm22.8823525 10.0608481v-20.4563212h4.6594954v9.20534453l-.965993-1.15066807c.6250543-.76711204 1.36849-1.37796052 2.2303073-1.83254544.8618172-.45458491 1.8136044-.68187737 2.8553614-.68187737 1.3542843 0 2.4828545.2699098 3.387289.80972938.9044346.53981959 1.5799983 1.24537326 2.0251127 2.11666101.4451144.87128776.6676716 1.80886916.6676716 2.81274416v9.176933h-4.6594954v-7.8700014c0-.8334056-.2414982-1.5105478-.7244947-2.0314263-.4829965-.5208786-1.1601386-.78605309-2.0314263-.79552361-.5871722-.00947051-1.0875313.10733255-1.4994989.34725241-.4119676.2414982-.72923.5887506-.9517872 1.0386002-.2225572.4482713-.3330465.9817772-.3330465 1.5973609v7.7137378zm24.6044085.4261733c-1.3637547 0-2.5854517-.3188408-3.6650909-.9581008-1.0796391-.63926-1.9319859-1.5358025-2.5570401-2.6848922-.6250543-1.150668-.9375814-2.4939033-.9375814-4.0281274 0-1.1554033.1799399-2.2034741.5398196-3.1457908.3598797-.9423166.8618172-1.75046756 1.5058125-2.42287442.6439953-.67240685 1.4016368-1.19012856 2.2729246-1.55474354.8712877-.36461499 1.8183396-.54771169 2.8411557-.54771169 1.3448137 0 2.4907465.29200767 3.4377984.8744446.9470519.58243692 1.624194 1.35586264 2.0314264 2.32185559l-.6392601 1.00861028v-3.77873711h4.0060296v14.48989419h-4.0060296v-3.7787371l.6392601.9944045c-.4072324.9659929-1.0843745 1.7425755-2.0314264 2.3297477-.9470519.5871721-2.0929847.8807582-3.4377984.8807582zm.7955236-4.0060295c.6439953 0 1.2232754-.1483715 1.7394187-.4466928.5161433-.2983214.9265324-.7229163 1.229589-1.2722064s.4545849-1.1980207.4545849-1.9461917c0-.7576415-.1515283-1.4079505-.4545849-1.9540838-.3030566-.5445548-.7134457-.9659929-1.229589-1.26273585-.5161433-.29832135-1.0954234-.44827123-1.7394187-.44827123s-1.221697.14994988-1.733105.44827123c-.511408.29674295-.9186403.71818105-1.2216969 1.26273585-.3030567.5461333-.454585 1.1964423-.454585 1.9540838 0 .748171.1515283 1.3969016.454585 1.9461917.3030566.5492901.7102889.973885 1.2216969 1.2722064.511408.2983213 1.0891097.4466928 1.733105.4466928zm11.9044425 3.5798562v-14.48989419h4.6594953v1.53422409c.5398196-.68187737 1.1790797-1.17907963 1.9177802-1.49160675.7387004-.31252713 1.515283-.4687907 2.3297476-.4687907 1.3637548 0 2.4860113.26833138 3.3667696.8034157.8807582.53508433 1.5310672 1.22643222 1.9525053 2.07404368.4214381.84761145.6329464 1.74415397.6329464 2.69120587v9.3474023h-4.6594954v-7.8842071c0-.8712878-.2304493-1.5579004-.6897695-2.0598379-.4593201-.5019376-1.1333054-.75290631-2.0235342-.75290631-.5682312 0-1.063855.12311675-1.4852931.36935021-.4214381.2462335-.7497494.5950643-.9865124 1.0433356-.236763.451428-.3551445.9644145-.3551445 1.5421161v7.7421494zm25.470961.4261733c-1.5342241 0-2.9058709-.3330466-4.1133621-1.0007181-1.2074912-.6676716-2.1608568-1.5815767-2.8616752-2.7432937-.7008184-1.1601386-1.0512276-2.4686487-1.0512276-3.9271086 0-1.0985802.2051946-2.1119258.6171621-3.0400366.4119676-.92811089.9928261-1.73941869 1.7409971-2.43550185.748171-.69608315 1.6194588-1.23590273 2.6138633-1.61945875.9944045-.38355603 2.0740437-.57612325 3.2389175-.57612325 1.0985802 0 2.116661.14994989 3.0542424.44827124s1.7804576.74501416 2.5286286 1.34165687l-2.0456321 3.45200424c-.4640555-.4261734-.9738851-.7387005-1.5279104-.93758143-.5540254-.1988809-1.1333055-.29832135-1.7394187-.29832135-.7955236 0-1.4821362.14205778-2.0598379.42617335-.5777017.28411553-1.0212376.70081843-1.3290295 1.25010853s-.4608986 1.2074912-.4608986 1.9746032c0 1.1554033.3425171 2.0582595 1.0291297 2.70699.6866127.6487306 1.6320862.9723067 2.8348421.9723067.6818774 0 1.3227158-.1246952 1.9240938-.375664.6013779-.2509687 1.1538249-.6187405 1.6557624-1.101737l1.8893685 3.5230331c-.8144646.6061132-1.7457323 1.0843744-2.7922247 1.4347836-1.0464923.3504092-2.0945631.5256138-3.1457907.5256138zm15.2143889 0c-1.5910472 0-2.9879488-.3188408-4.1907047-.9581008s-2.1403373-1.5358025-2.8127442-2.6848922c-.6724068-1.150668-1.0086103-2.4986386-1.0086103-4.0423332 0-1.1175212.1957241-2.1450726.5887506-3.0826539.3930266-.93758143.9423167-1.74731081 1.6478704-2.42918818.7055536-.68187737 1.5389593-1.2090696 2.500217-1.5831551.9612577-.37408551 2.0203774-.56191747 3.1757812-.56191747 1.269049 0 2.400776.22571404 3.395181.67398528.994404.45142807 1.815182 1.07648233 2.463913 1.87674119s1.097002 1.74257551 1.343235 2.82694998c.246234 1.0843744.255704 2.2602972.028412 3.5293467h-10.8816266c.0094705.5682312.1799399 1.0654334.511408 1.4916068.3314682.4261733.7860531.7607983 1.3637548 1.0007182.5777017.2414982 1.2501088.3630365 2.0172208.3630365.852346 0 1.662076-.1120678 2.429188-.334625.767112-.2209788 1.501077-.5650743 2.201896-1.0291297l1.463195 3.1536828c-.445115.3409387-1.021238.6455737-1.726792.917062-.705553.2699098-1.453724.481418-2.244513.63926-.790788.1546851-1.545273.2336061-2.265032.2336061zm-3.46621-9.5746947h6.165308c-.018941-.72923-.288851-1.31166693-.809729-1.74731081-.520879-.43564387-1.226433-.65346581-2.116661-.65346581-.8996998 0-1.6462924.21782194-2.2381998.65346581-.5919075.43564388-.9249541 1.01808081-1.0007182 1.74731081z"/><path d="m111.299 20.456v-19.888h4.532l7.557 12.544-1.875.014 7.188-12.558h4.518v19.888h-4.575l.086-13.865.838.299-5.739 9.816h-3.14l-5.966-9.816.809-.299.086 13.865z"/><path d="m142.935387 20.8824945c-1.363754 0-2.585451-.3188408-3.66509-.9581008-1.07964-.63926-1.931986-1.5358025-2.557041-2.6848922-.625054-1.150668-.937581-2.4939033-.937581-4.0281274 0-1.1554033.17994-2.2034741.53982-3.1457908.359879-.9423166.861817-1.75046756 1.505812-2.42287442.643995-.67240685 1.401637-1.19012856 2.272925-1.55474354.871287-.36461499 1.818339-.54771169 2.841155-.54771169 1.344814 0 2.490747.29200767 3.437799.8744446.947052.58243692 1.624194 1.35586264 2.031426 2.32185559l-.63926 1.00861028v-3.77873711h4.00603v14.48989419h-4.00603v-3.7787371l.63926.9944045c-.407232.9659929-1.084374 1.7425755-2.031426 2.3297477-.947052.5871721-2.092985.8807582-3.437799.8807582zm.795524-4.0060295c.643995 0 1.223275-.1483715 1.739419-.4466928.516143-.2983214.926532-.7229163 1.229589-1.2722064.303056-.5492901.454585-1.1980207.454585-1.9461917 0-.7576415-.151529-1.4079505-.454585-1.9540838-.303057-.5445548-.713446-.9659929-1.229589-1.26273585-.516144-.29832135-1.095424-.44827123-1.739419-.44827123s-1.221697.14994988-1.733105.44827123c-.511408.29674295-.91864.71818105-1.221697 1.26273585-.303057.5461333-.454585 1.1964423-.454585 1.9540838 0 .748171.151528 1.3969016.454585 1.9461917s.710289.973885 1.221697 1.2722064c.511408.2983213 1.08911.4466928 1.733105.4466928z"/><path d="m155.635 20.456v-20.456h4.66v10.768l4.361-4.802h5.398l-5.071 5.853 5.526 8.637h-5.512l-3.395-5.597-1.307 1.392v4.205z"/><path d="m179.628913 20.8824945c-1.591047 0-2.987948-.3188408-4.190704-.9581008s-2.140337-1.5358025-2.812744-2.6848922c-.672407-1.150668-1.008611-2.4986386-1.008611-4.0423332 0-1.1175212.195724-2.1450726.588751-3.0826539.393027-.93758143.942317-1.74731081 1.64787-2.42918818.705554-.68187737 1.53896-1.2090696 2.500217-1.5831551.961258-.37408551 2.020378-.56191747 3.175781-.56191747 1.26905 0 2.400777.22571404 3.395181.67398528.994405.45142807 1.815183 1.07648233 2.463914 1.87674119.64873.80025886 1.097001 1.74257551 1.343235 2.82694998.246233 1.0843744.255704 2.2602972.028411 3.5293467h-10.881626c.00947.5682312.17994 1.0654334.511408 1.4916068.331468.4261733.786053.7607983 1.363755 1.0007182.577701.2414982 1.250108.3630365 2.01722.3630365.852347 0 1.662076-.1120678 2.429188-.334625.767112-.2209788 1.501078-.5650743 2.201896-1.0291297l1.463195 3.1536828c-.445114.3409387-1.021237.6455737-1.726791.917062-.705554.2699098-1.453725.481418-2.244513.63926-.790788.1546851-1.545273.2336061-2.265033.2336061zm-3.466209-9.5746947h6.165307c-.018941-.72923-.28885-1.31166693-.809729-1.74731081-.520879-.43564387-1.226432-.65346581-2.116661-.65346581-.899699 0-1.646292.21782194-2.238199.65346581-.591908.43564388-.924954 1.01808081-1.000718 1.74731081zm13.481283 9.1485214v-14.48989419h4.659496v1.69048765c.435644-.748171 1.013345-1.29272585 1.733105-1.63366454.719759-.34093868 1.501077-.51140803 2.343953-.51140803.321998 0 .610849.01894104.866553.05682312s.506673.08049941.752906.12785201l-1.619459 4.53164338c-.321997-.1136462-.677142-.127852-1.037022-.127852-.880758 0-1.608409.2525472-2.181376.7607983-.572966.5066728-.85866 1.2469517-.85866 2.2224152v7.3727991z"/><g transform="translate(111.403 23.323)"><path d="m0 7.174v-7.022h4.721v1.679h-2.876v1.264h2.565v1.617h-2.565v2.462z"/><path d="m10.9558121 7.3254465c-.5445548 0-1.04649232-.09312678-1.50423407-.27938032-.45774176-.18467512-.85708198-.44353597-1.19486383-.77500414-.33778184-.33146817-.59822112-.71818103-.78447466-1.16329543-.18625354-.44511439-.27780189-.92653244-.27780189-1.44583257 0-.52087855.09154835-1.00387502.27780189-1.44898942.18625354-.44511439.44669282-.83340568.78447466-1.16329542.33778185-.33146817.73712207-.58875061 1.19486383-.77342573.45774175-.18467512.95967927-.27622347 1.50423407-.27622347.5461333 0 1.0464924.09470519 1.5026557.28095873.4577418.18783196.8555036.44827124 1.1948638.78289624.3393603.33462501.6029564.72291629.78921 1.16645227.1878319.44353598.2809587.92021877.2809587 1.4316268 0 .51930013-.0931268 1.00071818-.2809587 1.44583257-.1862536.4451144-.4498497.83182726-.78921 1.16329543-.3393602.33146817-.737122.59032902-1.1948638.77500414-.4561633.18625354-.9565224.27938032-1.5026557.27938032zm0-1.73152657c.2683314 0 .5129865-.04419576.7355437-.13574411.2225572-.08996993.4151244-.21940036.5792801-.38829128.1641556-.16889092.2920076-.37250708.3819776-.60927006.0899699-.2383414.1357441-.50351593.1357441-.79868044 0-.39460496-.078921-.73554365-.236763-1.0259729-.1562636-.28885083-.3740855-.51140803-.6487306-.66925001-.2762234-.15626357-.5919074-.23518456-.9470519-.23518456-.2635961 0-.5082512.04419575-.7323868.13574411-.22413559.08996993-.41670281.21782193-.58085847.38513444-.16415567.1673125-.29042925.37092866-.37882077.60927006-.08839151.23991981-.13416568.50667277-.13416568.80025886 0 .39460496.07892099.73712206.23676297 1.0259729.15626357.29042925.37250709.51298645.64715215.67082843.274645.15626356.5887506.23518456.9423166.23518456zm9.5573322 1.73152657c-.66925 0-1.2295891-.13258727-1.6825956-.39460497-.4530065-.26201769-.7955236-.62663267-1.0291297-1.09068811-.2320277-.46563385-.3488308-1.00071818-.3488308-1.60525298v-4.08337213h1.8467512v4.1686068c0 .43090862.1057542.75132785.3188408.95967927.2115083.20992984.5114081.31410555.8949641.31410555.3851344 0 .6834558-.10417571.8933856-.31410555.2099299-.20835142.315684-.52877065.315684-.95967927v-4.1686068h1.8562217v4.08337213c0 .60137796-.1152246 1.13488387-.3488308 1.60051772-.2320277.46405544-.5761232.82867042-1.0307081 1.09384495-.4545849.26359612-1.0165024.39618339-1.6857524.39618339z"/><path d="m26.745 7.174v-7.022h1.835l2.674 4.037v-4.037h1.787v7.022h-1.837l-2.674-4.098v4.098z"/><path d="m36.2405196 7.17391819v-7.02238988h2.4796976c.7387005 0 1.3858526.14679304 1.9430348.44353597.5571822.29516451.9896693.70871051 1.2990395 1.23590274.3093703.52877065.4640555 1.13961913.4640555 1.83096702 0 .52245697-.0883915.99913976-.2651745 1.43004838-.1767831.43248703-.4293302.80183728-.7544847 1.11120757-.3267329.30937029-.7166026.5492901-1.172766.71818103-.4545849.16889092-.9596792.25254717-1.5137046.25254717zm1.8467512-1.72047763h.5619175c.2746451 0 .5240354-.03630366.748171-.11048939.2241356-.07260731.4182813-.18625354.5808585-.33778185.1641557-.15310672.2904293-.33936026.3788208-.56191746s.1341657-.48299647.1341657-.78131782c0-.39460496-.078921-.72449471-.2336062-.99282608-.1562635-.26675296-.3709286-.4687907-.6471521-.60137796-.2762235-.13416569-.5966427-.20045932-.9612577-.20045932h-.5619175zm6.3168362 1.72047763 2.5933439-7.02238988h2.1671704l2.5980791 7.02238988h-2.0819358l-.4403791-1.33850003h-2.3739435l-.4356439 1.33850003zm2.8695673-2.87430254h1.5500083l-.7734257-2.21767988z"/><path d="m55.38 7.174v-5.343h-1.84v-1.679h5.537v1.679h-1.84v5.343z"/><path d="m61.642.152h1.847v7.024h-1.847z"/><path d="m70.0202827 7.3254465c-.5461333 0-1.0480708-.09312678-1.5058125-.27938032-.4577418-.18467512-.8555036-.44353597-1.1932854-.77500414-.3377819-.33146817-.5997996-.71818103-.7860531-1.16329543-.1846751-.44511439-.2778019-.92653244-.2778019-1.44583257 0-.52087855.0931268-1.00387502.2778019-1.44898942.1862535-.44511439.4482712-.83340568.7860531-1.16329542.3377818-.33146817.7355436-.58875061 1.1932854-.77342573.4577417-.18467512.9596792-.27622347 1.5058125-.27622347.5445548 0 1.0449139.09470519 1.5010773.28095873.4577417.18783196.8555035.44827124 1.1948638.78289624.3393603.33462501.6029564.72291629.7907883 1.16645227.1862536.44353598.2793803.92021877.2793803 1.4316268 0 .51930013-.0931267 1.00071818-.2793803 1.44583257-.1878319.4451144-.451428.83182726-.7907883 1.16329543s-.7371221.59032902-1.1948638.77500414c-.4561634.18625354-.9565225.27938032-1.5010773.27938032zm0-1.73152657c.2667529 0 .511408-.04419576.7339652-.13574411.2225572-.08996993.4151244-.21940036.5792801-.38829128s.2920077-.37250708.3819776-.60927006c.0899699-.2383414.1357441-.50351593.1357441-.79868044 0-.39460496-.078921-.73554365-.236763-1.0259729-.1562635-.28885083-.3740855-.51140803-.6487305-.66925001-.2762235-.15626357-.5919075-.23518456-.9454735-.23518456-.2651745 0-.5098296.04419575-.7339652.13574411-.2225572.08996993-.4167029.21782193-.5808585.38513444-.1641557.1673125-.2904293.37092866-.3788208.60927006-.0883915.23991981-.1325873.50667277-.1325873.80025886 0 .39460496.0773426.73712206.2351846 1.0259729.157842.29042925.3725071.51298645.6471521.67082843.2746451.15626356.5887506.23518456.9438951.23518456z"/><path d="m76.552 7.174v-7.022h1.835l2.674 4.037v-4.037h1.787v7.022h-1.837l-2.674-4.098v4.098z"/></g></g></svg>