<svg xmlns="http://www.w3.org/2000/svg" width="814" height="159" viewBox="0 0 814 159" fill="none"><g clip-path="url(#clip0_1_46)"><path d="M85.2099 104.46L99.0199 139.07C99.6899 140.75 99.2899 142.65 98.0199 143.93L84.2099 157.68C82.4399 159.44 79.5799 159.44 77.7999 157.68L63.9899 143.93C62.7099 142.66 62.3099 140.75 62.9799 139.07L76.7899 104.46C78.2999 100.67 83.6999 100.67 85.2099 104.46Z" fill="#E8E200"></path><path d="M66.61 100.78L54.85 136.13C54.28 137.84 52.75 139.05 50.94 139.21L31.49 140.9C29 141.12 26.8 139.28 26.59 136.8L24.89 117.43C24.73 115.64 25.66 113.92 27.25 113.07L60.17 95.39C63.78 93.45 67.91 96.9 66.62 100.78" fill="#E8E200"></path><path d="M54.74 86.04L22.9 105.59C21.36 106.53 19.4 106.48 17.92 105.44L1.91998 94.29C-0.130024 92.86 -0.630024 90.05 0.809976 88.01L12.01 72.08C13.05 70.61 14.86 69.88 16.64 70.25L53.27 77.78C57.28 78.6 58.22 83.89 54.73 86.04" fill="#E8E200"></path><path d="M55.1599 67.15L18.1599 61.75C16.3699 61.49 14.9099 60.2 14.4399 58.45L9.38993 39.67C8.73993 37.26 10.1699 34.79 12.5899 34.14L31.4499 29.11C33.1999 28.65 35.0499 29.26 36.1699 30.67L59.3699 59.88C61.9099 63.08 59.2099 67.73 55.1599 67.14" fill="#E8E200"></path><path d="M67.6699 52.95L42.8099 25.13C41.6099 23.79 41.3199 21.86 42.0899 20.22L50.3399 2.61C51.3899 0.359995 54.0899 -0.630004 56.3599 0.429996L74.0599 8.64999C75.6999 9.40999 76.7199 11.07 76.6799 12.87L75.5899 50.1C75.4699 54.18 70.3999 56.02 67.6799 52.96L67.6699 52.95Z" fill="#E8E200"></path><path d="M86.42 50.09L85.33 12.86C85.28 11.06 86.3 9.4 87.95 8.64L105.65 0.430002C107.91 -0.619998 110.61 0.360001 111.67 2.61L119.92 20.23C120.68 21.87 120.4 23.79 119.2 25.14L94.34 52.96C91.61 56.01 86.54 54.17 86.43 50.1" fill="#E8E200"></path><path d="M102.64 59.9L125.84 30.69C126.96 29.28 128.82 28.66 130.56 29.13L149.42 34.16C151.84 34.8 153.27 37.28 152.62 39.69L147.57 58.47C147.1 60.21 145.64 61.51 143.85 61.77L106.85 67.17C102.79 67.76 100.1 63.11 102.64 59.91V59.9Z" fill="#E8E200"></path><path d="M108.73 77.78L145.36 70.25C147.13 69.88 148.95 70.61 149.99 72.08L161.19 88.01C162.63 90.05 162.13 92.86 160.08 94.29L144.08 105.44C142.6 106.47 140.64 106.53 139.1 105.59L107.26 86.04C103.77 83.9 104.71 78.61 108.72 77.78" fill="#E8E200"></path><path d="M101.85 95.38L134.77 113.06C136.36 113.92 137.29 115.63 137.13 117.42L135.43 136.79C135.21 139.27 133.01 141.1 130.53 140.89L111.08 139.2C109.28 139.05 107.75 137.83 107.17 136.12L95.41 100.76C94.12 96.88 98.25 93.44 101.86 95.37" fill="#E8E200"></path><path d="M186.01 33.61H211.62L236.84 100.43L261.28 33.61H286.37V124.61H267.78V63.64L244.12 124.61H228.26L204.6 63.64V124.61H186.01V33.61Z" fill="#E8E200"></path><path d="M293.04 91.33C293.04 70.53 306.69 57.01 327.36 57.01C348.03 57.01 360.9 69.49 361.16 89.12C361.16 91.07 361.03 93.28 360.64 95.36H312.15V96.27C312.54 105.76 318.65 111.48 327.88 111.48C335.29 111.48 340.49 108.23 342.05 101.99H360.12C358.04 114.99 346.47 125.39 328.66 125.39C306.43 125.39 293.04 112 293.04 91.33ZM342.7 83.4C341.4 75.21 335.81 70.66 327.49 70.66C319.17 70.66 313.58 75.47 312.54 83.4H342.7Z" fill="#E8E200"></path><path d="M375.46 73.26H364.41V57.79H375.46V39.07H393.79V57.79H409.13V73.26H393.79V102.51C393.79 107.19 395.61 109.14 400.42 109.14H409.52V124.61H394.57C381.83 124.61 375.46 118.24 375.46 105.5V73.26Z" fill="#E8E200"></path><path d="M483.37 109.14V124.61H474.01C464.52 124.61 461.53 120.06 461.66 113.69C456.98 121.1 450.22 125.39 439.82 125.39C425.39 125.39 414.99 118.5 414.99 105.76C414.99 91.59 425.65 83.53 445.67 83.53H458.93V80.28C458.93 74.3 454.64 70.4 446.97 70.4C439.82 70.4 435.01 73.65 434.23 78.59H416.55C417.85 65.59 429.81 57.01 447.49 57.01C466.21 57.01 477 65.33 477 81.32V104.98C477 108.49 478.43 109.14 481.29 109.14H483.37ZM458.93 95.75H445.54C437.87 95.75 433.45 98.87 433.45 104.46C433.45 109.14 437.22 112.13 443.33 112.13C452.95 112.13 458.8 106.15 458.93 97.05V95.75Z" fill="#E8E200"></path><path d="M490.51 33.61H508.84V124.61H490.51V33.61Z" fill="#E8E200"></path><path d="M597.2 33.61H615.53V124.61H597.2V33.61Z" fill="#E8E200"></path><path d="M691.97 109.14V124.61H682.61C673.12 124.61 670.13 120.06 670.26 113.69C665.58 121.1 658.82 125.39 648.42 125.39C633.99 125.39 623.59 118.5 623.59 105.76C623.59 91.59 634.25 83.53 654.27 83.53H667.53V80.28C667.53 74.3 663.24 70.4 655.57 70.4C648.42 70.4 643.61 73.65 642.83 78.59H625.15C626.45 65.59 638.41 57.01 656.09 57.01C674.81 57.01 685.6 65.33 685.6 81.32V104.98C685.6 108.49 687.03 109.14 689.89 109.14H691.97ZM667.53 95.75H654.14C646.47 95.75 642.05 98.87 642.05 104.46C642.05 109.14 645.82 112.13 651.93 112.13C661.55 112.13 667.4 106.15 667.53 97.05V95.75Z" fill="#E8E200"></path><path d="M763.99 87.56V124.61H745.66V89.38C745.66 78.07 741.37 72.09 732.14 72.09C722.91 72.09 717.19 78.85 717.19 90.42V124.61H698.86V57.79H714.85L716.54 66.11C720.83 60.91 726.94 57.01 737.21 57.01C751.64 57.01 763.99 64.68 763.99 87.56Z" fill="#E8E200"></path><path d="M779.85 73.26H768.8V57.79H779.85V39.07H798.18V57.79H813.52V73.26H798.18V102.51C798.18 107.19 800 109.14 804.81 109.14H813.91V124.61H798.96C786.22 124.61 779.85 118.24 779.85 105.5V73.26Z" fill="#E8E200"></path><path d="M589.04 90.82C589.04 111.94 575.84 125.4 557.62 125.4C548.25 125.4 541.52 121.57 537.16 116.03V151.01H518.55V56.76H534.79L536.64 66.13C541 60.32 547.86 55.97 557.5 55.97C575.85 55.84 589.05 69.43 589.05 90.82H589.04ZM570.16 90.56C570.16 79.08 563.56 71.16 553.4 71.16C543.24 71.16 536.9 79.08 536.9 90.56C536.9 102.04 543.24 110.23 553.4 110.23C563.56 110.23 570.16 102.18 570.16 90.56Z" fill="#E8E200"></path></g><defs><clipPath id="clip0_1_46"><rect width="813.91" height="159" fill="white"></rect></clipPath></defs></svg>