<svg width="122" height="29" viewBox="0 0 122 29" fill="none" xmlns="http://www.w3.org/2000/svg"><title>The Drop</title><g clip-path="url(#clip0_4820_6655)"><path d="M59.1946 9.45157C59.1946 6.84183 58.138 4.47967 56.4293 2.76994C54.7207 1.06021 52.3571 0 49.749 0L30.8579 0V9.45157H40.3035V18.9031H30.8579V28.3547H40.3035L41.7589 18.9031H48.2936L49.749 28.3547H59.1946V18.9031H49.752C54.9681 18.9002 59.1946 14.6681 59.1946 9.45157ZM49.0097 14.374C49.0097 16.5759 47.2254 18.3614 45.0248 18.3614C42.8242 18.3614 41.0428 16.5759 41.0428 14.374V4.52918C41.0428 2.32721 42.8242 0.541754 45.0248 0.541754C46.1251 0.541754 47.1206 0.98739 47.8425 1.70973C48.5643 2.43207 49.0097 3.4282 49.0097 4.52918V14.374Z" fill="#06b6d4"></path><rect x="30.6748" y="18.9055" width="8.1731" height="9.44986" fill="#06b6d4"></rect><rect x="30.6748" width="8.1731" height="9.44986" fill="#06b6d4"></rect><path d="M118.938 2.79728C117.226 1.08464 114.865 0.0273438 112.257 0.0273438L93.3662 0.0273438V9.47891H102.812V18.9305H93.3662V28.3821H102.812L104.267 18.9305H112.257C114.865 18.9305 117.226 17.8732 118.938 16.1605C120.649 14.4479 121.703 12.0887 121.703 9.47891C121.703 6.86917 120.646 4.50701 118.938 2.79728V2.79728ZM117.701 7.81579L110.651 16.6674C109.28 18.3887 106.773 18.6742 105.05 17.3023C103.33 15.9275 103.048 13.4197 104.419 11.6984L111.469 2.8468C112.84 1.1225 115.346 0.839975 117.066 2.21184C118.053 2.99825 118.568 4.1604 118.568 5.3342C118.568 6.20509 118.286 7.0818 117.701 7.81579Z" fill="#06b6d4"></path><path d="M62.0464 28.3547V0L66.8114 0V10.1914C64.6108 10.1914 62.8294 11.9768 62.8294 14.1788C62.8294 16.3808 64.6108 18.1633 66.8114 18.1633V28.3547H62.0464Z" fill="#06b6d4"></path><path d="M90.5571 28.3816V0.0268555L85.7921 0.0268555V10.2182C87.9927 10.2182 89.7741 12.0037 89.7741 14.2057C89.7741 16.4076 87.9927 18.1902 85.7921 18.1902V28.3816H90.5571Z" fill="#06b6d4"></path><rect x="64.5439" width="23.9225" height="10.2245" fill="#06b6d4"></rect><rect x="64.9839" y="18.1572" width="25.1565" height="10.1892" fill="#06b6d4"></rect><path d="M24.1859 4.15078C21.6215 1.58764 18.079 0.000244141 14.1669 0.000244141L0 0.000244141L0 7.99549L9.44557 9.45181L9.44557 18.9034L0 20.651L0 28.355H14.1669C21.9911 28.355 28.3367 22.0054 28.3367 14.1761C28.3367 10.2615 26.7503 6.71683 24.1859 4.15078V4.15078ZM18.1518 23.6277C18.1518 25.8297 16.3675 27.6151 14.1669 27.6151C11.9663 27.6151 10.1849 25.8297 10.1849 23.6277L10.1849 4.72457C10.1849 2.5226 11.9663 0.737146 14.1669 0.737146C15.2672 0.737146 16.2627 1.18278 16.9846 1.90512C17.7064 2.62746 18.1518 3.62359 18.1518 4.72457V23.6277Z" fill="#06b6d4"></path></g><defs><clipPath id="clip0_4820_6655"><rect width="121.817" height="28.3578" fill="white"></rect></clipPath></defs></svg>