<?xml version="1.0" encoding="UTF-8" standalone="no"?>
<!DOCTYPE svg PUBLIC "-//W3C//DTD SVG 1.1//EN" "http://www.w3.org/Graphics/SVG/1.1/DTD/svg11.dtd">
<svg width="100%" height="100%" viewBox="0 0 1222 1227" version="1.1" xmlns="http://www.w3.org/2000/svg" xmlns:xlink="http://www.w3.org/1999/xlink" xml:space="preserve" xmlns:serif="http://www.serif.com/" style="fill-rule:evenodd;clip-rule:evenodd;stroke-linejoin:round;stroke-miterlimit:2;">
    <g transform="matrix(1,0,0,1,1273.41,-38.2335)">
        <g transform="matrix(0.9895,0,0,0.9895,-3731.06,-8621.52)">
            <g transform="matrix(1.01337,0,0,0.860553,2421.66,8727.52)">
                <g>
                    <path d="M670.578,1463.11c-146.07,0 -294.235,-15.968 -440.367,-47.432c-66.205,-14.239 -116.78,-73.777 -128.878,-151.714c-53.452,-344.015 -53.452,-692.851 0,-1036.83c12.098,-77.936 62.673,-137.475 128.847,-151.714c146.163,-31.425 294.328,-47.395 440.398,-47.395c146.069,0 294.234,15.97 440.364,47.432c66.203,14.24 116.785,73.777 128.882,151.714c53.452,344.016 53.452,692.851 0,1036.83c-12.097,77.937 -62.679,137.474 -128.848,151.713c-146.164,31.424 -294.329,47.392 -440.398,47.392Z" style="fill:url(#_Linear1);"/>
                </g>
            </g>
            <g transform="matrix(1,0,0,1,3.06079,2.44078)">
                <g transform="matrix(11.6311,0,0,11.6258,2353.75,8627.78)">
                    <path d="M64,117.105c-12.727,0 -25.636,-1.182 -38.367,-3.511c-5.769,-1.054 -10.175,-5.461 -11.229,-11.23c-4.657,-25.464 -4.657,-51.286 -0,-76.747c1.054,-5.769 5.46,-10.176 11.226,-11.23c12.734,-2.326 25.643,-3.508 38.37,-3.508c12.726,-0 25.635,1.182 38.367,3.511c5.768,1.054 10.175,5.461 11.229,11.23c4.657,25.464 4.657,51.285 0,76.747c-1.054,5.769 -5.461,10.176 -11.226,11.23c-12.735,2.326 -25.644,3.508 -38.37,3.508Zm-0,-2.26c12.185,-0 24.544,-1.132 36.737,-3.359c5.52,-1.009 9.739,-5.228 10.749,-10.752c4.458,-24.378 4.458,-49.101 -0,-73.482c-1.01,-5.523 -5.229,-9.742 -10.752,-10.752c-12.19,-2.229 -24.549,-3.361 -36.734,-3.361c-12.185,-0 -24.545,1.132 -36.737,3.359c-5.521,1.009 -9.739,5.228 -10.749,10.752c-4.458,24.378 -4.458,49.1 0,73.481c1.01,5.524 5.228,9.743 10.751,10.752c12.19,2.23 24.55,3.362 36.735,3.362Z" style="fill:#19141d;"/>
                </g>
                <g transform="matrix(10.8507,0,0,10.8457,2403.7,8677.7)">
                    <path d="M64,117.105c-12.727,0 -25.636,-1.182 -38.368,-3.511c-5.768,-1.054 -10.174,-5.461 -11.228,-11.23c-4.657,-25.464 -4.657,-51.286 -0,-76.747c1.054,-5.769 5.46,-10.176 11.226,-11.23c12.734,-2.326 25.643,-3.508 38.37,-3.508c12.726,-0 25.635,1.182 38.367,3.511c5.768,1.054 10.175,5.461 11.229,11.23c4.657,25.464 4.657,51.285 0,76.747c-1.054,5.769 -5.461,10.176 -11.226,11.23c-12.735,2.326 -25.644,3.508 -38.37,3.508Zm-0,-2.653c12.091,-0 24.355,-1.123 36.453,-3.333c5.477,-1.001 9.664,-5.188 10.665,-10.669c4.425,-24.19 4.425,-48.721 0,-72.913c-1.001,-5.481 -5.188,-9.668 -10.668,-10.669c-12.095,-2.213 -24.359,-3.336 -36.45,-3.336c-12.091,-0 -24.355,1.123 -36.453,3.333c-5.478,1.001 -9.664,5.188 -10.666,10.669c-4.424,24.19 -4.424,48.721 0,72.913c1.002,5.481 5.188,9.668 10.668,10.669c12.096,2.213 24.36,3.336 36.451,3.336Z" style="fill:#2c2334;"/>
                </g>
                <g transform="matrix(9.99403,0,0,9.98944,2458.53,8732.49)">
                    <path d="M11.39,78.22c-1.181,-17.55 -0.176,-35.161 3.014,-52.603c1.054,-5.769 5.46,-10.176 11.226,-11.23c12.734,-2.326 25.643,-3.508 38.37,-3.508c12.726,-0 25.635,1.182 38.367,3.511c1.556,0.284 3.014,0.813 4.333,1.546c-0.632,3.602 -1.841,6.941 -3.579,10.133c-0.411,0.712 -0.112,1.835 0.599,2.247c0.711,0.412 1.833,0.112 2.245,-0.599c1.597,-2.97 2.788,-6.208 3.588,-9.673c2.059,1.979 3.499,4.596 4.043,7.576c3.274,17.902 4.246,35.982 2.917,53.988l-67.316,0c0.323,-0.366 0.472,-0.89 0.279,-1.472c-0.165,-0.822 -1.151,-1.479 -1.972,-1.315c-5.586,1.151 -22.533,1.315 -22.533,1.315c-0.401,0 -0.747,0.109 -1.017,0.304c-0.689,0.344 -1.163,1.056 -1.163,1.879l0,1.475c0,1.156 0.938,2.096 2.094,2.098c0.062,0.006 0.125,0.009 0.19,0.009c-0,-0 20.725,-0 29.434,3.287c0.985,0.329 1.807,-0.164 2.136,-0.986c0.328,-0.822 -0.165,-1.808 -0.986,-2.137c-0.767,-0.283 -1.612,-0.542 -2.516,-0.78l63.066,-0c-0.582,6.375 -1.453,12.74 -2.613,19.082c-1.054,5.769 -5.461,10.176 -11.226,11.23c-4.966,0.907 -9.958,1.64 -14.955,2.197c0.118,-0.337 0.14,-0.702 0.031,-1.021c-1.857,-4.925 -4.853,-9.528 -8.835,-13.76c-0.628,-0.723 -1.668,-0.715 -2.39,-0.085c-0.258,0.261 -0.309,0.417 -0.41,0.73c-0.203,0.625 -0.043,1.196 0.324,1.661c3.821,3.661 6.451,7.8 8.201,12.516c0.032,0.093 0.075,0.183 0.127,0.267c-6.837,0.667 -13.676,1.003 -20.463,1.003c-12.727,-0 -25.636,-1.182 -38.368,-3.511c-5.768,-1.054 -10.174,-5.461 -11.228,-11.23c-1.123,-6.14 -1.975,-12.3 -2.556,-18.472l7.072,0c1.157,0 2.097,-0.94 2.097,-2.098l0,-1.475c0,-1.159 -0.94,-2.099 -2.097,-2.099l-7.53,-0Zm65.941,-16.893c-0.698,0.434 -0.962,1.566 -0.528,2.264c0.434,0.698 1.565,0.962 2.262,0.528c4.378,-2.917 8.188,-6.874 11.414,-11.706c0.562,-0.776 0.321,-1.788 -0.454,-2.35c-0.313,-0.193 -0.477,-0.207 -0.804,-0.236c-0.655,-0.057 -1.175,0.227 -1.545,0.69c-2.706,4.549 -6.145,8.043 -10.345,10.81Zm-23.517,13.318c-1.038,0.266 -1.721,1.31 -1.367,2.088c0.355,0.777 1.748,1.289 2.786,1.023c6.571,-1.857 13.191,-4.385 18.364,-8.838c0.937,-0.807 0.636,-1.959 -0.193,-2.692c-0.991,-0.878 -2.316,-0.23 -2.885,0.215c-4.887,3.822 -10.41,6.453 -16.705,8.204Zm18.275,24.706c0.493,0.657 1.644,0.822 2.301,0.329c0.657,-0.493 0.821,-1.644 0.328,-2.301c-3.286,-4.109 -7.558,-7.561 -12.651,-10.355c-0.822,-0.493 -1.808,-0.165 -2.301,0.657c-0.164,0.329 -0.164,0.493 -0.164,0.822c0,0.657 0.329,1.151 0.822,1.479c4.765,2.301 8.544,5.424 11.665,9.369Zm20.492,-54.725c-0.572,0.59 -0.554,1.752 0.035,2.324c0.59,0.573 1.752,0.555 2.324,-0.035c3.542,-3.89 6.281,-8.651 8.244,-14.121c0.358,-0.889 -0.121,-1.812 -1.01,-2.17c-0.351,-0.111 -0.512,-0.086 -0.837,-0.034c-0.649,0.103 -1.084,0.504 -1.332,1.043c-1.526,5.068 -4.018,9.291 -7.424,12.993Z" style="fill:#19141d;"/>
                </g>
            </g>
        </g>
    </g>
    <defs>
        <linearGradient id="_Linear1" x1="0" y1="0" x2="1" y2="0" gradientUnits="userSpaceOnUse" gradientTransform="matrix(1030.86,1098.91,-933.189,1213.92,116.335,148.479)"><stop offset="0" style="stop-color:#22a6b5;stop-opacity:1"/><stop offset="0.27" style="stop-color:#9138e0;stop-opacity:1"/><stop offset="0.6" style="stop-color:#d9233b;stop-opacity:1"/><stop offset="0.78" style="stop-color:#f59c48;stop-opacity:1"/><stop offset="1" style="stop-color:#e8a059;stop-opacity:1"/></linearGradient>
    </defs>
</svg>
