<?xml version="1.0" encoding="UTF-8" standalone="no"?>
<!DOCTYPE svg PUBLIC "-//W3C//DTD SVG 1.1//EN" "http://www.w3.org/Graphics/SVG/1.1/DTD/svg11.dtd">
<svg width="100%" height="100%" viewBox="0 0 1454 1454" version="1.1" xmlns="http://www.w3.org/2000/svg" xmlns:xlink="http://www.w3.org/1999/xlink" xml:space="preserve" xmlns:serif="http://www.serif.com/" style="fill-rule:evenodd;clip-rule:evenodd;stroke-linejoin:round;stroke-miterlimit:2;">
    <g transform="matrix(1,0,0,1,84.0521,3361.23)">
        <g transform="matrix(1,0,0,1,-2375.43,1062)">
            <g transform="matrix(1,0,0,1,370.187,-1136.25)">
                <g transform="matrix(2.97223,0,0,2.97223,1921.19,-3286.98)">
                    <path d="M244.5,0C379.531,-0 489,109.469 489,244.5C489,379.531 379.531,489 244.5,489C109.469,489 0,379.531 0,244.5C0,109.469 109.469,0 244.5,0ZM244.663,436.592C228.546,436.714 219.639,442.831 208.323,449.904C199.945,455.141 190.223,460.88 176.297,463.695C197.86,470.397 220.824,474 244.5,474C268.226,474 291.237,470.382 312.841,463.652C299.031,460.824 289.364,455.119 281.019,449.904C269.703,442.833 260.789,436.714 244.663,436.592ZM318.606,402.45C297.211,411.956 289.953,417.277 283.291,421.55C280.366,423.426 276.843,425.555 272.244,427.603C278.561,430.503 284.447,434.36 288.968,437.185C299.915,444.025 311.178,450.5 332.197,450.5L345.778,450.5C365.922,440.578 384.509,427.716 400.844,412.509C366.777,419.526 340.364,412.911 318.606,402.45ZM170.747,402.451C148.892,412.961 122.339,419.59 88.048,412.408C104.409,427.659 123.033,440.556 143.222,450.5L157.16,450.5C178.192,450.5 189.457,444.007 200.372,437.185C204.946,434.325 210.782,430.501 217.093,427.603C212.443,425.532 208.879,423.365 206.048,421.549C199.388,417.276 192.137,411.958 170.747,402.451ZM244.664,362.571C236.078,363.456 227.278,367.796 217.886,373.587C212.687,376.792 206.436,381.015 201.666,384.186C198.343,386.394 192.711,390.12 187.132,393.499C201.972,400.652 208.52,405.313 214.147,408.924C220.268,412.85 225.744,415.86 244.664,420.993C263.58,415.863 269.062,412.855 275.192,408.923C280.822,405.312 287.372,400.651 302.216,393.498C296.401,389.979 290.418,386.007 287.679,384.187C282.86,380.985 276.653,376.793 271.453,373.588C262.074,367.806 253.263,363.458 244.664,362.571ZM140.131,359.476L140.16,360.5C140.16,370.703 131.863,379 121.66,379C111.457,379 103.16,370.703 103.16,360.5C103.16,360.355 103.16,359.591 103.248,358.685C77.392,343.757 51.536,328.828 25.681,313.9C34.828,342.769 49.552,369.208 68.589,391.902C72.76,393.02 81.199,395.282 81.199,395.282C122.952,407.077 151.861,396.682 175.832,382.764C182.079,379.137 188.118,375.179 193.363,371.693C198.121,368.531 204.535,364.197 210.013,360.819C220.451,354.383 232.036,348.419 244.626,347.52L244.663,348.046L244.701,347.52C257.289,348.418 268.874,354.377 279.324,360.818C284.806,364.197 291.239,368.543 295.979,371.692C301.265,375.204 307.279,379.142 313.518,382.764C337.496,396.682 366.417,407.077 408.187,395.282L408.234,395.269L408.283,395.256C412.288,394.182 416.293,393.109 420.298,392.035C439.327,369.385 454.057,342.999 463.229,314.185C437.528,329.018 411.828,343.852 386.127,358.685C386.216,359.601 386.216,360.355 386.216,360.5C386.216,370.703 377.916,379 367.709,379C357.502,379 349.203,370.703 349.203,360.5L349.231,359.474C318.034,342.009 286.838,324.544 255.641,307.079C252.755,308.932 249.294,310 245.66,310C241.629,310 237.834,308.685 234.786,306.467C203.234,324.137 171.683,341.806 140.131,359.476ZM255.234,234.68C252.242,236.769 248.56,238 244.66,238C240.761,238 237.08,236.77 234.09,234.684C219.772,242.65 205.455,250.616 191.137,258.582L191.16,259.5C191.16,269.703 182.863,278 172.66,278C168.893,278 165.321,276.851 162.381,274.883C154.968,279.163 147.555,283.443 140.142,287.723L140.16,288.5C140.16,298.703 131.863,307 121.66,307C116.331,307 111.455,304.703 108.089,301.07C104.456,297.703 102.16,292.829 102.16,287.5L102.179,286.679C93.341,281.576 84.502,276.473 75.664,271.37C72.594,273.646 68.749,275 64.66,275C54.457,275 46.16,266.703 46.16,256.5C46.16,256.332 46.16,255.452 46.278,254.404C35.899,248.412 25.519,242.419 15.14,236.427C15,240.466 15,243.854 15,244.5C15,261.251 16.803,277.662 20.228,293.432C50.367,310.833 80.507,328.235 110.646,345.636C113.717,343.356 117.565,342 121.66,342C126.034,342 130.119,343.547 133.29,346.113C164.615,328.57 195.941,311.028 227.266,293.485C227.249,293.327 227.16,292.498 227.16,291.5C227.16,281.297 235.457,273 245.66,273C255.863,273 264.16,281.297 264.16,291.5C264.16,293.022 263.952,294.282 263.913,294.521C294.633,311.719 325.354,328.916 356.074,346.114C359.246,343.548 363.334,342 367.709,342C371.805,342 375.655,343.356 378.728,345.636C408.723,328.324 438.718,311.012 468.713,293.7C472.176,277.845 474,261.342 474,244.5C474,243.872 474,240.592 473.867,236.656C463.617,242.572 453.366,248.487 443.116,254.403C443.235,255.454 443.235,256.332 443.235,256.5C443.235,266.703 434.935,275 424.729,275C420.636,275 416.789,273.645 413.719,271.37C404.878,276.473 396.037,281.575 387.196,286.678L387.216,287.5C387.216,292.827 384.921,297.7 381.289,301.066C377.922,304.701 373.043,307 367.709,307C357.502,307 349.203,298.703 349.203,288.5L349.221,287.723C341.805,283.443 334.39,279.163 326.974,274.883C324.035,276.85 320.462,278 316.691,278C306.485,278 298.185,269.703 298.185,259.5L298.207,258.579C283.883,250.613 269.558,242.646 255.234,234.68ZM401.086,136.267C401.221,137.39 401.221,138.321 401.221,138.5C401.221,148.703 392.921,157 382.714,157C378.573,157 374.683,155.613 371.595,153.288C359.422,160.314 347.248,167.339 335.075,174.365C335.198,175.429 335.198,176.329 335.198,176.5C335.198,184.228 330.435,190.872 323.69,193.629L323.69,242.37C330.435,245.127 335.198,251.772 335.198,259.5C335.198,260.86 335.033,261.983 335.002,262.197C341.945,266.204 348.887,270.211 355.83,274.218C359.15,270.999 363.737,269 368.71,269C373.152,269 377.296,270.594 380.488,273.23C389.096,268.262 397.704,263.294 406.312,258.326C406.223,257.404 406.223,256.646 406.223,256.5C406.223,246.297 414.522,238 424.729,238C428.723,238 432.487,239.291 435.52,241.47C447.916,234.316 460.311,227.161 472.707,220.007C468.68,182.047 455.382,146.797 435.105,116.633C423.765,123.178 412.426,129.722 401.086,136.267ZM54.003,116.47C33.705,146.611 20.378,181.841 16.315,219.784C28.835,227.012 41.354,234.241 53.873,241.469C56.904,239.29 60.666,238 64.66,238C74.864,238 83.16,246.297 83.16,256.5C83.16,256.646 83.16,257.408 83.07,258.325C91.676,263.293 100.281,268.261 108.886,273.229C112.077,270.594 116.219,269 120.66,269C125.63,269 130.213,270.999 133.533,274.217C140.474,270.21 147.414,266.203 154.355,262.196C154.16,260.855 154.16,259.716 154.16,259.5C154.16,251.773 158.92,245.129 165.661,242.371L165.661,193.628C158.92,190.87 154.16,184.227 154.16,176.5C154.16,176.329 154.16,175.443 154.283,174.365C142.114,167.339 129.944,160.314 117.775,153.288C114.687,155.613 110.8,157 106.66,157C96.457,157 88.16,148.703 88.16,138.5C88.16,137.379 88.273,136.446 88.294,136.268C76.864,129.669 65.433,123.069 54.003,116.47ZM255.692,150.348C254.042,151.577 252.465,152.278 252.166,152.411L252.166,202.586C258.658,205.472 263.16,211.995 263.16,219.5C263.16,220.68 263.037,221.656 263.013,221.842C277,229.621 290.988,237.401 304.975,245.18C306.695,243.771 308.372,242.966 308.69,242.813L308.69,193.186C302.461,190.195 298.185,183.813 298.185,176.5C298.185,175.704 298.242,175.039 298.253,174.912C284.066,166.724 269.879,158.536 255.692,150.348ZM191.091,174.912C191.16,175.734 191.16,176.373 191.16,176.5C191.16,183.812 186.887,190.194 180.661,193.185L180.661,242.814C180.978,242.967 182.653,243.772 184.371,245.179C198.35,237.402 212.329,229.625 226.308,221.848C226.284,221.661 226.16,220.687 226.16,219.5C226.16,211.992 230.665,205.467 237.161,202.583L237.161,152.416C236.862,152.283 235.287,151.584 233.631,150.353C219.451,158.539 205.271,166.726 191.091,174.912ZM191.091,81.911C191.16,82.733 191.16,83.373 191.16,83.5C191.16,90.812 186.887,97.194 180.66,100.185L180.66,159.814C180.93,159.944 182.354,160.629 183.853,161.771C197.984,153.612 212.116,145.454 226.247,137.295C226.16,136.393 226.16,135.644 226.16,135.5C226.16,130.171 228.456,125.295 232.089,121.929C233.514,120.391 235.296,119.032 237.16,118.065L237.16,59.415C236.861,59.282 235.286,58.583 233.63,57.352C219.45,65.538 205.271,73.725 191.091,81.911ZM255.694,57.349C255.432,57.544 254.046,58.576 252.167,59.411L252.167,117.177C259.167,119.808 264.16,126.586 264.16,134.5C264.16,134.761 264.16,136.131 263.873,137.75C277.747,145.757 291.62,153.764 305.494,161.771C306.997,160.627 308.421,159.943 308.691,159.813L308.691,100.186C302.461,97.195 298.185,90.813 298.185,83.5C298.185,82.703 298.242,82.038 298.253,81.911C284.067,73.724 269.88,65.536 255.694,57.349ZM335.074,81.362C335.198,82.436 335.198,83.329 335.198,83.5C335.198,91.228 330.436,97.872 323.691,100.629L323.691,159.37C324.009,159.5 325.69,160.187 327.45,161.446C339.728,154.36 352.007,147.274 364.285,140.188C364.208,139.332 364.208,138.635 364.208,138.5C364.208,128.297 372.507,120.001 382.714,120C386.661,120 390.383,121.259 393.393,123.389C404.358,117.06 415.324,110.73 426.289,104.401C412.338,86.326 395.692,70.338 377.052,57.127C363.059,65.205 349.067,73.284 335.074,81.362ZM112.106,57.015C93.454,70.21 76.795,86.183 62.83,104.245C73.882,110.626 84.934,117.007 95.986,123.388C98.996,121.258 102.716,120 106.66,120C116.863,120 125.16,128.297 125.16,138.5C125.16,138.635 125.16,139.32 125.082,140.187C137.356,147.273 149.631,154.359 161.905,161.445C163.661,160.189 165.342,159.501 165.66,159.371L165.66,100.628C158.92,97.87 154.16,91.227 154.16,83.5C154.16,83.329 154.16,82.442 154.283,81.365C140.224,73.248 126.165,65.131 112.106,57.015ZM244.5,15C201.249,15 160.734,26.979 126.173,47.816C138.084,54.693 149.994,61.569 161.905,68.445C164.93,66.281 168.68,65 172.66,65C176.833,65 180.75,66.409 183.852,68.769C197.984,60.611 212.115,52.452 226.247,44.294C226.16,43.393 226.16,42.644 226.16,42.5C226.16,32.296 234.457,24 244.66,24C254.863,24 263.16,32.296 263.16,42.5C263.16,42.643 263.16,43.389 263.073,44.287C277.213,52.448 291.354,60.609 305.494,68.77C308.597,66.41 312.515,65 316.691,65C320.672,65 324.423,66.281 327.448,68.444C339.298,61.603 351.148,54.761 362.998,47.92C328.4,27.019 287.823,15 244.5,15Z" style="fill:url(#_Linear1);"/>
                </g>
            </g>
        </g>
    </g>
    <defs>
        <linearGradient id="_Linear1" x1="0" y1="0" x2="1" y2="0" gradientUnits="userSpaceOnUse" gradientTransform="matrix(377.047,625.51,-625.51,377.047,-37.5356,0.5)"><stop offset="0" style="stop-color:rgb(130,255,237);stop-opacity:1"/><stop offset="0.87" style="stop-color:rgb(18,96,122);stop-opacity:1"/><stop offset="0.94" style="stop-color:rgb(42,145,170);stop-opacity:1"/><stop offset="1" style="stop-color:rgb(51,163,188);stop-opacity:1"/><stop offset="1" style="stop-color:rgb(51,163,188);stop-opacity:1"/></linearGradient>
    </defs>
</svg>
