<?xml version="1.0" encoding="UTF-8" standalone="no"?>
<!DOCTYPE svg PUBLIC "-//W3C//DTD SVG 1.1//EN" "http://www.w3.org/Graphics/SVG/1.1/DTD/svg11.dtd">
<svg width="100%" height="100%" viewBox="0 0 576 576" version="1.1" xmlns="http://www.w3.org/2000/svg" xmlns:xlink="http://www.w3.org/1999/xlink" xml:space="preserve" xmlns:serif="http://www.serif.com/" style="fill-rule:evenodd;clip-rule:evenodd;stroke-linejoin:round;stroke-miterlimit:2;">
    <g transform="matrix(1,0,0,1,-2368.16,2205.31)">
        <g transform="matrix(1.17791,0,0,1.17791,2368.16,-2205.31)">
            <path d="M244.5,0C379.534,0 489,109.466 489,244.5C489,379.534 379.534,489 244.5,489C109.466,489 0,379.534 0,244.5C0,109.466 109.466,0 244.5,0ZM244.663,436.592C228.623,436.713 219.858,442.694 208.323,449.904C199.728,455.277 190.134,460.898 176.297,463.695C197.843,470.392 220.75,474 244.5,474C268.3,474 291.254,470.377 312.841,463.652C299.114,460.841 289.572,455.249 281.019,449.904C269.48,442.694 260.71,436.713 244.663,436.592ZM318.606,402.45C297.209,411.957 290.02,417.234 283.291,421.55C279.856,423.753 276.581,425.672 272.244,427.603C278.468,430.46 283.79,433.949 288.968,437.185C300.017,444.089 311.221,450.5 332.197,450.5L345.778,450.5C365.991,440.544 384.525,427.701 400.844,412.509C366.829,419.515 340.442,412.948 318.606,402.45ZM170.747,402.451C148.814,412.999 122.287,419.579 88.048,412.408C104.393,427.644 122.965,440.522 143.222,450.5L157.16,450.5C178.128,450.5 189.326,444.089 200.372,437.185C205.549,433.948 210.87,430.46 217.093,427.603C212.757,425.672 209.482,423.752 206.048,421.549C199.321,417.233 192.135,411.957 170.747,402.451ZM244.664,362.571C236.388,363.424 227.882,367.423 217.886,373.587C212.718,376.773 207.435,380.351 201.666,384.186C197.074,387.237 192.234,390.409 187.132,393.499C201.975,400.654 208.408,405.241 214.147,408.924C220.23,412.826 225.626,415.828 244.664,420.993C263.709,415.828 269.107,412.826 275.192,408.923C280.934,405.24 287.369,400.653 302.216,393.498C297.112,390.409 292.271,387.238 287.679,384.187C281.908,380.352 276.622,376.774 271.453,373.588C261.454,367.424 252.944,363.425 244.664,362.571ZM140.131,359.476C140.149,359.815 140.16,360.156 140.16,360.5C140.16,370.717 131.877,379 121.66,379C111.443,379 103.16,370.717 103.16,360.5C103.16,359.887 103.19,359.282 103.248,358.685L25.681,313.9C34.837,342.797 49.56,369.217 68.589,391.902L81.102,395.256L81.199,395.282C122.931,407.071 151.819,396.707 175.832,382.764C181.922,379.228 187.699,375.458 193.363,371.693C198.967,367.969 204.563,364.18 210.013,360.819C220.835,354.146 232.228,348.405 244.626,347.52L244.663,348.046L244.701,347.52C257.102,348.405 268.498,354.145 279.324,360.818C284.776,364.179 290.374,367.968 295.979,371.692C301.646,375.457 307.425,379.227 313.518,382.764C337.539,396.707 366.439,407.071 408.187,395.282L408.234,395.269L408.283,395.256L420.298,392.035C439.319,369.394 454.048,343.027 463.229,314.185L386.127,358.685C386.185,359.282 386.216,359.887 386.216,360.5C386.216,370.717 377.93,379 367.709,379C357.488,379 349.203,370.717 349.203,360.5C349.203,360.156 349.213,359.813 349.231,359.474L255.641,307.079C252.761,308.928 249.336,310 245.66,310C241.596,310 237.839,308.688 234.786,306.467L140.131,359.476ZM255.234,234.68C252.237,236.772 248.592,238 244.66,238C240.73,238 237.086,236.774 234.09,234.684L191.137,258.582C191.152,258.886 191.16,259.192 191.16,259.5C191.16,269.717 182.877,278 172.66,278C168.856,278 165.321,276.851 162.381,274.883L140.142,287.723C140.152,287.98 140.16,288.24 140.16,288.5C140.16,298.717 131.877,307 121.66,307C116.297,307 111.468,304.717 108.089,301.07C104.443,297.691 102.16,292.863 102.16,287.5C102.16,287.225 102.167,286.951 102.179,286.679L75.664,271.37C72.589,273.65 68.783,275 64.66,275C54.443,275 46.16,266.717 46.16,256.5C46.16,255.791 46.201,255.092 46.278,254.404L15.14,236.427C15.047,239.106 15,241.798 15,244.5C15,261.293 16.804,277.664 20.228,293.432L110.646,345.636C113.723,343.352 117.533,342 121.66,342C126.067,342 130.112,343.541 133.29,346.113L227.266,293.485C227.196,292.833 227.16,292.171 227.16,291.5C227.16,281.283 235.443,273 245.66,273C255.877,273 264.16,281.283 264.16,291.5C264.16,292.529 264.075,293.538 263.913,294.521L356.074,346.114C359.253,343.542 363.301,342 367.709,342C371.837,342 375.649,343.352 378.728,345.636L468.713,293.7C472.175,277.85 474,261.388 474,244.5C474,241.875 473.955,239.26 473.867,236.656L443.116,254.403C443.194,255.092 443.235,255.791 443.235,256.5C443.235,266.717 434.949,275 424.729,275C420.604,275 416.795,273.65 413.719,271.37L387.196,286.678C387.208,286.95 387.216,287.224 387.216,287.5C387.216,292.861 384.934,297.688 381.289,301.066C377.909,304.715 373.076,307 367.709,307C357.488,307 349.203,298.717 349.203,288.5C349.203,288.24 349.21,287.98 349.221,287.723L326.974,274.883C324.033,276.851 320.496,278 316.691,278C306.471,278 298.185,269.717 298.185,259.5C298.185,259.191 298.192,258.884 298.207,258.579L255.234,234.68ZM401.086,136.267C401.174,136.999 401.221,137.744 401.221,138.5C401.221,148.717 392.935,157 382.714,157C378.541,157 374.69,155.618 371.595,153.288L335.075,174.365C335.156,175.066 335.198,175.778 335.198,176.5C335.198,184.241 330.441,190.87 323.69,193.629L323.69,242.37C330.441,245.129 335.198,251.759 335.198,259.5C335.198,260.416 335.131,261.317 335.002,262.197L355.83,274.218C359.161,270.989 363.703,269 368.71,269C373.185,269 377.288,270.588 380.488,273.23L406.312,258.326C406.254,257.725 406.223,257.116 406.223,256.5C406.223,246.283 414.508,238 424.729,238C428.755,238 432.482,239.287 435.52,241.47L472.707,220.007C468.676,182.012 455.374,146.786 435.105,116.633L401.086,136.267ZM54.003,116.47C33.713,146.6 20.382,181.806 16.315,219.784L53.873,241.469C56.91,239.286 60.635,238 64.66,238C74.877,238 83.16,246.283 83.16,256.5C83.16,257.116 83.129,257.725 83.07,258.325L108.886,273.229C112.085,270.587 116.187,269 120.66,269C125.664,269 130.203,270.989 133.533,274.217L154.355,262.196C154.227,261.316 154.16,260.416 154.16,259.5C154.16,251.76 158.914,245.131 165.661,242.371L165.661,193.628C158.914,190.868 154.16,184.24 154.16,176.5C154.16,175.778 154.203,175.066 154.283,174.365L117.775,153.288C114.681,155.618 110.832,157 106.66,157C96.443,157 88.16,148.717 88.16,138.5C88.16,137.744 88.206,136.999 88.294,136.268L54.003,116.47ZM255.692,150.348C254.603,151.159 253.421,151.853 252.166,152.411L252.166,202.586C258.643,205.465 263.16,211.955 263.16,219.5C263.16,220.293 263.11,221.075 263.013,221.842L304.975,245.18C306.109,244.251 307.355,243.454 308.69,242.813L308.69,193.186C302.476,190.202 298.185,183.852 298.185,176.5C298.185,175.965 298.208,175.436 298.253,174.912L255.692,150.348ZM191.091,174.912C191.135,175.436 191.16,175.965 191.16,176.5C191.16,183.851 186.872,190.201 180.661,193.185L180.661,242.814C181.994,243.455 183.238,244.251 184.371,245.179L226.308,221.848C226.21,221.079 226.16,220.295 226.16,219.5C226.16,211.952 230.68,205.46 237.161,202.583L237.161,152.416C235.904,151.858 234.722,151.164 233.631,150.353L191.091,174.912ZM191.091,81.911C191.135,82.435 191.16,82.965 191.16,83.5C191.16,90.852 186.872,97.201 180.66,100.185L180.66,159.814C181.793,160.359 182.862,161.016 183.853,161.771L226.247,137.295C226.19,136.704 226.16,136.106 226.16,135.5C226.16,130.137 228.443,125.308 232.089,121.929C233.537,120.366 235.252,119.055 237.16,118.065L237.16,59.415C235.903,58.857 234.721,58.163 233.63,57.352L191.091,81.911ZM255.694,57.349C254.605,58.16 253.423,58.853 252.167,59.411L252.167,117.177C259.174,119.81 264.16,126.573 264.16,134.5C264.16,135.609 264.06,136.695 263.873,137.75L305.494,161.771C306.486,161.016 307.557,160.358 308.691,159.813L308.691,100.186C302.476,97.202 298.185,90.853 298.185,83.5C298.185,82.965 298.208,82.435 298.253,81.911L255.694,57.349ZM335.074,81.362C335.155,82.064 335.198,82.777 335.198,83.5C335.198,91.241 330.442,97.87 323.691,100.629L323.691,159.37C325.03,159.917 326.29,160.616 327.45,161.446L364.285,140.188C364.235,139.632 364.208,139.069 364.208,138.5C364.208,128.283 372.493,120.001 382.714,120C386.691,120 390.376,121.254 393.393,123.389L426.289,104.401C412.325,86.308 395.72,70.358 377.052,57.127L335.074,81.362ZM112.106,57.015C93.427,70.229 76.809,86.165 62.83,104.245L95.986,123.388C99.002,121.254 102.685,120 106.66,120C116.877,120 125.16,128.283 125.16,138.5C125.16,139.069 125.132,139.631 125.082,140.187L161.905,161.445C163.064,160.616 164.323,159.918 165.66,159.371L165.66,100.628C158.914,97.868 154.16,91.24 154.16,83.5C154.16,82.778 154.203,82.066 154.283,81.365L112.106,57.015ZM244.5,15C201.213,15 160.725,26.985 126.173,47.816L161.905,68.445C164.936,66.276 168.649,65 172.66,65C176.866,65 180.744,66.405 183.852,68.769L226.247,44.294C226.19,43.704 226.16,43.105 226.16,42.5C226.16,32.283 234.443,24 244.66,24C254.877,24 263.16,32.283 263.16,42.5C263.16,43.103 263.13,43.699 263.073,44.287L305.494,68.771C308.603,66.405 312.483,65 316.691,65C320.703,65 324.417,66.276 327.448,68.444L362.998,47.92C328.409,27.025 287.859,15 244.5,15Z" style="fill:url(#_Linear1);"/>
        </g>
    </g>
    <defs>
        <linearGradient id="_Linear1" x1="0" y1="0" x2="1" y2="0" gradientUnits="userSpaceOnUse" gradientTransform="matrix(377.047,625.51,-625.51,377.047,-37.5356,0.5)"><stop offset="0" style="stop-color:rgb(177,245,235);stop-opacity:1"/><stop offset="1" style="stop-color:rgb(91,191,243);stop-opacity:1"/><stop offset="1" style="stop-color:rgb(51,163,188);stop-opacity:1"/><stop offset="1" style="stop-color:rgb(51,163,188);stop-opacity:1"/></linearGradient>
    </defs>
</svg>
