<?xml version="1.0" encoding="UTF-8" standalone="no"?>
<!DOCTYPE svg PUBLIC "-//W3C//DTD SVG 1.1//EN" "http://www.w3.org/Graphics/SVG/1.1/DTD/svg11.dtd">
<svg width="100%" height="100%" viewBox="0 0 2062 709" version="1.1" xmlns="http://www.w3.org/2000/svg" xmlns:xlink="http://www.w3.org/1999/xlink" xml:space="preserve" xmlns:serif="http://www.serif.com/" style="fill-rule:evenodd;clip-rule:evenodd;stroke-linejoin:round;stroke-miterlimit:2;">
    <g id="Artboard1" transform="matrix(1,0,0,1,163.073,93.8646)">
        <rect x="-163.073" y="-93.865" width="2061.7" height="708.344" style="fill:none;"/>
        <g transform="matrix(1.17791,0,0,1.17791,-94.3229,-38.3646)">
            <path d="M244.5,0C379.534,0 489,109.466 489,244.5C489,379.534 379.534,489 244.5,489C109.466,489 0,379.534 0,244.5C0,109.466 109.466,0 244.5,0ZM244.663,436.592C228.623,436.713 219.858,442.694 208.323,449.904C199.728,455.277 190.134,460.898 176.297,463.695C197.843,470.392 220.75,474 244.5,474C268.3,474 291.254,470.377 312.841,463.652C299.114,460.841 289.572,455.249 281.019,449.904C269.48,442.694 260.71,436.713 244.663,436.592ZM318.606,402.45C297.209,411.957 290.02,417.234 283.291,421.55C279.856,423.753 276.581,425.672 272.244,427.603C278.468,430.46 283.79,433.949 288.968,437.185C300.017,444.089 311.221,450.5 332.197,450.5L345.778,450.5C365.991,440.544 384.525,427.701 400.844,412.509C366.829,419.515 340.442,412.948 318.606,402.45ZM170.747,402.451C148.814,412.999 122.287,419.579 88.048,412.408C104.393,427.644 122.965,440.522 143.222,450.5L157.16,450.5C178.128,450.5 189.326,444.089 200.372,437.185C205.549,433.948 210.87,430.46 217.093,427.603C212.757,425.672 209.482,423.752 206.048,421.549C199.321,417.233 192.135,411.957 170.747,402.451ZM244.664,362.571C236.388,363.424 227.882,367.423 217.886,373.587C212.718,376.773 207.435,380.351 201.666,384.186C197.074,387.237 192.234,390.409 187.132,393.499C201.975,400.654 208.408,405.241 214.147,408.924C220.23,412.826 225.626,415.828 244.664,420.993C263.709,415.828 269.107,412.826 275.192,408.923C280.934,405.24 287.369,400.653 302.216,393.498C297.112,390.409 292.271,387.238 287.679,384.187C281.908,380.352 276.622,376.774 271.453,373.588C261.454,367.424 252.944,363.425 244.664,362.571ZM140.131,359.476C140.149,359.815 140.16,360.156 140.16,360.5C140.16,370.717 131.877,379 121.66,379C111.443,379 103.16,370.717 103.16,360.5C103.16,359.887 103.19,359.282 103.248,358.685L25.681,313.9C34.837,342.797 49.56,369.217 68.589,391.902L81.102,395.256L81.199,395.282C122.931,407.071 151.819,396.707 175.832,382.764C181.922,379.228 187.699,375.458 193.363,371.693C198.967,367.969 204.563,364.18 210.013,360.819C220.835,354.146 232.228,348.405 244.626,347.52L244.663,348.046L244.701,347.52C257.102,348.405 268.498,354.145 279.324,360.818C284.776,364.179 290.374,367.968 295.979,371.692C301.646,375.457 307.425,379.227 313.518,382.764C337.539,396.707 366.439,407.071 408.187,395.282L408.234,395.269L408.283,395.256L420.298,392.035C439.319,369.394 454.048,343.027 463.229,314.185L386.127,358.685C386.185,359.282 386.216,359.887 386.216,360.5C386.216,370.717 377.93,379 367.709,379C357.488,379 349.203,370.717 349.203,360.5C349.203,360.156 349.213,359.813 349.231,359.474L255.641,307.079C252.761,308.928 249.336,310 245.66,310C241.596,310 237.839,308.688 234.786,306.467L140.131,359.476ZM255.234,234.68C252.237,236.772 248.592,238 244.66,238C240.73,238 237.086,236.774 234.09,234.684L191.137,258.582C191.152,258.886 191.16,259.192 191.16,259.5C191.16,269.717 182.877,278 172.66,278C168.856,278 165.321,276.851 162.381,274.883L140.142,287.723C140.152,287.98 140.16,288.24 140.16,288.5C140.16,298.717 131.877,307 121.66,307C116.297,307 111.468,304.717 108.089,301.07C104.443,297.691 102.16,292.863 102.16,287.5C102.16,287.225 102.167,286.951 102.179,286.679L75.664,271.37C72.589,273.65 68.783,275 64.66,275C54.443,275 46.16,266.717 46.16,256.5C46.16,255.791 46.201,255.092 46.278,254.404L15.14,236.427C15.047,239.106 15,241.798 15,244.5C15,261.293 16.804,277.664 20.228,293.432L110.646,345.636C113.723,343.352 117.533,342 121.66,342C126.067,342 130.112,343.541 133.29,346.113L227.266,293.485C227.196,292.833 227.16,292.171 227.16,291.5C227.16,281.283 235.443,273 245.66,273C255.877,273 264.16,281.283 264.16,291.5C264.16,292.529 264.075,293.538 263.913,294.521L356.074,346.114C359.253,343.542 363.301,342 367.709,342C371.837,342 375.649,343.352 378.728,345.636L468.713,293.7C472.175,277.85 474,261.388 474,244.5C474,241.875 473.955,239.26 473.867,236.656L443.116,254.403C443.194,255.092 443.235,255.791 443.235,256.5C443.235,266.717 434.949,275 424.729,275C420.604,275 416.795,273.65 413.719,271.37L387.196,286.678C387.208,286.95 387.216,287.224 387.216,287.5C387.216,292.861 384.934,297.688 381.289,301.066C377.909,304.715 373.076,307 367.709,307C357.488,307 349.203,298.717 349.203,288.5C349.203,288.24 349.21,287.98 349.221,287.723L326.974,274.883C324.033,276.851 320.496,278 316.691,278C306.471,278 298.185,269.717 298.185,259.5C298.185,259.191 298.192,258.884 298.207,258.579L255.234,234.68ZM401.086,136.267C401.174,136.999 401.221,137.744 401.221,138.5C401.221,148.717 392.935,157 382.714,157C378.541,157 374.69,155.618 371.595,153.288L335.075,174.365C335.156,175.066 335.198,175.778 335.198,176.5C335.198,184.241 330.441,190.87 323.69,193.629L323.69,242.37C330.441,245.129 335.198,251.759 335.198,259.5C335.198,260.416 335.131,261.317 335.002,262.197L355.83,274.218C359.161,270.989 363.703,269 368.71,269C373.185,269 377.288,270.588 380.488,273.23L406.312,258.326C406.254,257.725 406.223,257.116 406.223,256.5C406.223,246.283 414.508,238 424.729,238C428.755,238 432.482,239.287 435.52,241.47L472.707,220.007C468.676,182.012 455.374,146.786 435.105,116.633L401.086,136.267ZM54.003,116.47C33.713,146.6 20.382,181.806 16.315,219.784L53.873,241.469C56.91,239.286 60.635,238 64.66,238C74.877,238 83.16,246.283 83.16,256.5C83.16,257.116 83.129,257.725 83.07,258.325L108.886,273.229C112.085,270.587 116.187,269 120.66,269C125.664,269 130.203,270.989 133.533,274.217L154.355,262.196C154.227,261.316 154.16,260.416 154.16,259.5C154.16,251.76 158.914,245.131 165.661,242.371L165.661,193.628C158.914,190.868 154.16,184.24 154.16,176.5C154.16,175.778 154.203,175.066 154.283,174.365L117.775,153.288C114.681,155.618 110.832,157 106.66,157C96.443,157 88.16,148.717 88.16,138.5C88.16,137.744 88.206,136.999 88.294,136.268L54.003,116.47ZM255.692,150.348C254.603,151.159 253.421,151.853 252.166,152.411L252.166,202.586C258.643,205.465 263.16,211.955 263.16,219.5C263.16,220.293 263.11,221.075 263.013,221.842L304.975,245.18C306.109,244.251 307.355,243.454 308.69,242.813L308.69,193.186C302.476,190.202 298.185,183.852 298.185,176.5C298.185,175.965 298.208,175.436 298.253,174.912L255.692,150.348ZM191.091,174.912C191.135,175.436 191.16,175.965 191.16,176.5C191.16,183.851 186.872,190.201 180.661,193.185L180.661,242.814C181.994,243.455 183.238,244.251 184.371,245.179L226.308,221.848C226.21,221.079 226.16,220.295 226.16,219.5C226.16,211.952 230.68,205.46 237.161,202.583L237.161,152.416C235.904,151.858 234.722,151.164 233.631,150.353L191.091,174.912ZM191.091,81.911C191.135,82.435 191.16,82.965 191.16,83.5C191.16,90.852 186.872,97.201 180.66,100.185L180.66,159.814C181.793,160.359 182.862,161.016 183.853,161.771L226.247,137.295C226.19,136.704 226.16,136.106 226.16,135.5C226.16,130.137 228.443,125.308 232.089,121.929C233.537,120.366 235.252,119.055 237.16,118.065L237.16,59.415C235.903,58.857 234.721,58.163 233.63,57.352L191.091,81.911ZM255.694,57.349C254.605,58.16 253.423,58.853 252.167,59.411L252.167,117.177C259.174,119.81 264.16,126.573 264.16,134.5C264.16,135.609 264.06,136.695 263.873,137.75L305.494,161.771C306.486,161.016 307.557,160.358 308.691,159.813L308.691,100.186C302.476,97.202 298.185,90.853 298.185,83.5C298.185,82.965 298.208,82.435 298.253,81.911L255.694,57.349ZM335.074,81.362C335.155,82.064 335.198,82.777 335.198,83.5C335.198,91.241 330.442,97.87 323.691,100.629L323.691,159.37C325.03,159.917 326.29,160.616 327.45,161.446L364.285,140.188C364.235,139.632 364.208,139.069 364.208,138.5C364.208,128.283 372.493,120.001 382.714,120C386.691,120 390.376,121.254 393.393,123.389L426.289,104.401C412.325,86.308 395.72,70.358 377.052,57.127L335.074,81.362ZM112.106,57.015C93.427,70.229 76.809,86.165 62.83,104.245L95.986,123.388C99.002,121.254 102.685,120 106.66,120C116.877,120 125.16,128.283 125.16,138.5C125.16,139.069 125.132,139.631 125.082,140.187L161.905,161.445C163.064,160.616 164.323,159.918 165.66,159.371L165.66,100.628C158.914,97.868 154.16,91.24 154.16,83.5C154.16,82.778 154.203,82.066 154.283,81.365L112.106,57.015ZM244.5,15C201.213,15 160.725,26.985 126.173,47.816L161.905,68.445C164.936,66.276 168.649,65 172.66,65C176.866,65 180.744,66.405 183.852,68.769L226.247,44.294C226.19,43.704 226.16,43.105 226.16,42.5C226.16,32.283 234.443,24 244.66,24C254.877,24 263.16,32.283 263.16,42.5C263.16,43.103 263.13,43.699 263.073,44.287L305.494,68.771C308.603,66.405 312.483,65 316.691,65C320.703,65 324.417,66.276 327.448,68.444L362.998,47.92C328.409,27.025 287.859,15 244.5,15Z" style="fill:url(#_Linear1);"/>
        </g>
        <g transform="matrix(1.16328,0,0,1.16328,-246.72,12.6197)">
            <g transform="matrix(1.59736,0,0,1.59736,-320.304,-89.9317)">
                <g transform="matrix(1,0,0,1,-43.1962,0)">
                    <path d="M671.12,226.379L671.12,217.634L718.122,217.634L718.122,226.226L671.12,226.379ZM671.12,252.896L716.899,252.923L716.899,261.462L685.465,261.462L685.465,298.268L671.12,298.268L671.12,252.896Z" style="fill:rgb(34,106,92);"/>
                </g>
                <g transform="matrix(1,0,0,1,-33.8057,0.626032)">
                    <path d="M727.271,258.377C727.271,252.561 728.343,247.136 730.489,242.101C732.634,237.066 735.497,232.758 739.079,229.176C742.66,225.595 746.667,222.74 751.099,220.613C757.092,217.705 763.368,216.252 769.928,216.252C776.027,216.252 781.727,217.439 787.028,219.815C792.329,222.191 796.752,225.169 800.298,228.751C803.844,232.332 806.592,236.197 808.542,240.346C811.237,245.877 812.585,251.746 812.585,257.951C812.585,263.908 811.441,269.378 809.154,274.36C806.867,279.342 803.95,283.561 800.405,287.019C796.859,290.476 792.958,293.25 788.703,295.343C782.711,298.25 776.434,299.704 769.875,299.704C763.669,299.704 757.712,298.392 752.003,295.768C747.323,293.57 743.209,290.724 739.664,287.231C736.118,283.739 733.37,279.989 731.419,275.982C728.654,270.309 727.271,264.44 727.271,258.377ZM735.355,258.377C735.355,263.27 736.455,268.039 738.653,272.684C740.249,276.053 742.491,279.2 745.381,282.125C748.271,285.051 751.817,287.488 756.019,289.439C760.221,291.389 764.857,292.364 769.928,292.364C775.849,292.364 781.567,290.83 787.081,287.763C792.595,284.696 796.876,280.468 799.926,275.078C802.975,269.688 804.5,264.015 804.5,258.058C804.5,254.299 803.88,250.611 802.639,246.994C801.397,243.378 799.695,240.186 797.532,237.42C795.369,234.655 792.958,232.27 790.299,230.267C787.639,228.263 784.554,226.641 781.044,225.4C777.534,224.159 773.828,223.538 769.928,223.538C764.715,223.538 759.769,224.673 755.088,226.942C751.471,228.68 748.156,231.056 745.142,234.07C742.128,237.084 739.743,240.709 737.988,244.947C736.233,249.184 735.355,253.661 735.355,258.377Z" style="fill:rgb(34,106,92);fill-rule:nonzero;"/>
                </g>
                <g transform="matrix(1,0,0,1,-18.781,0)">
                    <path d="M820.35,217.634L828.435,217.634L828.435,267.897C828.435,276.301 830.234,282.48 833.833,286.433C837.433,290.387 842.228,292.364 848.221,292.364C851.093,292.364 853.699,291.868 856.04,290.875C858.38,289.882 860.436,288.322 862.209,286.194C863.592,284.563 864.638,282.613 865.348,280.343C866.589,276.478 867.209,272.33 867.209,267.897L867.209,217.634L875.241,217.634L875.241,267.897C875.241,279.634 871.961,288.215 865.401,293.64C860.543,297.683 854.657,299.704 847.742,299.704C842.565,299.704 837.743,298.392 833.275,295.768C828.807,293.144 825.545,289.775 823.488,285.662C821.396,281.514 820.35,275.592 820.35,267.897L820.35,217.634Z" style="fill:rgb(34,106,92);fill-rule:nonzero;"/>
                </g>
                <g transform="matrix(1,0,0,1,-12.5206,0)">
                    <path d="M891.676,298.268L891.676,217.634L902.579,217.634L947.577,284.545L947.789,284.545L947.789,217.634L955.821,217.634L955.821,298.268L947.789,298.268L899.973,227.368L899.76,227.368L899.76,298.268L891.676,298.268Z" style="fill:rgb(34,106,92);fill-rule:nonzero;"/>
                </g>
                <g transform="matrix(1,0,0,1,-8.13842,0)">
                    <path d="M972.203,225.105L972.203,217.634L995.712,217.634C1005.11,217.634 1013.21,219.478 1020.02,223.166C1026.83,226.854 1032.04,232.243 1035.66,239.335C1038.74,245.328 1040.28,251.604 1040.28,258.164C1040.28,263.057 1039.35,267.818 1037.49,272.445C1035.63,277.072 1033.1,281.239 1029.91,284.944C1026.72,288.65 1023.34,291.477 1019.78,293.428C1016.22,295.378 1012.02,296.743 1007.2,297.523C1004.15,298.02 999.24,298.268 992.468,298.268L972.203,298.268L972.203,252.168L980.287,252.168L980.287,290.981L991.936,290.981C999.737,290.981 1005.78,290.449 1010.07,289.385C1012.41,288.783 1014.76,287.763 1017.12,286.327C1019.48,284.891 1021.81,282.852 1024.12,280.21C1026.42,277.569 1028.34,274.36 1029.89,270.583C1031.43,266.807 1032.2,262.703 1032.2,258.27C1032.2,252.632 1030.94,247.402 1028.42,242.58C1026.54,238.998 1024.03,235.843 1020.87,233.112C1017.71,230.382 1013.9,228.343 1009.44,226.996C1004.97,225.648 999.134,224.974 991.936,224.974L980.287,224.974L980.287,225.105L972.203,225.105Z" style="fill:rgb(34,106,92);"/>
                </g>
                <g transform="matrix(1,0,0,1,-3.13016,0)">
                    <path d="M1055.45,271.142L1055.34,271.142L1043.58,298.268L1035.18,298.268L1069.59,217.634L1078.63,217.634L1116.39,298.268L1107.61,298.268L1074.16,226.836L1058.37,263.855L1058.58,263.855L1055.45,271.142ZM1073.56,271.142L1059.55,271.142L1062.68,263.855L1070.4,263.855L1073.56,271.142Z" style="fill:rgb(34,106,92);"/>
                </g>
                <path d="M1120.12,298.268L1120.12,224.974L1101.61,224.974L1101.61,217.634L1146.61,217.634L1146.61,224.974L1128.2,224.974L1128.2,298.268L1120.12,298.268Z" style="fill:rgb(34,106,92);fill-rule:nonzero;"/>
                <rect x="1155.65" y="217.634" width="8.085" height="80.633" style="fill:rgb(34,106,92);fill-rule:nonzero;"/>
                <g transform="matrix(0.880032,0,0,1,141.162,0)">
                    <path d="M1176.66,258.377C1176.66,252.561 1177.73,247.136 1179.88,242.101C1182.02,237.066 1184.88,232.758 1188.47,229.176C1192.05,225.595 1196.06,222.74 1200.49,220.613C1206.48,217.705 1212.76,216.252 1219.32,216.252C1225.41,216.252 1231.12,217.439 1236.42,219.815C1241.72,222.191 1246.14,225.169 1249.69,228.751C1253.23,232.332 1255.98,236.197 1257.93,240.346C1260.62,245.877 1261.97,251.746 1261.97,257.951C1261.97,263.908 1260.83,269.378 1258.54,274.36C1256.26,279.342 1253.34,283.561 1249.79,287.019C1246.25,290.476 1242.35,293.25 1238.09,295.343C1232.1,298.25 1225.82,299.704 1219.26,299.704C1213.06,299.704 1207.1,298.392 1201.39,295.768C1196.71,293.57 1192.6,290.724 1189.05,287.231C1185.51,283.739 1182.76,279.989 1180.81,275.982C1178.04,270.309 1176.66,264.44 1176.66,258.377ZM1184.74,258.377C1184.74,263.27 1185.84,268.039 1188.04,272.684C1189.64,276.053 1191.88,279.2 1194.77,282.125C1197.66,285.051 1201.2,287.488 1205.41,289.439C1209.61,291.389 1214.25,292.364 1219.32,292.364C1225.24,292.364 1230.95,290.83 1236.47,287.763C1241.98,284.696 1246.26,280.468 1249.31,275.078C1252.36,269.688 1253.89,264.015 1253.89,258.058C1253.89,254.299 1253.27,250.611 1252.03,246.994C1250.79,243.378 1249.08,240.186 1246.92,237.42C1244.76,234.655 1242.35,232.27 1239.69,230.267C1237.03,228.263 1233.94,226.641 1230.43,225.4C1226.92,224.159 1223.22,223.538 1219.32,223.538C1214.1,223.538 1209.16,224.673 1204.48,226.942C1200.86,228.68 1197.54,231.056 1194.53,234.07C1191.52,237.084 1189.13,240.709 1187.38,244.947C1185.62,249.184 1184.74,253.661 1184.74,258.377Z" style="fill:rgb(34,106,92);fill-rule:nonzero;"/>
                </g>
                <g transform="matrix(1,0,0,1,-10.6425,0)">
                    <path d="M1274.84,298.268L1274.84,217.634L1285.75,217.634L1330.75,284.545L1330.96,284.545L1330.96,217.634L1338.99,217.634L1338.99,298.268L1330.96,298.268L1283.14,227.368L1282.93,227.368L1282.93,298.268L1274.84,298.268Z" style="fill:rgb(34,106,92);fill-rule:nonzero;"/>
                </g>
            </g>
            <g transform="matrix(1.59736,0,0,1.59736,-392.129,-289.101)">
                <g transform="matrix(1,0,0,1,-8.13842,0)">
                    <path d="M691.571,298.268L691.571,214.834L670.501,214.834L670.501,206.479L726.106,206.479L726.106,214.834L700.774,214.834L700.774,298.268L691.571,298.268Z" style="fill:rgb(34,106,92);fill-rule:nonzero;"/>
                </g>
                <g transform="matrix(1,0,0,1,-4.38223,0)">
                    <path d="M732.016,298.268L732.016,206.479L741.219,206.479L741.219,246.924L788.688,246.924L788.688,206.479L797.831,206.479L797.831,298.268L788.688,298.268L788.688,255.219L741.219,255.219L741.219,298.268L732.016,298.268Z" style="fill:rgb(34,106,92);fill-rule:nonzero;"/>
                </g>
                <g transform="matrix(1.17379,0,0,1,-150.52,0)">
                    <path d="M815.934,216.666L815.934,206.479L866.128,206.479L866.128,216.712L853.252,216.712L815.934,216.666ZM825.137,247.654L825.137,247.772L864.796,247.772L864.796,256.127L854.207,256.127L854.207,256.07L815.934,256.07L815.934,247.654L825.137,247.654ZM815.934,287.998L825.137,288.095L866.128,288.095L866.128,298.268L815.934,298.268L815.934,287.998Z" style="fill:rgb(34,106,92);"/>
                </g>
            </g>
            <g transform="matrix(1.86144,0,0,1.59736,-214.317,-291.367)">
                <path d="M697.384,298.268L670.622,206.479L687.999,206.479L703.862,270.598L704.104,270.598L719.846,206.479L732.259,206.479L747.637,270.598L747.88,270.598L763.864,206.479L781.241,206.479L754.54,298.268L741.038,298.268L726.204,237.66L725.901,237.66L710.825,298.268L697.384,298.268Z" style="fill:rgb(34,106,92);fill-rule:nonzero;"/>
                <g transform="matrix(1,0,0,1,1.38544,0)">
                    <path d="M791.893,279.281L784.026,298.268L765.317,298.268L803.522,206.479L816.782,206.479L855.229,298.268L836.46,298.268L828.362,278.602L820.533,258.61L820.596,258.61L810.182,230.455L809.94,230.455L800.589,255.737L800.585,255.735L791.893,279.281ZM813.558,274.594L798.749,274.594L804.65,258.61L807.298,258.61L813.558,274.594Z" style="fill:rgb(34,106,92);"/>
                </g>
                <g transform="matrix(1,0,0,1,8.77447,0)">
                    <path d="M863.343,298.268L863.343,222.403L846.329,222.403L846.329,206.479L897.43,206.479L897.43,222.403L880.296,222.403L880.296,298.268L863.343,298.268Z" style="fill:rgb(34,106,92);fill-rule:nonzero;"/>
                </g>
                <g transform="matrix(1.09014,0,0,1,-61.736,0)">
                    <path d="M905.241,222.475L905.241,206.479L954.587,206.479L954.587,222.403L922.255,222.403L922.255,222.475L905.241,222.475ZM922.255,244.717L922.255,244.805L953.255,244.805L953.255,260.668L922.255,260.668L922.255,260.797L905.241,260.797L905.241,244.717L922.255,244.717ZM922.255,282.295L922.255,282.405L954.587,282.405L954.587,298.268L905.241,298.268L905.241,282.295L922.255,282.295Z" style="fill:rgb(34,106,92);"/>
                </g>
                <g transform="matrix(1,0,0,1,27.7088,0)">
                    <path d="M970.087,298.268L970.087,206.479L998.241,206.479C1005.22,206.479 1010.96,207.407 1015.44,209.264C1018.5,210.515 1021.25,212.342 1023.67,214.743C1026.09,217.145 1028.01,219.759 1029.42,222.584C1031.4,226.459 1032.39,230.698 1032.39,235.299C1032.39,239.376 1031.63,243.211 1030.12,246.803C1028.61,250.395 1026.68,253.372 1024.34,255.734C1022,258.095 1019.49,259.922 1016.83,261.213C1014.17,262.505 1010.98,263.575 1007.26,264.422L1032.21,298.268L1011.62,298.268L987.343,263.151L987.1,263.151L987.1,298.268L970.087,298.268ZM987.1,222.403L987.1,250.436L997.999,250.436C1001.39,250.436 1004.48,249.79 1007.26,248.498C1009.32,247.53 1011.02,245.955 1012.35,243.776C1013.68,241.596 1014.35,239.154 1014.35,236.45C1014.35,233.785 1013.68,231.323 1012.35,229.063C1011.02,226.802 1009.24,225.127 1007.02,224.037C1004.8,222.948 1001.79,222.403 997.999,222.403L987.1,222.403Z" style="fill:rgb(34,106,92);fill-rule:nonzero;"/>
                </g>
            </g>
        </g>
    </g>
    <defs>
        <linearGradient id="_Linear1" x1="0" y1="0" x2="1" y2="0" gradientUnits="userSpaceOnUse" gradientTransform="matrix(377.047,625.51,-625.51,377.047,-37.5356,0.5)"><stop offset="0" style="stop-color:rgb(95,215,197);stop-opacity:1"/><stop offset="1" style="stop-color:rgb(20,126,182);stop-opacity:1"/><stop offset="1" style="stop-color:rgb(51,163,188);stop-opacity:1"/><stop offset="1" style="stop-color:rgb(51,163,188);stop-opacity:1"/></linearGradient>
    </defs>
</svg>
