<?xml version="1.0" encoding="UTF-8" standalone="no"?>
<!DOCTYPE svg PUBLIC "-//W3C//DTD SVG 1.1//EN" "http://www.w3.org/Graphics/SVG/1.1/DTD/svg11.dtd">
<svg width="100%" height="100%" viewBox="0 0 2008 576" version="1.1" xmlns="http://www.w3.org/2000/svg" xmlns:xlink="http://www.w3.org/1999/xlink" xml:space="preserve" xmlns:serif="http://www.serif.com/" style="fill-rule:evenodd;clip-rule:evenodd;stroke-linejoin:round;stroke-miterlimit:2;">
    <g id="Artboard1" transform="matrix(1.03593,0,0,1,0,0)">
        <rect x="0" y="0" width="1938.19" height="575.998" style="fill:none;"/>
        <clipPath id="_clip1">
            <rect x="0" y="0" width="1938.19" height="575.998"/>
        </clipPath>
        <g clip-path="url(#_clip1)">
            <g transform="matrix(0.965314,0,0,1,-2286.02,2205.31)">
                <g>
                    <g transform="matrix(1.17791,0,0,1.17791,2368.16,-2205.31)">
                        <path d="M244.5,0C379.531,-0 489,109.469 489,244.5C489,379.531 379.531,489 244.5,489C109.469,489 0,379.531 0,244.5C0,109.469 109.469,0 244.5,0ZM244.663,436.592C228.546,436.714 219.639,442.831 208.323,449.904C199.945,455.141 190.223,460.88 176.297,463.695C197.86,470.397 220.824,474 244.5,474C268.226,474 291.237,470.382 312.841,463.652C299.031,460.824 289.364,455.119 281.019,449.904C269.703,442.833 260.789,436.714 244.663,436.592ZM318.606,402.45C297.211,411.956 289.953,417.277 283.291,421.55C280.366,423.426 276.843,425.555 272.244,427.603C278.561,430.503 284.447,434.36 288.968,437.185C299.915,444.025 311.178,450.5 332.197,450.5L345.778,450.5C365.922,440.578 384.509,427.716 400.844,412.509C366.777,419.526 340.364,412.911 318.606,402.45ZM170.747,402.451C148.892,412.961 122.339,419.59 88.048,412.408C104.409,427.659 123.033,440.556 143.222,450.5L157.16,450.5C178.192,450.5 189.457,444.007 200.372,437.185C204.946,434.325 210.782,430.501 217.093,427.603C212.443,425.532 208.879,423.365 206.048,421.549C199.388,417.276 192.137,411.958 170.747,402.451ZM244.664,362.571C236.078,363.456 227.278,367.796 217.886,373.587C212.687,376.792 206.436,381.015 201.666,384.186C198.343,386.394 192.711,390.12 187.132,393.499C201.972,400.652 208.52,405.313 214.147,408.924C220.268,412.85 225.744,415.86 244.664,420.993C263.58,415.863 269.062,412.855 275.192,408.923C280.822,405.312 287.372,400.651 302.216,393.498C296.401,389.979 290.418,386.007 287.679,384.187C282.86,380.985 276.653,376.793 271.453,373.588C262.074,367.806 253.263,363.458 244.664,362.571ZM140.131,359.476L140.16,360.5C140.16,370.703 131.863,379 121.66,379C111.457,379 103.16,370.703 103.16,360.5C103.16,360.355 103.16,359.591 103.248,358.685C77.392,343.757 51.536,328.828 25.681,313.9C34.828,342.769 49.552,369.208 68.589,391.902C72.76,393.02 81.199,395.282 81.199,395.282C122.952,407.077 151.861,396.682 175.832,382.764C182.079,379.137 188.118,375.179 193.363,371.693C198.121,368.531 204.535,364.197 210.013,360.819C220.451,354.383 232.036,348.419 244.626,347.52L244.663,348.046L244.701,347.52C257.289,348.418 268.874,354.377 279.324,360.818C284.806,364.197 291.239,368.543 295.979,371.692C301.265,375.204 307.279,379.142 313.518,382.764C337.496,396.682 366.417,407.077 408.187,395.282L408.234,395.269L408.283,395.256C412.288,394.182 416.293,393.109 420.298,392.035C439.327,369.385 454.057,342.999 463.229,314.185C437.528,329.018 411.828,343.852 386.127,358.685C386.216,359.601 386.216,360.355 386.216,360.5C386.216,370.703 377.916,379 367.709,379C357.502,379 349.203,370.703 349.203,360.5L349.231,359.474C318.034,342.009 286.838,324.544 255.641,307.079C252.755,308.932 249.294,310 245.66,310C241.629,310 237.834,308.685 234.786,306.467C203.234,324.137 171.683,341.806 140.131,359.476ZM255.234,234.68C252.242,236.769 248.56,238 244.66,238C240.761,238 237.08,236.77 234.09,234.684C219.772,242.65 205.455,250.616 191.137,258.582L191.16,259.5C191.16,269.703 182.863,278 172.66,278C168.893,278 165.321,276.851 162.381,274.883C154.968,279.163 147.555,283.443 140.142,287.723L140.16,288.5C140.16,298.703 131.863,307 121.66,307C116.331,307 111.455,304.703 108.089,301.07C104.456,297.703 102.16,292.829 102.16,287.5L102.179,286.679C93.341,281.576 84.502,276.473 75.664,271.37C72.594,273.646 68.749,275 64.66,275C54.457,275 46.16,266.703 46.16,256.5C46.16,256.332 46.16,255.452 46.278,254.404C35.899,248.412 25.519,242.419 15.14,236.427C15,240.466 15,243.854 15,244.5C15,261.251 16.803,277.662 20.228,293.432C50.367,310.833 80.507,328.235 110.646,345.636C113.717,343.356 117.565,342 121.66,342C126.034,342 130.119,343.547 133.29,346.113C164.615,328.57 195.941,311.028 227.266,293.485C227.249,293.327 227.16,292.498 227.16,291.5C227.16,281.297 235.457,273 245.66,273C255.863,273 264.16,281.297 264.16,291.5C264.16,293.022 263.952,294.282 263.913,294.521C294.633,311.719 325.354,328.916 356.074,346.114C359.246,343.548 363.334,342 367.709,342C371.805,342 375.655,343.356 378.728,345.636C408.723,328.324 438.718,311.012 468.713,293.7C472.176,277.845 474,261.342 474,244.5C474,243.872 474,240.592 473.867,236.656C463.617,242.572 453.366,248.487 443.116,254.403C443.235,255.454 443.235,256.332 443.235,256.5C443.235,266.703 434.935,275 424.729,275C420.636,275 416.789,273.645 413.719,271.37C404.878,276.473 396.037,281.575 387.196,286.678L387.216,287.5C387.216,292.827 384.921,297.7 381.289,301.066C377.922,304.701 373.043,307 367.709,307C357.502,307 349.203,298.703 349.203,288.5L349.221,287.723C341.805,283.443 334.39,279.163 326.974,274.883C324.035,276.85 320.462,278 316.691,278C306.485,278 298.185,269.703 298.185,259.5L298.207,258.579C283.883,250.613 269.558,242.646 255.234,234.68ZM401.086,136.267C401.221,137.39 401.221,138.321 401.221,138.5C401.221,148.703 392.921,157 382.714,157C378.573,157 374.683,155.613 371.595,153.288C359.422,160.314 347.248,167.339 335.075,174.365C335.198,175.429 335.198,176.329 335.198,176.5C335.198,184.228 330.435,190.872 323.69,193.629L323.69,242.37C330.435,245.127 335.198,251.772 335.198,259.5C335.198,260.86 335.033,261.983 335.002,262.197C341.945,266.204 348.887,270.211 355.83,274.218C359.15,270.999 363.737,269 368.71,269C373.152,269 377.296,270.594 380.488,273.23C389.096,268.262 397.704,263.294 406.312,258.326C406.223,257.404 406.223,256.646 406.223,256.5C406.223,246.297 414.522,238 424.729,238C428.723,238 432.487,239.291 435.52,241.47C447.916,234.316 460.311,227.161 472.707,220.007C468.68,182.047 455.382,146.797 435.105,116.633C423.765,123.178 412.426,129.722 401.086,136.267ZM54.003,116.47C33.705,146.611 20.378,181.841 16.315,219.784C28.835,227.012 41.354,234.241 53.873,241.469C56.904,239.29 60.666,238 64.66,238C74.864,238 83.16,246.297 83.16,256.5C83.16,256.646 83.16,257.408 83.07,258.325C91.676,263.293 100.281,268.261 108.886,273.229C112.077,270.594 116.219,269 120.66,269C125.63,269 130.213,270.999 133.533,274.217C140.474,270.21 147.414,266.203 154.355,262.196C154.16,260.855 154.16,259.716 154.16,259.5C154.16,251.773 158.92,245.129 165.661,242.371L165.661,193.628C158.92,190.87 154.16,184.227 154.16,176.5C154.16,176.329 154.16,175.443 154.283,174.365C142.114,167.339 129.944,160.314 117.775,153.288C114.687,155.613 110.8,157 106.66,157C96.457,157 88.16,148.703 88.16,138.5C88.16,137.379 88.273,136.446 88.294,136.268C76.864,129.669 65.433,123.069 54.003,116.47ZM255.692,150.348C254.042,151.577 252.465,152.278 252.166,152.411L252.166,202.586C258.658,205.472 263.16,211.995 263.16,219.5C263.16,220.68 263.037,221.656 263.013,221.842C277,229.621 290.988,237.401 304.975,245.18C306.695,243.771 308.372,242.966 308.69,242.813L308.69,193.186C302.461,190.195 298.185,183.813 298.185,176.5C298.185,175.704 298.242,175.039 298.253,174.912C284.066,166.724 269.879,158.536 255.692,150.348ZM191.091,174.912C191.16,175.734 191.16,176.373 191.16,176.5C191.16,183.812 186.887,190.194 180.661,193.185L180.661,242.814C180.978,242.967 182.653,243.772 184.371,245.179C198.35,237.402 212.329,229.625 226.308,221.848C226.284,221.661 226.16,220.687 226.16,219.5C226.16,211.992 230.665,205.467 237.161,202.583L237.161,152.416C236.862,152.283 235.287,151.584 233.631,150.353C219.451,158.539 205.271,166.726 191.091,174.912ZM191.091,81.911C191.16,82.733 191.16,83.373 191.16,83.5C191.16,90.812 186.887,97.194 180.66,100.185L180.66,159.814C180.93,159.944 182.354,160.629 183.853,161.771C197.984,153.612 212.116,145.454 226.247,137.295C226.16,136.393 226.16,135.644 226.16,135.5C226.16,130.171 228.456,125.295 232.089,121.929C233.514,120.391 235.296,119.032 237.16,118.065L237.16,59.415C236.861,59.282 235.286,58.583 233.63,57.352C219.45,65.538 205.271,73.725 191.091,81.911ZM255.694,57.349C255.432,57.544 254.046,58.576 252.167,59.411L252.167,117.177C259.167,119.808 264.16,126.586 264.16,134.5C264.16,134.761 264.16,136.131 263.873,137.75C277.747,145.757 291.62,153.764 305.494,161.771C306.997,160.627 308.421,159.943 308.691,159.813L308.691,100.186C302.461,97.195 298.185,90.813 298.185,83.5C298.185,82.703 298.242,82.038 298.253,81.911C284.067,73.724 269.88,65.536 255.694,57.349ZM335.074,81.362C335.198,82.436 335.198,83.329 335.198,83.5C335.198,91.228 330.436,97.872 323.691,100.629L323.691,159.37C324.009,159.5 325.69,160.187 327.45,161.446C339.728,154.36 352.007,147.274 364.285,140.188C364.208,139.332 364.208,138.635 364.208,138.5C364.208,128.297 372.507,120.001 382.714,120C386.661,120 390.383,121.259 393.393,123.389C404.358,117.06 415.324,110.73 426.289,104.401C412.338,86.326 395.692,70.338 377.052,57.127C363.059,65.205 349.067,73.284 335.074,81.362ZM112.106,57.015C93.454,70.21 76.795,86.183 62.83,104.245C73.882,110.626 84.934,117.007 95.986,123.388C98.996,121.258 102.716,120 106.66,120C116.863,120 125.16,128.297 125.16,138.5C125.16,138.635 125.16,139.32 125.082,140.187C137.356,147.273 149.631,154.359 161.905,161.445C163.661,160.189 165.342,159.501 165.66,159.371L165.66,100.628C158.92,97.87 154.16,91.227 154.16,83.5C154.16,83.329 154.16,82.442 154.283,81.365C140.224,73.248 126.165,65.131 112.106,57.015ZM244.5,15C201.249,15 160.734,26.979 126.173,47.816C138.084,54.693 149.994,61.569 161.905,68.445C164.93,66.281 168.68,65 172.66,65C176.833,65 180.75,66.409 183.852,68.769C197.984,60.611 212.115,52.452 226.247,44.294C226.16,43.393 226.16,42.644 226.16,42.5C226.16,32.296 234.457,24 244.66,24C254.863,24 263.16,32.296 263.16,42.5C263.16,42.643 263.16,43.389 263.073,44.287C277.213,52.448 291.354,60.609 305.494,68.77C308.597,66.41 312.515,65 316.691,65C320.672,65 324.423,66.281 327.448,68.444C339.298,61.603 351.148,54.761 362.998,47.92C328.4,27.019 287.823,15 244.5,15Z" style="fill:url(#_Linear2);"/>
                    </g>
                    <g transform="matrix(1.21119,0,0,1.23136,2169.42,-2180.98)">
                        <g transform="matrix(1.59736,0,0,1.59736,-320.304,-89.9317)">
                            <g transform="matrix(1,0,0,1,-43.1962,0)">
                                <path d="M671.12,226.379L671.12,217.634L718.122,217.634L718.122,226.226C702.455,226.277 686.787,226.328 671.12,226.379ZM671.12,252.896C686.38,252.905 701.639,252.914 716.899,252.923L716.899,261.462L685.465,261.462L685.465,298.268L671.12,298.268L671.12,252.896Z" style="fill:rgb(223,252,246);"/>
                            </g>
                            <g transform="matrix(1,0,0,1,-33.8057,0.626032)">
                                <path d="M727.271,258.377C727.271,252.012 728.578,246.586 730.489,242.101C731.969,238.625 734.567,233.688 739.079,229.176C742.775,225.48 746.888,222.634 751.099,220.613C757.19,217.657 763.542,216.252 769.928,216.252C776.444,216.252 782.156,217.632 787.028,219.815C790.535,221.387 795.756,224.163 800.298,228.751C802.368,230.841 805.948,234.826 808.542,240.346C811.192,245.785 812.585,251.703 812.585,257.951C812.585,262.044 812.041,268.072 809.154,274.36C807.601,277.742 804.902,282.634 800.405,287.019C796.676,290.654 792.658,293.398 788.703,295.343C782.612,298.298 776.261,299.704 769.875,299.704C763.808,299.704 757.783,298.425 752.003,295.768C747.092,293.461 742.982,290.5 739.664,287.231C737.623,285.221 734.025,281.335 731.419,275.982C728.504,270.002 727.271,264.043 727.271,258.377ZM735.355,258.377C735.355,262.868 736.302,267.717 738.653,272.684C739.977,275.479 742.142,278.846 745.381,282.125C747.741,284.513 751.24,287.22 756.019,289.439C761.334,291.905 766.462,292.364 769.928,292.364C775.104,292.364 780.965,291.166 787.081,287.763C792.717,284.628 796.975,280.294 799.926,275.078C803.136,269.404 804.5,263.632 804.5,258.058C804.5,254.46 803.884,250.624 802.639,246.994C801.274,243.017 799.379,239.782 797.532,237.42C795.258,234.512 792.71,232.083 790.299,230.267C788.166,228.66 785.062,226.82 781.044,225.4C777.83,224.263 773.998,223.538 769.928,223.538C764.726,223.538 759.732,224.691 755.088,226.942C751.852,228.497 748.346,230.866 745.142,234.07C742.483,236.729 739.913,240.299 737.988,244.947C736.312,248.994 735.355,253.499 735.355,258.377Z" style="fill:rgb(223,252,246);fill-rule:nonzero;"/>
                            </g>
                            <g transform="matrix(1,0,0,1,-18.781,0)">
                                <path d="M820.35,217.634L828.435,217.634L828.435,267.897C828.435,272.601 828.965,281.085 833.833,286.433C838.433,291.486 844.231,292.364 848.221,292.364C851.586,292.364 854.238,291.639 856.04,290.875C858.026,290.032 860.252,288.543 862.209,286.194C863.331,284.872 864.541,282.924 865.348,280.343C866.402,277.059 867.209,272.788 867.209,267.897L867.209,217.634L875.241,217.634L875.241,267.897C875.241,276.777 873.369,287.05 865.401,293.64C859.245,298.763 852.447,299.704 847.742,299.704C842.597,299.704 837.726,298.382 833.275,295.768C830.289,294.014 826.113,290.911 823.488,285.662C820.654,280.042 820.35,272.184 820.35,267.897L820.35,217.634Z" style="fill:rgb(223,252,246);fill-rule:nonzero;"/>
                            </g>
                            <g transform="matrix(1,0,0,1,-12.5206,0)">
                                <path d="M891.676,298.268L891.676,217.634L902.579,217.634C917.578,239.938 932.578,262.242 947.577,284.545L947.789,284.545L947.789,217.634L955.821,217.634L955.821,298.268L947.789,298.268C931.851,274.635 915.912,251.001 899.973,227.368L899.76,227.368L899.76,298.268L891.676,298.268Z" style="fill:rgb(223,252,246);fill-rule:nonzero;"/>
                            </g>
                            <g transform="matrix(1,0,0,1,-8.13842,0)">
                                <path d="M972.203,225.105L972.203,217.634L995.712,217.634C1001.97,217.634 1011.31,218.449 1020.02,223.166C1026.51,226.68 1031.91,231.985 1035.66,239.335C1038.85,245.531 1040.28,251.895 1040.28,258.164C1040.28,262.902 1039.39,267.718 1037.49,272.445C1035.6,277.157 1032.99,281.371 1029.91,284.944C1028.58,286.488 1024.88,290.639 1019.78,293.428C1014.7,296.211 1009.23,297.194 1007.2,297.523C1002.48,298.292 993.855,298.268 992.468,298.268L972.203,298.268L972.203,252.168L980.287,252.168L980.287,290.981L991.936,290.981C995.887,290.981 1004.13,290.859 1010.07,289.385C1011.8,288.94 1014.3,288.046 1017.12,286.327C1020.65,284.177 1023.45,280.967 1024.12,280.21C1027.51,276.321 1029.38,271.831 1029.89,270.583C1031.21,267.349 1032.2,263.135 1032.2,258.27C1032.2,252.366 1030.79,247.121 1028.42,242.58C1026.66,239.223 1024.1,235.905 1020.87,233.112C1016.86,229.639 1012.45,227.903 1009.44,226.996C1003.32,225.152 995.77,224.974 991.936,224.974L980.287,224.974L980.287,225.105L972.203,225.105Z" style="fill:rgb(223,252,246);"/>
                            </g>
                            <g transform="matrix(1,0,0,1,-3.13016,0)">
                                <path d="M1055.45,271.142L1055.34,271.142C1051.42,280.184 1047.5,289.226 1043.58,298.268L1035.18,298.268C1046.65,271.39 1058.12,244.512 1069.59,217.634L1078.63,217.634C1091.22,244.512 1103.8,271.39 1116.39,298.268L1107.61,298.268C1096.46,274.457 1085.31,250.647 1074.16,226.836C1068.9,239.176 1063.63,251.515 1058.37,263.855L1058.58,263.855C1057.54,266.284 1056.49,268.713 1055.45,271.142ZM1073.56,271.142L1059.55,271.142C1060.59,268.713 1061.63,266.284 1062.68,263.855L1070.4,263.855C1071.46,266.284 1072.51,268.713 1073.56,271.142Z" style="fill:rgb(223,252,246);"/>
                            </g>
                            <path d="M1120.12,298.268L1120.12,224.974L1101.61,224.974L1101.61,217.634L1146.61,217.634L1146.61,224.974L1128.2,224.974L1128.2,298.268L1120.12,298.268Z" style="fill:rgb(223,252,246);fill-rule:nonzero;"/>
                            <rect x="1155.65" y="217.634" width="8.085" height="80.633" style="fill:rgb(223,252,246);"/>
                            <g transform="matrix(0.880032,0,0,1,141.162,0)">
                                <path d="M1176.66,258.377C1176.66,252.012 1177.97,246.586 1179.88,242.101C1181.36,238.625 1183.95,233.688 1188.47,229.176C1192.16,225.48 1196.28,222.634 1200.49,220.613C1206.58,217.657 1212.93,216.252 1219.32,216.252C1225.83,216.252 1231.54,217.632 1236.42,219.815C1239.92,221.387 1245.14,224.163 1249.69,228.751C1251.76,230.841 1255.34,234.826 1257.93,240.346C1260.58,245.785 1261.97,251.703 1261.97,257.951C1261.97,262.044 1261.43,268.072 1258.54,274.36C1256.99,277.742 1254.29,282.634 1249.79,287.019C1246.06,290.654 1242.05,293.398 1238.09,295.343C1232,298.298 1225.65,299.704 1219.26,299.704C1213.2,299.704 1207.17,298.425 1201.39,295.768C1196.48,293.461 1192.37,290.5 1189.05,287.231C1187.01,285.221 1183.41,281.335 1180.81,275.982C1177.89,270.002 1176.66,264.043 1176.66,258.377ZM1184.74,258.377C1184.74,262.868 1185.69,267.717 1188.04,272.684C1189.37,275.479 1191.53,278.846 1194.77,282.125C1197.13,284.513 1200.63,287.22 1205.41,289.439C1210.72,291.905 1215.85,292.364 1219.32,292.364C1224.49,292.364 1230.35,291.166 1236.47,287.763C1242.1,284.628 1246.36,280.294 1249.31,275.078C1252.52,269.404 1253.89,263.632 1253.89,258.058C1253.89,254.46 1253.27,250.624 1252.03,246.994C1250.66,243.017 1248.77,239.782 1246.92,237.42C1244.64,234.512 1242.1,232.083 1239.69,230.267C1237.55,228.66 1234.45,226.82 1230.43,225.4C1227.22,224.263 1223.38,223.538 1219.32,223.538C1214.11,223.538 1209.12,224.691 1204.48,226.942C1201.24,228.497 1197.73,230.866 1194.53,234.07C1191.87,236.729 1189.3,240.299 1187.38,244.947C1185.7,248.994 1184.74,253.499 1184.74,258.377Z" style="fill:rgb(223,252,246);fill-rule:nonzero;"/>
                            </g>
                            <g transform="matrix(1,0,0,1,-10.6425,0)">
                                <path d="M1274.84,298.268L1274.84,217.634L1285.75,217.634C1300.75,239.938 1315.75,262.242 1330.75,284.545L1330.96,284.545L1330.96,217.634L1338.99,217.634L1338.99,298.268L1330.96,298.268C1315.02,274.635 1299.08,251.001 1283.14,227.368L1282.93,227.368L1282.93,298.268L1274.84,298.268Z" style="fill:rgb(223,252,246);fill-rule:nonzero;"/>
                            </g>
                        </g>
                        <g transform="matrix(1.59736,0,0,1.59736,-392.129,-289.101)">
                            <g transform="matrix(1,0,0,1,-8.13842,0)">
                                <path d="M691.571,298.268L691.571,214.834L670.501,214.834L670.501,206.479L726.106,206.479L726.106,214.834L700.774,214.834L700.774,298.268L691.571,298.268Z" style="fill:rgb(223,252,246);fill-rule:nonzero;"/>
                            </g>
                            <g transform="matrix(1,0,0,1,-4.38223,0)">
                                <path d="M732.016,298.268L732.016,206.479L741.219,206.479L741.219,246.924L788.688,246.924L788.688,206.479L797.831,206.479L797.831,298.268L788.688,298.268L788.688,255.219L741.219,255.219L741.219,298.268L732.016,298.268Z" style="fill:rgb(223,252,246);fill-rule:nonzero;"/>
                            </g>
                            <g transform="matrix(1.17379,0,0,1,-150.52,0)">
                                <path d="M815.934,216.666L815.934,206.479L866.128,206.479L866.128,216.712L853.252,216.712C840.812,216.697 828.373,216.681 815.934,216.666ZM825.137,247.654L825.137,247.772L864.796,247.772L864.796,256.127L854.207,256.127L854.207,256.07L815.934,256.07L815.934,247.654L825.137,247.654ZM815.934,287.998C819.002,288.03 822.07,288.062 825.137,288.095L866.128,288.095L866.128,298.268L815.934,298.268L815.934,287.998Z" style="fill:rgb(223,252,246);"/>
                            </g>
                        </g>
                        <g transform="matrix(1.86144,0,0,1.59736,-214.317,-291.367)">
                            <path d="M697.384,298.268C688.463,267.672 679.542,237.075 670.622,206.479L687.999,206.479C693.287,227.852 698.574,249.225 703.862,270.598L704.104,270.598C709.352,249.225 714.599,227.852 719.846,206.479L732.259,206.479C737.385,227.852 742.511,249.225 747.637,270.598L747.88,270.598C753.208,249.225 758.536,227.852 763.864,206.479L781.241,206.479C772.341,237.075 763.44,267.672 754.54,298.268L741.038,298.268C736.093,278.065 731.149,257.863 726.204,237.66L725.901,237.66C720.876,257.863 715.85,278.065 710.825,298.268L697.384,298.268Z" style="fill:rgb(223,252,246);fill-rule:nonzero;"/>
                            <g transform="matrix(1,0,0,1,1.38544,0)">
                                <path d="M791.893,279.281C789.271,285.61 786.648,291.939 784.026,298.268L765.317,298.268C778.052,267.672 790.787,237.075 803.522,206.479L816.782,206.479C829.598,237.075 842.413,267.672 855.229,298.268L836.46,298.268C833.76,291.713 831.061,285.157 828.362,278.602C825.752,271.938 823.143,265.274 820.533,258.61L820.596,258.61C817.125,249.225 813.654,239.84 810.182,230.455L809.94,230.455C806.823,238.883 803.706,247.31 800.589,255.737L800.585,255.735C797.688,263.584 794.79,271.432 791.893,279.281ZM813.558,274.594L798.749,274.594C800.716,269.266 802.683,263.938 804.65,258.61L807.298,258.61C809.385,263.938 811.471,269.266 813.558,274.594Z" style="fill:rgb(223,252,246);"/>
                            </g>
                            <g transform="matrix(1,0,0,1,8.77447,0)">
                                <path d="M863.343,298.268L863.343,222.403L846.329,222.403L846.329,206.479L897.43,206.479L897.43,222.403L880.296,222.403L880.296,298.268L863.343,298.268Z" style="fill:rgb(223,252,246);fill-rule:nonzero;"/>
                            </g>
                            <g transform="matrix(1.09014,0,0,1,-61.736,0)">
                                <path d="M905.241,222.475L905.241,206.479L954.587,206.479L954.587,222.403L922.255,222.403L922.255,222.475L905.241,222.475ZM922.255,244.717L922.255,244.805L953.255,244.805L953.255,260.668L922.255,260.668L922.255,260.797L905.241,260.797L905.241,244.717L922.255,244.717ZM922.255,282.295L922.255,282.405L954.587,282.405L954.587,298.268L905.241,298.268L905.241,282.295L922.255,282.295Z" style="fill:rgb(223,252,246);"/>
                            </g>
                            <g transform="matrix(1,0,0,1,27.7088,0)">
                                <path d="M970.087,298.268L970.087,206.479L998.241,206.479C1002.37,206.479 1009.47,206.792 1015.44,209.264C1018.32,210.441 1021.2,212.294 1023.67,214.743C1026.3,217.353 1028.19,220.129 1029.42,222.584C1031.2,226.075 1032.39,230.306 1032.39,235.299C1032.39,239.546 1031.51,243.507 1030.12,246.803C1029.63,247.972 1027.79,252.25 1024.34,255.734C1021.63,258.46 1018.93,260.193 1016.83,261.213C1012.83,263.15 1008.31,264.183 1007.26,264.422C1015.58,275.704 1023.89,286.986 1032.21,298.268L1011.62,298.268C1003.53,286.562 995.436,274.856 987.343,263.151L987.1,263.151L987.1,298.268L970.087,298.268ZM987.1,222.403L987.1,250.436L997.999,250.436C1001.82,250.436 1004.97,249.562 1007.26,248.498C1008.85,247.75 1010.79,246.325 1012.35,243.776C1013.54,241.823 1014.35,239.322 1014.35,236.45C1014.35,233.78 1013.63,231.23 1012.35,229.063C1010.93,226.653 1009,225.009 1007.02,224.037C1003.6,222.359 998.78,222.403 997.999,222.403L987.1,222.403Z" style="fill:rgb(223,252,246);fill-rule:nonzero;"/>
                            </g>
                        </g>
                    </g>
                </g>
            </g>
        </g>
    </g>
    <defs>
        <linearGradient id="_Linear2" x1="0" y1="0" x2="1" y2="0" gradientUnits="userSpaceOnUse" gradientTransform="matrix(377.047,625.51,-625.51,377.047,-37.5356,0.5)"><stop offset="0" style="stop-color:rgb(177,245,235);stop-opacity:1"/><stop offset="1" style="stop-color:rgb(91,191,243);stop-opacity:1"/><stop offset="1" style="stop-color:rgb(51,163,188);stop-opacity:1"/></linearGradient>
    </defs>
</svg>
