<?xml version="1.0" encoding="UTF-8" standalone="no"?>
<!DOCTYPE svg PUBLIC "-//W3C//DTD SVG 1.1//EN" "http://www.w3.org/Graphics/SVG/1.1/DTD/svg11.dtd">
<svg width="100%" height="100%" viewBox="0 0 3361 213" version="1.1" xmlns="http://www.w3.org/2000/svg" xmlns:xlink="http://www.w3.org/1999/xlink" xml:space="preserve" xmlns:serif="http://www.serif.com/" style="fill-rule:evenodd;clip-rule:evenodd;stroke-linejoin:round;stroke-miterlimit:2;">
    <g transform="matrix(1,0,0,1,938.288,1652.27)">
        <g transform="matrix(1,0,0,1,-2375.43,1062)">
            <g transform="matrix(1,0,0,1,370.187,-1136.25)">
                <g transform="matrix(1.39935,0,0,1.42266,135.123,-1747.56)">
                    <g transform="matrix(1.75357,0,0,1.75357,738.174,-260.036)">
                        <g transform="matrix(1,0,0,1,-43.1962,0)">
                            <path d="M671.12,226.379L671.12,217.634L718.122,217.634L718.122,226.226C702.455,226.277 686.787,226.328 671.12,226.379ZM671.12,252.896C686.38,252.905 701.639,252.914 716.899,252.923L716.899,261.462L685.465,261.462L685.465,298.268L671.12,298.268L671.12,252.896Z" style="fill:rgb(18,96,122);"/>
                        </g>
                        <g transform="matrix(1,0,0,1,-35.803,0.626032)">
                            <path d="M727.271,258.377C727.271,252.012 728.578,246.586 730.489,242.101C731.969,238.625 734.567,233.688 739.079,229.176C742.775,225.48 746.888,222.634 751.099,220.613C757.19,217.657 763.542,216.252 769.928,216.252C776.444,216.252 782.156,217.632 787.028,219.815C790.535,221.387 795.756,224.163 800.298,228.751C802.368,230.841 805.948,234.826 808.542,240.346C811.192,245.785 812.585,251.703 812.585,257.951C812.585,262.044 812.041,268.072 809.154,274.36C807.601,277.742 804.902,282.634 800.405,287.019C796.676,290.654 792.658,293.398 788.703,295.343C782.612,298.298 776.261,299.704 769.875,299.704C763.808,299.704 757.783,298.425 752.003,295.768C747.092,293.461 742.982,290.5 739.664,287.231C737.623,285.221 734.025,281.335 731.419,275.982C728.504,270.002 727.271,264.043 727.271,258.377ZM735.355,258.377C735.355,262.868 736.302,267.717 738.653,272.684C739.977,275.479 742.142,278.846 745.381,282.125C747.741,284.513 751.24,287.22 756.019,289.439C761.334,291.905 766.462,292.364 769.928,292.364C775.104,292.364 780.965,291.166 787.081,287.763C792.717,284.628 796.975,280.294 799.926,275.078C803.136,269.404 804.5,263.632 804.5,258.058C804.5,254.46 803.884,250.624 802.639,246.994C801.274,243.017 799.379,239.782 797.532,237.42C795.258,234.512 792.71,232.083 790.299,230.267C788.166,228.66 785.062,226.82 781.044,225.4C777.83,224.263 773.998,223.538 769.928,223.538C764.726,223.538 759.732,224.691 755.088,226.942C751.852,228.497 748.346,230.866 745.142,234.07C742.483,236.729 739.913,240.299 737.988,244.947C736.312,248.994 735.355,253.499 735.355,258.377Z" style="fill:rgb(18,96,122);fill-rule:nonzero;"/>
                        </g>
                        <g transform="matrix(1,0,0,1,-23.7743,0)">
                            <path d="M820.35,217.634L828.435,217.634L828.435,267.897C828.435,272.601 828.965,281.085 833.833,286.433C838.433,291.486 844.231,292.364 848.221,292.364C851.586,292.364 854.238,291.639 856.04,290.875C858.026,290.032 860.252,288.543 862.209,286.194C863.331,284.872 864.541,282.924 865.348,280.343C866.402,277.059 867.209,272.788 867.209,267.897L867.209,217.634L875.241,217.634L875.241,267.897C875.241,276.777 873.369,287.05 865.401,293.64C859.245,298.763 852.447,299.704 847.742,299.704C842.597,299.704 837.726,298.382 833.275,295.768C830.289,294.014 826.113,290.911 823.488,285.662C820.654,280.042 820.35,272.184 820.35,267.897L820.35,217.634Z" style="fill:rgb(18,96,122);fill-rule:nonzero;"/>
                        </g>
                        <g transform="matrix(1,0,0,1,-16.0159,0)">
                            <path d="M891.676,298.268L891.676,217.634L902.579,217.634C917.578,239.938 932.578,262.242 947.577,284.545L947.789,284.545L947.789,217.634L955.821,217.634L955.821,298.268L947.789,298.268C931.851,274.635 915.912,251.001 899.973,227.368L899.76,227.368L899.76,298.268L891.676,298.268Z" style="fill:rgb(18,96,122);fill-rule:nonzero;"/>
                        </g>
                        <g transform="matrix(1,0,0,1,-12.133,0)">
                            <path d="M972.203,225.105L972.203,217.634L995.712,217.634C1001.97,217.634 1011.31,218.449 1020.02,223.166C1026.51,226.68 1031.91,231.985 1035.66,239.335C1038.85,245.531 1040.28,251.895 1040.28,258.164C1040.28,262.902 1039.39,267.718 1037.49,272.445C1035.6,277.157 1032.99,281.371 1029.91,284.944C1028.58,286.488 1024.88,290.639 1019.78,293.428C1014.7,296.211 1009.23,297.194 1007.2,297.523C1002.48,298.292 993.855,298.268 992.468,298.268L972.203,298.268L972.203,252.168L980.287,252.168L980.287,290.981L991.936,290.981C995.887,290.981 1004.13,290.859 1010.07,289.385C1011.8,288.94 1014.3,288.046 1017.12,286.327C1020.65,284.177 1023.45,280.967 1024.12,280.21C1027.51,276.321 1029.38,271.831 1029.89,270.583C1031.21,267.349 1032.2,263.135 1032.2,258.27C1032.2,252.366 1030.79,247.121 1028.42,242.58C1026.66,239.223 1024.1,235.905 1020.87,233.112C1016.86,229.639 1012.45,227.903 1009.44,226.996C1003.32,225.152 995.77,224.974 991.936,224.974L980.287,224.974L980.287,225.105L972.203,225.105Z" style="fill:rgb(18,96,122);"/>
                        </g>
                        <g transform="matrix(1,0,0,1,-8.12342,0)">
                            <path d="M1055.45,271.142L1055.34,271.142C1051.42,280.184 1047.5,289.226 1043.58,298.268L1035.18,298.268C1046.65,271.39 1058.12,244.512 1069.59,217.634L1078.63,217.634C1091.22,244.512 1103.8,271.39 1116.39,298.268L1107.61,298.268C1096.46,274.457 1085.31,250.647 1074.16,226.836C1068.9,239.176 1063.63,251.515 1058.37,263.855L1058.58,263.855C1057.54,266.284 1056.49,268.713 1055.45,271.142ZM1073.56,271.142L1059.55,271.142C1060.59,268.713 1061.63,266.284 1062.68,263.855L1070.4,263.855C1071.46,266.284 1072.51,268.713 1073.56,271.142Z" style="fill:rgb(18,96,122);"/>
                        </g>
                        <path d="M1120.12,298.268L1120.12,224.974L1101.61,224.974L1101.61,217.634L1146.61,217.634L1146.61,224.974L1128.2,224.974L1128.2,298.268L1120.12,298.268Z" style="fill:rgb(18,96,122);fill-rule:nonzero;"/>
                        <rect x="1155.65" y="217.634" width="8.085" height="80.633" style="fill:rgb(18,96,122);"/>
                        <g transform="matrix(0.880032,0,0,1,141.162,0)">
                            <path d="M1176.66,258.377C1176.66,252.012 1177.97,246.586 1179.88,242.101C1181.36,238.625 1183.95,233.688 1188.47,229.176C1192.16,225.48 1196.28,222.634 1200.49,220.613C1206.58,217.657 1212.93,216.252 1219.32,216.252C1225.83,216.252 1231.54,217.632 1236.42,219.815C1239.92,221.387 1245.14,224.163 1249.69,228.751C1251.76,230.841 1255.34,234.826 1257.93,240.346C1260.58,245.785 1261.97,251.703 1261.97,257.951C1261.97,262.044 1261.43,268.072 1258.54,274.36C1256.99,277.742 1254.29,282.634 1249.79,287.019C1246.06,290.654 1242.05,293.398 1238.09,295.343C1232,298.298 1225.65,299.704 1219.26,299.704C1213.2,299.704 1207.17,298.425 1201.39,295.768C1196.48,293.461 1192.37,290.5 1189.05,287.231C1187.01,285.221 1183.41,281.335 1180.81,275.982C1177.89,270.002 1176.66,264.043 1176.66,258.377ZM1184.74,258.377C1184.74,262.868 1185.69,267.717 1188.04,272.684C1189.37,275.479 1191.53,278.846 1194.77,282.125C1197.13,284.513 1200.63,287.22 1205.41,289.439C1210.72,291.905 1215.85,292.364 1219.32,292.364C1224.49,292.364 1230.35,291.166 1236.47,287.763C1242.1,284.628 1246.36,280.294 1249.31,275.078C1252.52,269.404 1253.89,263.632 1253.89,258.058C1253.89,254.46 1253.27,250.624 1252.03,246.994C1250.66,243.017 1248.77,239.782 1246.92,237.42C1244.64,234.512 1242.1,232.083 1239.69,230.267C1237.55,228.66 1234.45,226.82 1230.43,225.4C1227.22,224.263 1223.38,223.538 1219.32,223.538C1214.11,223.538 1209.12,224.691 1204.48,226.942C1201.24,228.497 1197.73,230.866 1194.53,234.07C1191.87,236.729 1189.3,240.299 1187.38,244.947C1185.7,248.994 1184.74,253.499 1184.74,258.377Z" style="fill:rgb(18,96,122);fill-rule:nonzero;"/>
                        </g>
                        <g transform="matrix(1,0,0,1,-10.6425,0)">
                            <path d="M1274.84,298.268L1274.84,217.634L1285.75,217.634C1300.75,239.938 1315.75,262.242 1330.75,284.545L1330.96,284.545L1330.96,217.634L1338.99,217.634L1338.99,298.268L1330.96,298.268C1315.02,274.635 1299.08,251.001 1283.14,227.368L1282.93,227.368L1282.93,298.268L1274.84,298.268Z" style="fill:rgb(18,96,122);fill-rule:nonzero;"/>
                        </g>
                    </g>
                    <g transform="matrix(1.59736,0,0,1.59736,-392.129,-207.89)">
                        <g transform="matrix(1,0,0,1,-8.13842,0)">
                            <path d="M691.571,298.268L691.571,214.834L670.501,214.834L670.501,206.479L726.106,206.479L726.106,214.834L700.774,214.834L700.774,298.268L691.571,298.268Z" style="fill:rgb(18,96,122);fill-rule:nonzero;"/>
                        </g>
                        <g transform="matrix(1,0,0,1,-4.38223,0)">
                            <path d="M732.016,298.268L732.016,206.479L741.219,206.479L741.219,246.924L788.688,246.924L788.688,206.479L797.831,206.479L797.831,298.268L788.688,298.268L788.688,255.219L741.219,255.219L741.219,298.268L732.016,298.268Z" style="fill:rgb(18,96,122);fill-rule:nonzero;"/>
                        </g>
                        <g transform="matrix(1.17379,0,0,1,-150.52,0)">
                            <path d="M815.934,216.666L815.934,206.479L866.128,206.479L866.128,216.712L853.252,216.712C840.812,216.697 828.373,216.681 815.934,216.666ZM825.137,247.654L825.137,247.772L864.796,247.772L864.796,256.127L854.207,256.127L854.207,256.07L815.934,256.07L815.934,247.654L825.137,247.654ZM815.934,287.998C819.002,288.03 822.07,288.062 825.137,288.095L866.128,288.095L866.128,298.268L815.934,298.268L815.934,287.998Z" style="fill:rgb(18,96,122);"/>
                        </g>
                    </g>
                    <g transform="matrix(1.86144,0,0,1.59736,-199.714,-210.156)">
                        <path d="M697.384,298.268C688.463,267.672 679.542,237.075 670.622,206.479L687.999,206.479C693.287,227.852 698.574,249.225 703.862,270.598L704.104,270.598C709.352,249.225 714.599,227.852 719.846,206.479L732.259,206.479C737.385,227.852 742.511,249.225 747.637,270.598L747.88,270.598C753.208,249.225 758.536,227.852 763.864,206.479L781.241,206.479C772.341,237.075 763.44,267.672 754.54,298.268L741.038,298.268C736.093,278.065 731.149,257.863 726.204,237.66L725.901,237.66C720.876,257.863 715.85,278.065 710.825,298.268L697.384,298.268Z" style="fill:rgb(18,96,122);fill-rule:nonzero;"/>
                        <g transform="matrix(1,0,0,1,1.38544,0)">
                            <path d="M791.893,279.281C789.271,285.61 786.648,291.939 784.026,298.268L765.317,298.268C778.052,267.672 790.787,237.075 803.522,206.479L816.782,206.479C829.598,237.075 842.413,267.672 855.229,298.268L836.46,298.268C833.76,291.713 831.061,285.157 828.362,278.602C825.752,271.938 823.143,265.274 820.533,258.61L820.596,258.61C817.125,249.225 813.654,239.84 810.182,230.455L809.94,230.455C806.823,238.883 803.706,247.31 800.589,255.737L800.585,255.735C797.688,263.584 794.79,271.432 791.893,279.281ZM813.558,274.594L798.749,274.594C800.716,269.266 802.683,263.938 804.65,258.61L807.298,258.61C809.385,263.938 811.471,269.266 813.558,274.594Z" style="fill:rgb(18,96,122);"/>
                        </g>
                        <g transform="matrix(1,0,0,1,8.77447,0)">
                            <path d="M863.343,298.268L863.343,222.403L846.329,222.403L846.329,206.479L897.43,206.479L897.43,222.403L880.296,222.403L880.296,298.268L863.343,298.268Z" style="fill:rgb(37,105,128);fill-rule:nonzero;"/>
                        </g>
                        <g transform="matrix(1.09014,0,0,1,-61.736,0)">
                            <path d="M905.241,222.475L905.241,206.479L954.587,206.479L954.587,222.403L922.255,222.403L922.255,222.475L905.241,222.475ZM922.255,244.717L922.255,244.805L953.255,244.805L953.255,260.668L922.255,260.668L922.255,260.797L905.241,260.797L905.241,244.717L922.255,244.717ZM922.255,282.295L922.255,282.405L954.587,282.405L954.587,298.268L905.241,298.268L905.241,282.295L922.255,282.295Z" style="fill:rgb(18,96,122);"/>
                        </g>
                        <g transform="matrix(1,0,0,1,27.7088,0)">
                            <path d="M970.087,298.268L970.087,206.479L998.241,206.479C1002.37,206.479 1009.47,206.792 1015.44,209.264C1018.32,210.441 1021.2,212.294 1023.67,214.743C1026.3,217.353 1028.19,220.129 1029.42,222.584C1031.2,226.075 1032.39,230.306 1032.39,235.299C1032.39,239.546 1031.51,243.507 1030.12,246.803C1029.63,247.972 1027.79,252.25 1024.34,255.734C1021.63,258.46 1018.93,260.193 1016.83,261.213C1012.83,263.15 1008.31,264.183 1007.26,264.422C1015.58,275.704 1023.89,286.986 1032.21,298.268L1011.62,298.268C1003.53,286.562 995.436,274.856 987.343,263.151L987.1,263.151L987.1,298.268L970.087,298.268ZM987.1,222.403L987.1,250.436L997.999,250.436C1001.82,250.436 1004.97,249.562 1007.26,248.498C1008.85,247.75 1010.79,246.325 1012.35,243.776C1013.54,241.823 1014.35,239.322 1014.35,236.45C1014.35,233.78 1013.63,231.23 1012.35,229.063C1010.93,226.653 1009,225.009 1007.02,224.037C1003.6,222.359 998.78,222.403 997.999,222.403L987.1,222.403Z" style="fill:rgb(18,96,122);fill-rule:nonzero;"/>
                        </g>
                    </g>
                </g>
            </g>
        </g>
    </g>
</svg>
