<?xml version="1.0" encoding="UTF-8" standalone="no"?>
<!DOCTYPE svg PUBLIC "-//W3C//DTD SVG 1.1//EN" "http://www.w3.org/Graphics/SVG/1.1/DTD/svg11.dtd">
<svg width="100%" height="100%" viewBox="0 0 1015 209" version="1.1" xmlns="http://www.w3.org/2000/svg" xmlns:xlink="http://www.w3.org/1999/xlink" xml:space="preserve" xmlns:serif="http://www.serif.com/" style="fill-rule:evenodd;clip-rule:evenodd;stroke-linejoin:round;stroke-miterlimit:2;">
    <g transform="matrix(1,0,0,1,402.747,1651.57)">
        <g transform="matrix(1,0,0,1,-2375.43,1062)">
            <g transform="matrix(1,0,0,1,370.187,-1136.25)">
                <g transform="matrix(1.39935,0,0,1.42266,135.123,-1747.56)">
                    <g transform="matrix(1.86144,0,0,1.59736,-199.714,-210.156)">
                        <path d="M697.384,298.268C688.463,267.672 679.542,237.075 670.622,206.479L687.999,206.479C693.287,227.852 698.574,249.225 703.862,270.598L704.104,270.598C709.352,249.225 714.599,227.852 719.846,206.479L732.259,206.479C737.385,227.852 742.511,249.225 747.637,270.598L747.88,270.598C753.208,249.225 758.536,227.852 763.864,206.479L781.241,206.479C772.341,237.075 763.44,267.672 754.54,298.268L741.038,298.268C736.093,278.065 731.149,257.863 726.204,237.66L725.901,237.66C720.876,257.863 715.85,278.065 710.825,298.268L697.384,298.268Z" style="fill:rgb(18,96,122);fill-rule:nonzero;"/>
                        <g transform="matrix(1,0,0,1,1.38544,0)">
                            <path d="M791.893,279.281C789.271,285.61 786.648,291.939 784.026,298.268L765.317,298.268C778.052,267.672 790.787,237.075 803.522,206.479L816.782,206.479C829.598,237.075 842.413,267.672 855.229,298.268L836.46,298.268C833.76,291.713 831.061,285.157 828.362,278.602C825.752,271.938 823.143,265.274 820.533,258.61L820.596,258.61C817.125,249.225 813.654,239.84 810.182,230.455L809.94,230.455C806.823,238.883 803.706,247.31 800.589,255.737L800.585,255.735C797.688,263.584 794.79,271.432 791.893,279.281ZM813.558,274.594L798.749,274.594C800.716,269.266 802.683,263.938 804.65,258.61L807.298,258.61C809.385,263.938 811.471,269.266 813.558,274.594Z" style="fill:rgb(18,96,122);"/>
                        </g>
                        <g transform="matrix(1,0,0,1,8.77447,0)">
                            <path d="M863.343,298.268L863.343,222.403L846.329,222.403L846.329,206.479L897.43,206.479L897.43,222.403L880.296,222.403L880.296,298.268L863.343,298.268Z" style="fill:rgb(37,105,128);fill-rule:nonzero;"/>
                        </g>
                        <g transform="matrix(1.09014,0,0,1,-61.736,0)">
                            <path d="M905.241,222.475L905.241,206.479L954.587,206.479L954.587,222.403L922.255,222.403L922.255,222.475L905.241,222.475ZM922.255,244.717L922.255,244.805L953.255,244.805L953.255,260.668L922.255,260.668L922.255,260.797L905.241,260.797L905.241,244.717L922.255,244.717ZM922.255,282.295L922.255,282.405L954.587,282.405L954.587,298.268L905.241,298.268L905.241,282.295L922.255,282.295Z" style="fill:rgb(18,96,122);"/>
                        </g>
                        <g transform="matrix(1,0,0,1,27.7088,0)">
                            <path d="M970.087,298.268L970.087,206.479L998.241,206.479C1002.37,206.479 1009.47,206.792 1015.44,209.264C1018.32,210.441 1021.2,212.294 1023.67,214.743C1026.3,217.353 1028.19,220.129 1029.42,222.584C1031.2,226.075 1032.39,230.306 1032.39,235.299C1032.39,239.546 1031.51,243.507 1030.12,246.803C1029.63,247.972 1027.79,252.25 1024.34,255.734C1021.63,258.46 1018.93,260.193 1016.83,261.213C1012.83,263.15 1008.31,264.183 1007.26,264.422C1015.58,275.704 1023.89,286.986 1032.21,298.268L1011.62,298.268C1003.53,286.562 995.436,274.856 987.343,263.151L987.1,263.151L987.1,298.268L970.087,298.268ZM987.1,222.403L987.1,250.436L997.999,250.436C1001.82,250.436 1004.97,249.562 1007.26,248.498C1008.85,247.75 1010.79,246.325 1012.35,243.776C1013.54,241.823 1014.35,239.322 1014.35,236.45C1014.35,233.78 1013.63,231.23 1012.35,229.063C1010.93,226.653 1009,225.009 1007.02,224.037C1003.6,222.359 998.78,222.403 997.999,222.403L987.1,222.403Z" style="fill:rgb(18,96,122);fill-rule:nonzero;"/>
                        </g>
                    </g>
                </g>
            </g>
        </g>
    </g>
</svg>
