<?xml version="1.0" encoding="UTF-8" standalone="no"?>
<!DOCTYPE svg PUBLIC "-//W3C//DTD SVG 1.1//EN" "http://www.w3.org/Graphics/SVG/1.1/DTD/svg11.dtd">
<svg width="100%" height="100%" viewBox="0 0 1322 409" version="1.1" xmlns="http://www.w3.org/2000/svg" xmlns:xlink="http://www.w3.org/1999/xlink" xml:space="preserve" xmlns:serif="http://www.serif.com/" style="fill-rule:evenodd;clip-rule:evenodd;stroke-linejoin:round;stroke-miterlimit:2;">
    <g transform="matrix(1,0,0,1,-690.982,-151.218)">
        <g transform="matrix(1,0,0,1,163.073,93.8646)">
            <g transform="matrix(1.16328,0,0,1.16328,-246.72,12.6197)">
                <g transform="matrix(1.59736,0,0,1.59736,-320.304,-89.9317)">
                    <g transform="matrix(1,0,0,1,-43.1962,0)">
                        <path d="M671.12,226.379L671.12,217.634L718.122,217.634L718.122,226.226L671.12,226.379ZM671.12,252.896L716.899,252.923L716.899,261.462L685.465,261.462L685.465,298.268L671.12,298.268L671.12,252.896Z" style="fill:rgb(34,106,92);"/>
                    </g>
                    <g transform="matrix(1,0,0,1,-33.8057,0.626032)">
                        <path d="M727.271,258.377C727.271,252.561 728.343,247.136 730.489,242.101C732.634,237.066 735.497,232.758 739.079,229.176C742.66,225.595 746.667,222.74 751.099,220.613C757.092,217.705 763.368,216.252 769.928,216.252C776.027,216.252 781.727,217.439 787.028,219.815C792.329,222.191 796.752,225.169 800.298,228.751C803.844,232.332 806.592,236.197 808.542,240.346C811.237,245.877 812.585,251.746 812.585,257.951C812.585,263.908 811.441,269.378 809.154,274.36C806.867,279.342 803.95,283.561 800.405,287.019C796.859,290.476 792.958,293.25 788.703,295.343C782.711,298.25 776.434,299.704 769.875,299.704C763.669,299.704 757.712,298.392 752.003,295.768C747.323,293.57 743.209,290.724 739.664,287.231C736.118,283.739 733.37,279.989 731.419,275.982C728.654,270.309 727.271,264.44 727.271,258.377ZM735.355,258.377C735.355,263.27 736.455,268.039 738.653,272.684C740.249,276.053 742.491,279.2 745.381,282.125C748.271,285.051 751.817,287.488 756.019,289.439C760.221,291.389 764.857,292.364 769.928,292.364C775.849,292.364 781.567,290.83 787.081,287.763C792.595,284.696 796.876,280.468 799.926,275.078C802.975,269.688 804.5,264.015 804.5,258.058C804.5,254.299 803.88,250.611 802.639,246.994C801.397,243.378 799.695,240.186 797.532,237.42C795.369,234.655 792.958,232.27 790.299,230.267C787.639,228.263 784.554,226.641 781.044,225.4C777.534,224.159 773.828,223.538 769.928,223.538C764.715,223.538 759.769,224.673 755.088,226.942C751.471,228.68 748.156,231.056 745.142,234.07C742.128,237.084 739.743,240.709 737.988,244.947C736.233,249.184 735.355,253.661 735.355,258.377Z" style="fill:rgb(34,106,92);fill-rule:nonzero;"/>
                    </g>
                    <g transform="matrix(1,0,0,1,-18.781,0)">
                        <path d="M820.35,217.634L828.435,217.634L828.435,267.897C828.435,276.301 830.234,282.48 833.833,286.433C837.433,290.387 842.228,292.364 848.221,292.364C851.093,292.364 853.699,291.868 856.04,290.875C858.38,289.882 860.436,288.322 862.209,286.194C863.592,284.563 864.638,282.613 865.348,280.343C866.589,276.478 867.209,272.33 867.209,267.897L867.209,217.634L875.241,217.634L875.241,267.897C875.241,279.634 871.961,288.215 865.401,293.64C860.543,297.683 854.657,299.704 847.742,299.704C842.565,299.704 837.743,298.392 833.275,295.768C828.807,293.144 825.545,289.775 823.488,285.662C821.396,281.514 820.35,275.592 820.35,267.897L820.35,217.634Z" style="fill:rgb(34,106,92);fill-rule:nonzero;"/>
                    </g>
                    <g transform="matrix(1,0,0,1,-12.5206,0)">
                        <path d="M891.676,298.268L891.676,217.634L902.579,217.634L947.577,284.545L947.789,284.545L947.789,217.634L955.821,217.634L955.821,298.268L947.789,298.268L899.973,227.368L899.76,227.368L899.76,298.268L891.676,298.268Z" style="fill:rgb(34,106,92);fill-rule:nonzero;"/>
                    </g>
                    <g transform="matrix(1,0,0,1,-8.13842,0)">
                        <path d="M972.203,225.105L972.203,217.634L995.712,217.634C1005.11,217.634 1013.21,219.478 1020.02,223.166C1026.83,226.854 1032.04,232.243 1035.66,239.335C1038.74,245.328 1040.28,251.604 1040.28,258.164C1040.28,263.057 1039.35,267.818 1037.49,272.445C1035.63,277.072 1033.1,281.239 1029.91,284.944C1026.72,288.65 1023.34,291.477 1019.78,293.428C1016.22,295.378 1012.02,296.743 1007.2,297.523C1004.15,298.02 999.24,298.268 992.468,298.268L972.203,298.268L972.203,252.168L980.287,252.168L980.287,290.981L991.936,290.981C999.737,290.981 1005.78,290.449 1010.07,289.385C1012.41,288.783 1014.76,287.763 1017.12,286.327C1019.48,284.891 1021.81,282.852 1024.12,280.21C1026.42,277.569 1028.34,274.36 1029.89,270.583C1031.43,266.807 1032.2,262.703 1032.2,258.27C1032.2,252.632 1030.94,247.402 1028.42,242.58C1026.54,238.998 1024.03,235.843 1020.87,233.112C1017.71,230.382 1013.9,228.343 1009.44,226.996C1004.97,225.648 999.134,224.974 991.936,224.974L980.287,224.974L980.287,225.105L972.203,225.105Z" style="fill:rgb(34,106,92);"/>
                    </g>
                    <g transform="matrix(1,0,0,1,-3.13016,0)">
                        <path d="M1055.45,271.142L1055.34,271.142L1043.58,298.268L1035.18,298.268L1069.59,217.634L1078.63,217.634L1116.39,298.268L1107.61,298.268L1074.16,226.836L1058.37,263.855L1058.58,263.855L1055.45,271.142ZM1073.56,271.142L1059.55,271.142L1062.68,263.855L1070.4,263.855L1073.56,271.142Z" style="fill:rgb(34,106,92);"/>
                    </g>
                    <path d="M1120.12,298.268L1120.12,224.974L1101.61,224.974L1101.61,217.634L1146.61,217.634L1146.61,224.974L1128.2,224.974L1128.2,298.268L1120.12,298.268Z" style="fill:rgb(34,106,92);fill-rule:nonzero;"/>
                    <rect x="1155.65" y="217.634" width="8.085" height="80.633" style="fill:rgb(34,106,92);fill-rule:nonzero;"/>
                    <g transform="matrix(0.880032,0,0,1,141.162,0)">
                        <path d="M1176.66,258.377C1176.66,252.561 1177.73,247.136 1179.88,242.101C1182.02,237.066 1184.88,232.758 1188.47,229.176C1192.05,225.595 1196.06,222.74 1200.49,220.613C1206.48,217.705 1212.76,216.252 1219.32,216.252C1225.41,216.252 1231.12,217.439 1236.42,219.815C1241.72,222.191 1246.14,225.169 1249.69,228.751C1253.23,232.332 1255.98,236.197 1257.93,240.346C1260.62,245.877 1261.97,251.746 1261.97,257.951C1261.97,263.908 1260.83,269.378 1258.54,274.36C1256.26,279.342 1253.34,283.561 1249.79,287.019C1246.25,290.476 1242.35,293.25 1238.09,295.343C1232.1,298.25 1225.82,299.704 1219.26,299.704C1213.06,299.704 1207.1,298.392 1201.39,295.768C1196.71,293.57 1192.6,290.724 1189.05,287.231C1185.51,283.739 1182.76,279.989 1180.81,275.982C1178.04,270.309 1176.66,264.44 1176.66,258.377ZM1184.74,258.377C1184.74,263.27 1185.84,268.039 1188.04,272.684C1189.64,276.053 1191.88,279.2 1194.77,282.125C1197.66,285.051 1201.2,287.488 1205.41,289.439C1209.61,291.389 1214.25,292.364 1219.32,292.364C1225.24,292.364 1230.95,290.83 1236.47,287.763C1241.98,284.696 1246.26,280.468 1249.31,275.078C1252.36,269.688 1253.89,264.015 1253.89,258.058C1253.89,254.299 1253.27,250.611 1252.03,246.994C1250.79,243.378 1249.08,240.186 1246.92,237.42C1244.76,234.655 1242.35,232.27 1239.69,230.267C1237.03,228.263 1233.94,226.641 1230.43,225.4C1226.92,224.159 1223.22,223.538 1219.32,223.538C1214.1,223.538 1209.16,224.673 1204.48,226.942C1200.86,228.68 1197.54,231.056 1194.53,234.07C1191.52,237.084 1189.13,240.709 1187.38,244.947C1185.62,249.184 1184.74,253.661 1184.74,258.377Z" style="fill:rgb(34,106,92);fill-rule:nonzero;"/>
                    </g>
                    <g transform="matrix(1,0,0,1,-10.6425,0)">
                        <path d="M1274.84,298.268L1274.84,217.634L1285.75,217.634L1330.75,284.545L1330.96,284.545L1330.96,217.634L1338.99,217.634L1338.99,298.268L1330.96,298.268L1283.14,227.368L1282.93,227.368L1282.93,298.268L1274.84,298.268Z" style="fill:rgb(34,106,92);fill-rule:nonzero;"/>
                    </g>
                </g>
                <g transform="matrix(1.59736,0,0,1.59736,-392.129,-289.101)">
                    <g transform="matrix(1,0,0,1,-8.13842,0)">
                        <path d="M691.571,298.268L691.571,214.834L670.501,214.834L670.501,206.479L726.106,206.479L726.106,214.834L700.774,214.834L700.774,298.268L691.571,298.268Z" style="fill:rgb(34,106,92);fill-rule:nonzero;"/>
                    </g>
                    <g transform="matrix(1,0,0,1,-4.38223,0)">
                        <path d="M732.016,298.268L732.016,206.479L741.219,206.479L741.219,246.924L788.688,246.924L788.688,206.479L797.831,206.479L797.831,298.268L788.688,298.268L788.688,255.219L741.219,255.219L741.219,298.268L732.016,298.268Z" style="fill:rgb(34,106,92);fill-rule:nonzero;"/>
                    </g>
                    <g transform="matrix(1.17379,0,0,1,-150.52,0)">
                        <path d="M815.934,216.666L815.934,206.479L866.128,206.479L866.128,216.712L853.252,216.712L815.934,216.666ZM825.137,247.654L825.137,247.772L864.796,247.772L864.796,256.127L854.207,256.127L854.207,256.07L815.934,256.07L815.934,247.654L825.137,247.654ZM815.934,287.998L825.137,288.095L866.128,288.095L866.128,298.268L815.934,298.268L815.934,287.998Z" style="fill:rgb(34,106,92);"/>
                    </g>
                </g>
                <g transform="matrix(1.86144,0,0,1.59736,-214.317,-291.367)">
                    <path d="M697.384,298.268L670.622,206.479L687.999,206.479L703.862,270.598L704.104,270.598L719.846,206.479L732.259,206.479L747.637,270.598L747.88,270.598L763.864,206.479L781.241,206.479L754.54,298.268L741.038,298.268L726.204,237.66L725.901,237.66L710.825,298.268L697.384,298.268Z" style="fill:rgb(34,106,92);fill-rule:nonzero;"/>
                    <g transform="matrix(1,0,0,1,1.38544,0)">
                        <path d="M791.893,279.281L784.026,298.268L765.317,298.268L803.522,206.479L816.782,206.479L855.229,298.268L836.46,298.268L828.362,278.602L820.533,258.61L820.596,258.61L810.182,230.455L809.94,230.455L800.589,255.737L800.585,255.735L791.893,279.281ZM813.558,274.594L798.749,274.594L804.65,258.61L807.298,258.61L813.558,274.594Z" style="fill:rgb(34,106,92);"/>
                    </g>
                    <g transform="matrix(1,0,0,1,8.77447,0)">
                        <path d="M863.343,298.268L863.343,222.403L846.329,222.403L846.329,206.479L897.43,206.479L897.43,222.403L880.296,222.403L880.296,298.268L863.343,298.268Z" style="fill:rgb(34,106,92);fill-rule:nonzero;"/>
                    </g>
                    <g transform="matrix(1.09014,0,0,1,-61.736,0)">
                        <path d="M905.241,222.475L905.241,206.479L954.587,206.479L954.587,222.403L922.255,222.403L922.255,222.475L905.241,222.475ZM922.255,244.717L922.255,244.805L953.255,244.805L953.255,260.668L922.255,260.668L922.255,260.797L905.241,260.797L905.241,244.717L922.255,244.717ZM922.255,282.295L922.255,282.405L954.587,282.405L954.587,298.268L905.241,298.268L905.241,282.295L922.255,282.295Z" style="fill:rgb(34,106,92);"/>
                    </g>
                    <g transform="matrix(1,0,0,1,27.7088,0)">
                        <path d="M970.087,298.268L970.087,206.479L998.241,206.479C1005.22,206.479 1010.96,207.407 1015.44,209.264C1018.5,210.515 1021.25,212.342 1023.67,214.743C1026.09,217.145 1028.01,219.759 1029.42,222.584C1031.4,226.459 1032.39,230.698 1032.39,235.299C1032.39,239.376 1031.63,243.211 1030.12,246.803C1028.61,250.395 1026.68,253.372 1024.34,255.734C1022,258.095 1019.49,259.922 1016.83,261.213C1014.17,262.505 1010.98,263.575 1007.26,264.422L1032.21,298.268L1011.62,298.268L987.343,263.151L987.1,263.151L987.1,298.268L970.087,298.268ZM987.1,222.403L987.1,250.436L997.999,250.436C1001.39,250.436 1004.48,249.79 1007.26,248.498C1009.32,247.53 1011.02,245.955 1012.35,243.776C1013.68,241.596 1014.35,239.154 1014.35,236.45C1014.35,233.785 1013.68,231.323 1012.35,229.063C1011.02,226.802 1009.24,225.127 1007.02,224.037C1004.8,222.948 1001.79,222.403 997.999,222.403L987.1,222.403Z" style="fill:rgb(34,106,92);fill-rule:nonzero;"/>
                    </g>
                </g>
            </g>
        </g>
    </g>
</svg>
